<?xml version="1.0" encoding="utf-8"?>
<!-- Generator: Adobe Illustrator 24.0.1, SVG Export Plug-In . SVG Version: 6.00 Build 0)  -->
<svg version="1.1" id="Layer_1" xmlns="http://www.w3.org/2000/svg" xmlns:xlink="http://www.w3.org/1999/xlink" x="0px" y="0px"
	 viewBox="0 0 37 37" style="enable-background:new 0 0 37 37;" xml:space="preserve">
<style type="text/css">
	.st0{fill:#280025;}
	.st1{fill:#F5F5F5;}
</style>
<title>Asset 11</title>
<g id="Layer_2_1_">
	<g id="CG_Social_Media_Icons">
		<g id="behance">
			<path class="st0" d="M2,1.4h33c0.8,0,1.5,0.7,1.5,1.5V35c0,0.8-0.7,1.5-1.5,1.5H2c-0.8,0-1.5-0.7-1.5-1.5V2.9
				C0.5,2,1.2,1.4,2,1.4z"/>
			<path id="B" class="st1" d="M6.5,10.5h4.9c2.2,0,3.8,0.3,4.9,1c1,0.6,1.5,1.6,1.5,3c0,0.8-0.2,1.6-0.7,2.3c-0.4,0.6-1,1-1.8,1.1
				V18c1,0.2,1.7,0.6,2.1,1.3c0.5,0.7,0.7,1.6,0.7,2.4c0,1.4-0.5,2.6-1.5,3.4c-1,0.8-2.4,1.2-4.2,1.2H6.5V10.5z M9.9,16.7h1.9
				c0.9,0,1.5-0.1,2-0.4c0.4-0.3,0.6-0.7,0.6-1.4c0-0.5-0.2-1-0.7-1.3c-0.4-0.3-1.1-0.4-2.1-0.4H9.9V16.7z M9.9,19.4v4.1H12
				c0.9,0,1.6-0.2,2-0.5c0.4-0.4,0.7-1,0.7-1.6c0-1.3-0.9-2-2.8-2H9.9z"/>
			<path id="e" class="st1" d="M26.5,26.5c-1.9,0-3.5-0.5-4.5-1.6c-1.1-1.1-1.6-2.6-1.6-4.5c0-2,0.5-3.6,1.5-4.7
				c1-1.1,2.4-1.6,4.2-1.6c1.7,0,3,0.5,4,1.5c1,1,1.4,2.3,1.4,4v1.6h-7.7c0,0.8,0.3,1.6,0.8,2.2c0.6,0.5,1.4,0.8,2.2,0.8
				c0.7,0,1.4-0.1,2.1-0.2c0.7-0.2,1.4-0.4,2-0.7v2.5c-0.6,0.3-1.2,0.5-1.8,0.7C28.1,26.4,27.3,26.5,26.5,26.5z M26.1,16.3
				c-0.6,0-1.2,0.2-1.6,0.7c-0.4,0.5-0.7,1.2-0.7,1.9h4.6c0-0.7-0.2-1.3-0.6-1.9C27.3,16.5,26.7,16.3,26.1,16.3L26.1,16.3z"/>
			<path class="st1" d="M22.9,11.1h6.3c0.1,0,0.1,0.1,0.1,0.1v1.5c0,0.1-0.1,0.1-0.1,0.1h-6.3c-0.1,0-0.1-0.1-0.1-0.1v-1.5
				C22.7,11.2,22.8,11.1,22.9,11.1z"/>
		</g>
	</g>
</g>
</svg>
