<?xml version="1.0" encoding="utf-8"?>
<!-- Generator: Adobe Illustrator 24.0.1, SVG Export Plug-In . SVG Version: 6.00 Build 0)  -->
<svg version="1.1" id="Layer_1" xmlns="http://www.w3.org/2000/svg" xmlns:xlink="http://www.w3.org/1999/xlink" x="0px" y="0px"
	 viewBox="0 0 37 37" style="enable-background:new 0 0 37 37;" xml:space="preserve">
<style type="text/css">
	.st0{fill:#F5F5F5;}
	.st1{fill:#280025;}
	.st2{fill:#280025;stroke:#F5F5F5;stroke-miterlimit:10;}
</style>
<title>Asset 3</title>
<g id="Layer_2_1_">
	<g id="Layer_2-2">
		<g id="Behance.Logo">
			<path class="st0" d="M35,36.1H2c-0.8,0-1.5-0.7-1.5-1.5V2.4c0-0.8,0.7-1.5,1.5-1.5h33c0.8,0,1.5,0.7,1.5,1.5v32.1
				C36.5,35.4,35.8,36.1,35,36.1z"/>
			<path class="st1" d="M26.1,15.9c-0.6,0-1.2,0.2-1.6,0.7c-0.4,0.5-0.7,1.2-0.7,1.9h4.6c0-0.7-0.2-1.3-0.6-1.9
				C27.3,16.1,26.7,15.8,26.1,15.9z"/>
			<path class="st1" d="M13.8,15.9c0.4-0.3,0.6-0.7,0.6-1.4c0-0.5-0.2-1-0.7-1.3c-0.4-0.3-1.1-0.4-2.1-0.4H9.9v3.5h1.9
				C12.7,16.3,13.3,16.1,13.8,15.9z"/>
			<path class="st1" d="M11.9,18.9H9.9v4.1H12c0.9,0,1.6-0.2,2-0.5c0.4-0.4,0.7-1,0.7-1.6C14.7,19.6,13.8,18.9,11.9,18.9z"/>
			<path class="st2" d="M35,0.9H2c-0.8,0-1.5,0.7-1.5,1.5v32.1c0,0.8,0.7,1.5,1.5,1.5h33c0.8,0,1.5-0.7,1.5-1.5V2.4
				C36.5,1.6,35.8,0.9,35,0.9z M16.6,24.6c-1,0.8-2.4,1.2-4.2,1.2H6.5V10.1h4.9c2.2,0,3.8,0.3,4.9,1c1,0.6,1.5,1.6,1.5,3
				c0,0.8-0.2,1.6-0.7,2.3c-0.4,0.6-1,1-1.8,1.1v0.1c1,0.2,1.7,0.6,2.1,1.3c0.5,0.7,0.7,1.6,0.7,2.4C18.2,22.7,17.7,23.8,16.6,24.6z
				 M31.4,20.6h-7.7c0,0.8,0.3,1.6,0.8,2.2c0.6,0.5,1.4,0.8,2.2,0.8c0.7,0,1.4-0.1,2.1-0.2c0.7-0.2,1.4-0.4,2-0.7v2.5
				c-0.6,0.3-1.2,0.5-1.8,0.7c-0.8,0.1-1.6,0.2-2.4,0.2c-1.9,0-3.5-0.5-4.5-1.6c-1.1-1.1-1.6-2.6-1.6-4.5c0-2,0.5-3.6,1.5-4.7
				c1-1.1,2.4-1.6,4.2-1.6c1.7,0,3,0.5,4,1.5c1,1,1.4,2.3,1.4,4L31.4,20.6z"/>
			<path class="st0" d="M22.7,10.6H29c0.1,0,0.1,0.1,0.1,0.1v1.5c0,0.1-0.1,0.1-0.1,0.1h-6.3c-0.1,0-0.1-0.1-0.1-0.1v-1.5
				C22.6,10.7,22.6,10.6,22.7,10.6z"/>
		</g>
	</g>
</g>
</svg>
