<svg xmlns="http://www.w3.org/2000/svg" viewBox="0 0 120.78 117.79"><defs><style>.cls-1{fill:#333;}.cls-2{fill:#f5f5f5;}</style></defs><title>Asset 11</title><g id="Layer_2" data-name="Layer 2"><g id="CG_Social_Media_Icons" data-name="CG Social Media Icons"><g id="behance"><rect class="cls-1" width="120.78" height="117.79" rx="5"/><path id="B" class="cls-2" d="M20.17,30.57H36.61q11.24,0,16.31,3.2T58,43.94a12.86,12.86,0,0,1-2.22,7.77,8.89,8.89,0,0,1-5.91,3.65v.36c3.35.75,5.76,2.14,7.25,4.19a13.66,13.66,0,0,1,2.22,8.17q0,7.22-5.22,11.27T39.93,83.4H20.17Zm11.2,20.92h6.51q4.54,0,6.59-1.41t2-4.66a4.66,4.66,0,0,0-2.22-4.35c-1.48-.88-3.83-1.32-7-1.32H31.37Zm0,8.89V74.15h7.3q4.62,0,6.83-1.77A6.54,6.54,0,0,0,47.7,67q0-6.58-9.39-6.58Z"/><path id="e" class="cls-2" d="M87.3,84.12q-9.75,0-15.24-5.39t-5.5-15.24q0-10.16,5.08-15.7t14-5.55q8.56,0,13.33,4.88t4.77,13.48v5.34h-26a10.62,10.62,0,0,0,2.78,7.34,9.8,9.8,0,0,0,7.3,2.64,30.65,30.65,0,0,0,6.9-.76,34.89,34.89,0,0,0,6.8-2.42v8.52a25.69,25.69,0,0,1-6.18,2.15A39,39,0,0,1,87.3,84.12Zm-1.55-34a7,7,0,0,0-5.49,2.22A10.34,10.34,0,0,0,78,58.61H93.45a9.24,9.24,0,0,0-2.13-6.31A7.24,7.24,0,0,0,85.75,50.08Z"/><rect class="cls-2" x="74.53" y="32.62" width="22.23" height="6.23" rx="0.5"/></g></g></g></svg>