<?xml version="1.0" encoding="utf-8"?>
<!-- Generator: Adobe Illustrator 24.0.1, SVG Export Plug-In . SVG Version: 6.00 Build 0)  -->
<svg version="1.1" id="Layer_1" xmlns="http://www.w3.org/2000/svg" xmlns:xlink="http://www.w3.org/1999/xlink" x="0px" y="0px"
	 viewBox="0 0 120.8 117.8" style="enable-background:new 0 0 120.8 117.8;" xml:space="preserve">
<style type="text/css">
	.st0{fill:#280025;}
	.st1{fill:#F5F5F5;}
</style>
<title>Asset 11</title>
<g id="Layer_2_1_">
	<g id="CG_Social_Media_Icons">
		<g id="behance">
			<path class="st0" d="M5,0h110.8c2.8,0,5,2.2,5,5v107.8c0,2.8-2.2,5-5,5H5c-2.8,0-5-2.2-5-5V5C0,2.2,2.2,0,5,0z"/>
			<path id="B" class="st1" d="M20.2,30.6h16.4c7.5,0,12.9,1.1,16.3,3.2S58,39.3,58,43.9c0.1,2.8-0.7,5.5-2.2,7.8
				c-1.4,2-3.5,3.3-5.9,3.7v0.4c3.3,0.8,5.8,2.1,7.2,4.2c1.6,2.4,2.4,5.3,2.2,8.2c0,4.8-1.7,8.6-5.2,11.3c-3.5,2.7-8.2,4-14.2,4
				H20.2V30.6z M31.4,51.5h6.5c3,0,5.2-0.5,6.6-1.4c1.4-0.9,2-2.5,2-4.7c0.1-1.8-0.7-3.4-2.2-4.3c-1.5-0.9-3.8-1.3-7-1.3h-5.9
				L31.4,51.5z M31.4,60.4v13.8h7.3c3.1,0,5.4-0.6,6.8-1.8C47,71,47.8,69,47.7,67c0-4.4-3.1-6.6-9.4-6.6L31.4,60.4z"/>
			<path id="e" class="st1" d="M87.3,84.1c-6.5,0-11.6-1.8-15.2-5.4c-3.7-3.6-5.5-8.7-5.5-15.2c0-6.8,1.7-12,5.1-15.7
				c3.4-3.7,8.1-5.5,14-5.5c5.7,0,10.2,1.6,13.3,4.9c3.2,3.3,4.8,7.7,4.8,13.5v5.3h-26c0,2.7,1,5.3,2.8,7.3c2,1.8,4.6,2.8,7.3,2.6
				c2.3,0,4.6-0.2,6.9-0.8c2.3-0.6,4.6-1.4,6.8-2.4v8.5c-2,1-4,1.7-6.2,2.2C92.7,83.9,90,84.2,87.3,84.1z M85.8,50.1
				c-2.1-0.1-4.1,0.7-5.5,2.2c-1.4,1.8-2.2,4-2.3,6.3h15.4c0.1-2.3-0.7-4.5-2.1-6.3C89.9,50.8,87.8,50,85.8,50.1L85.8,50.1z"/>
			<path class="st1" d="M75,32.6h21.2c0.3,0,0.5,0.2,0.5,0.5v5.2c0,0.3-0.2,0.5-0.5,0.5H75c-0.3,0-0.5-0.2-0.5-0.5v-5.2
				C74.5,32.8,74.8,32.6,75,32.6z"/>
		</g>
	</g>
</g>
</svg>
