<svg xmlns="http://www.w3.org/2000/svg" viewBox="0 0 120.78 117.79"><defs><style>.cls-1{fill:#231f20;}.cls-2{fill:#fff;}</style></defs><title>Asset 3</title><g id="Layer_2" data-name="Layer 2"><g id="Layer_2-2" data-name="Layer 2"><g id="Behance.Logo"><path class="cls-1" d="M85.75,50.08a7,7,0,0,0-5.49,2.22A10.28,10.28,0,0,0,78,58.61H93.45a9.24,9.24,0,0,0-2.13-6.31A7.24,7.24,0,0,0,85.75,50.08Z"/><path class="cls-1" d="M38.31,60.38H31.37V74.15h7.3q4.62,0,6.83-1.77A6.54,6.54,0,0,0,47.7,67Q47.7,60.38,38.31,60.38Z"/><path class="cls-1" d="M115.77,0H5A5,5,0,0,0,0,5V112.79a5,5,0,0,0,5,5H115.77a5,5,0,0,0,5-5V5A5,5,0,0,0,115.77,0ZM54.12,79.35Q48.9,83.4,39.93,83.4H20.17V30.57H36.61q11.24,0,16.31,3.2T58,43.94a12.86,12.86,0,0,1-2.22,7.77,8.89,8.89,0,0,1-5.91,3.65v.36c3.35.75,5.76,2.14,7.25,4.19a13.66,13.66,0,0,1,2.22,8.17Q59.34,75.3,54.12,79.35Zm49.66-13.41h-26a10.62,10.62,0,0,0,2.78,7.34,9.8,9.8,0,0,0,7.3,2.64,30.65,30.65,0,0,0,6.9-.76,34.58,34.58,0,0,0,6.79-2.42v8.52a25.47,25.47,0,0,1-6.17,2.15,39,39,0,0,1-8,.71q-9.75,0-15.24-5.39t-5.5-15.24q0-10.16,5.08-15.7t14-5.55q8.56,0,13.33,4.88t4.77,13.48Z"/><path class="cls-1" d="M44.47,50.08q2-1.41,2-4.66a4.66,4.66,0,0,0-2.22-4.35c-1.48-.88-3.83-1.32-7-1.32H31.37V51.49h6.51Q42.43,51.49,44.47,50.08Z"/><rect class="cls-2" x="74.06" y="32.46" width="22.23" height="6.23" rx="0.5"/></g></g></g></svg>