<?xml version="1.0" encoding="utf-8"?>
<!-- Generator: Adobe Illustrator 24.0.1, SVG Export Plug-In . SVG Version: 6.00 Build 0)  -->
<svg version="1.1" id="Layer_1" xmlns="http://www.w3.org/2000/svg" xmlns:xlink="http://www.w3.org/1999/xlink" x="0px" y="0px"
	 viewBox="0 0 73 39" style="enable-background:new 0 0 73 39;" xml:space="preserve">
<style type="text/css">
	.st0{fill:#DDDDDD;stroke:#280025;stroke-width:2;stroke-linecap:round;stroke-linejoin:round;}
	.st1{opacity:0.2;}
	.st2{stroke:#000000;stroke-width:3;stroke-linecap:round;stroke-linejoin:round;}
	.st3{fill:#666666;stroke:#280025;stroke-width:2;stroke-linecap:round;stroke-linejoin:round;}
</style>
<title>Asset 1</title>
<g>
	<g id="Layer_6">
		<path class="st0" d="M65.8,6.8c-4.1-3.5-9.2-5.3-15.3-5.3c-2.1,0-4.2,0.2-6.3,0.6c-2.5,0.6-5.1,1.3-7.5,2.2l0,0
			c-5.2-1.8-9.8-2.8-14-2.8c-6.1,0-11.2,1.7-15.4,5.3s-6.2,7.7-6.2,12.8c0,3.2,0.9,6.3,2.7,9c1.8,2.8,4.4,5,7.4,6.5
			c3.1,1.6,6.9,2.4,11.3,2.4c5.1,0,9.7-0.9,13.7-2.7c4.5,1.7,9.2,2.6,14,2.7c6.5,0,11.8-1.7,15.7-5.1s5.8-7.6,5.9-12.6
			C71.9,14.6,69.8,10.2,65.8,6.8z"/>
		<g class="st1">
			<path class="st2" d="M46.9,20.9H38v10c3.1,1.2,6.4,1.9,9.7,1.9c4.4,0,7.8-1.1,10.5-3.4c2.5-2.1,3.9-5.1,3.9-8.4
				c0-3.4-1.4-6.6-4.1-8.7c-2.7-2.3-6.1-3.5-10.2-3.5c-1.4,0-2.8,0.1-4.2,0.4c-1.7,0.4-3.4,0.9-5,1.6v3.4c2.9-1.6,6.1-2.4,9.4-2.4
				c2.7-0.1,5.3,0.8,7.3,2.6c1.9,1.6,3,3.9,3,6.4c0.1,2.5-1,4.9-3,6.5c-2,1.7-4.5,2.5-7.6,2.5c-1.8,0-3.6-0.4-5.4-0.9L42,28.8v-5
				h5.1L46.9,20.9z"/>
			<path class="st2" d="M36.2,27v3.7c-3,1.4-6.4,2.1-9.7,2c-3,0-5.5-0.5-7.6-1.6c-2-1-3.7-2.5-5-4.4c-1.2-1.8-1.8-3.9-1.8-6
				c0-3.4,1.4-6.3,4.2-8.6s6.2-3.4,10.2-3.4c2.8,0,5.9,0.6,9.3,1.9v3.6c-2.8-1.5-5.9-2.3-9.1-2.4c-3,0-5.6,0.8-7.6,2.5
				c-1.9,1.5-3,3.9-3,6.4s1.1,4.8,3,6.4c2,1.7,4.5,2.5,7.6,2.5C30.1,29.6,33.4,28.7,36.2,27z"/>
		</g>
		<path class="st3" d="M47.3,18.7h-8.9v10c3.1,1.2,6.4,1.9,9.7,1.9c4.4,0,7.8-1.1,10.5-3.4s3.9-5,3.9-8.4s-1.4-6.6-4.1-8.7
			c-2.7-2.3-6.1-3.5-10.2-3.5c-1.4,0-2.8,0.1-4.2,0.4c-1.7,0.4-3.4,0.9-5,1.6V12c2.9-1.6,6.1-2.4,9.4-2.4c2.7-0.1,5.3,0.8,7.3,2.6
			c1.9,1.6,3,3.9,3,6.4c0.1,2.5-1,4.9-3,6.5c-2,1.7-4.5,2.5-7.6,2.5c-1.8,0-3.6-0.4-5.4-0.9l-0.3-0.1v-5h5.1L47.3,18.7z"/>
		<path class="st3" d="M34.6,24.8v3.7c-3,1.4-6.4,2.1-9.7,2c-3,0-5.5-0.5-7.6-1.6c-2-1-3.7-2.5-4.9-4.4c-1.2-1.8-1.8-3.9-1.8-6
			c0-3.4,1.4-6.3,4.2-8.6S21,6.4,25,6.4c2.8,0,5.9,0.6,9.3,1.9v3.6c-2.8-1.5-5.9-2.3-9.1-2.4c-3,0-5.6,0.8-7.6,2.5
			c-1.9,1.5-3,3.9-3,6.4s1.1,4.8,3,6.4c2,1.7,4.5,2.5,7.6,2.5C28.5,27.4,31.7,26.5,34.6,24.8z"/>
	</g>
</g>
</svg>
