<?xml version="1.0" encoding="utf-8"?>
<!-- Generator: Adobe Illustrator 24.0.1, SVG Export Plug-In . SVG Version: 6.00 Build 0)  -->
<svg version="1.1" id="Layer_1" opacity="0.2" xmlns="http://www.w3.org/2000/svg" xmlns:xlink="http://www.w3.org/1999/xlink"
	 x="0px" y="0px" viewBox="0 0 600 300" style="enable-background:new 0 0 600 300;" xml:space="preserve">
<style type="text/css">
	.st0{clip-path:url(#SVGID_2_);}
	.st1{fill:#FFFFFF;}
	.st2{fill:#F5F5F5;}
	.st3{fill:none;stroke:#CCCCCC;stroke-width:2;}
	.st4{fill:none;stroke:#CCCCCC;}
	.st5{fill:none;stroke:#CCCCCC;stroke-linecap:round;}
	.st6{fill:#CCCCCC;}
	.st7{fill:none;stroke:#CCCCCC;stroke-width:2;stroke-linecap:round;}
	.st8{fill:none;stroke:#CCCCCC;stroke-width:3;stroke-linecap:round;}
</style>
<g>
	<defs>
		<rect id="SVGID_1_" width="600" height="300"/>
	</defs>
	<clipPath id="SVGID_2_">
		<use xlink:href="#SVGID_1_"  style="overflow:visible;"/>
	</clipPath>
	<g id="Bootstrap_Jumbotron_1" class="st0">
		<rect class="st1" width="600" height="300"/>
		<g id="Mobile" transform="translate(168 18)">
			<g id="Hair_Back">
				<circle class="st2" cx="132" cy="132" r="132"/>
				<circle class="st3" cx="132" cy="132" r="131"/>
			</g>
			<g id="Right_Ear" transform="translate(0 90.75)">
				<g id="Ellipse_43" transform="translate(0 0.25)">
					<ellipse class="st1" cx="18.5" cy="62" rx="18.5" ry="62"/>
					<ellipse class="st4" cx="18.5" cy="62" rx="18" ry="61.5"/>
				</g>
			</g>
			<g id="Left_Ear" transform="translate(227.347 89.651)">
				<g id="Ellipse_44" transform="translate(0 0)">
					<ellipse class="st1" cx="18.3" cy="62.4" rx="18.3" ry="62.4"/>
					<ellipse class="st4" cx="18.3" cy="62.4" rx="17.8" ry="61.9"/>
				</g>
			</g>
			<g id="Hair" transform="translate(8 17)">
				<ellipse class="st2" cx="124" cy="123.5" rx="124" ry="123.5"/>
				<ellipse class="st3" cx="124" cy="123.5" rx="123" ry="122.5"/>
			</g>
			<g id="Face" transform="translate(13.373 24.27)">
				<circle class="st1" cx="118.9" cy="118.9" r="118.9"/>
				<circle class="st5" cx="118.9" cy="118.9" r="118.4"/>
			</g>
			<g id="Left_Eye" transform="translate(165 111.375)">
				<g id="Ellipse_17" transform="translate(0 -0.375)">
					<ellipse class="st2" cx="7" cy="8.5" rx="7" ry="8.5"/>
					<ellipse class="st3" cx="7" cy="8.5" rx="6" ry="7.5"/>
				</g>
				<g id="Ellipse_47" transform="translate(2 1.625)">
					<ellipse class="st1" cx="4" cy="4.5" rx="4" ry="4.5"/>
					<ellipse class="st4" cx="4" cy="4.5" rx="3.5" ry="4"/>
				</g>
			</g>
			<g id="Right_Eye" transform="translate(84.563 111.375)">
				<g id="Ellipse_16" transform="translate(0.438 -0.375)">
					<ellipse class="st2" cx="7" cy="8.5" rx="7" ry="8.5"/>
					<ellipse class="st3" cx="7" cy="8.5" rx="6" ry="7.5"/>
				</g>
				<g id="Ellipse_46" transform="translate(2.438 1.625)">
					<ellipse class="st1" cx="4" cy="4.5" rx="4" ry="4.5"/>
					<ellipse class="st4" cx="4" cy="4.5" rx="3.5" ry="4"/>
				</g>
			</g>
			<g id="Cheek_Right" transform="translate(29 126)">
				<ellipse class="st2" cx="43.5" cy="43" rx="43.5" ry="43"/>
				<ellipse class="st5" cx="43.5" cy="43" rx="43" ry="42.5"/>
			</g>
			<g id="Cheek_Left" transform="translate(151 126)">
				<circle class="st2" cx="43" cy="43" r="43"/>
				<circle class="st5" cx="43" cy="43" r="42.5"/>
			</g>
			<g id="Nose" transform="translate(116 153.105)">
				<g id="Nostrils_Outer" transform="translate(0 3.34)">
					<path class="st1" d="M23.8,21.9c-2.2,0-4.3-0.6-6-1.9l-0.3-0.2L17.2,20c-1.8,1.2-3.9,1.9-6,1.9c-5.9,0-10.7-4.8-10.7-10.7
						S5.3,0.5,11.2,0.5c2.2,0,4.3,0.6,6,1.9l0.3,0.2l0.3-0.2c1.8-1.2,3.9-1.9,6-1.9c2.9,0,5.5,1.1,7.6,3.1c2,2,3.1,4.7,3.1,7.6
						s-1.1,5.5-3.1,7.6C29.4,20.8,26.7,21.9,23.8,21.9z"/>
					<path class="st6" d="M23.8,21.4c5.6,0,10.2-4.6,10.2-10.2S29.4,1,23.8,1c-2.1,0-4.1,0.6-5.8,1.8l-0.6,0.4l-0.6-0.4
						C15.2,1.6,13.2,1,11.2,1C5.6,1,1,5.6,1,11.2s4.6,10.2,10.2,10.2c2.1,0,4.1-0.6,5.8-1.8l0.6-0.4l0.6,0.4
						C19.8,20.7,21.8,21.4,23.8,21.4 M23.8,22.4c-2.3,0-4.5-0.7-6.3-2c-1.8,1.2-4,2-6.3,2C5,22.4,0,17.4,0,11.2S5,0,11.2,0
						c2.3,0,4.5,0.7,6.3,2c1.8-1.2,4-2,6.3-2C30,0,35,5,35,11.2S30,22.4,23.8,22.4z"/>
				</g>
				<g id="Nostrils" transform="translate(7.778 16.952)">
					<g id="Ellipse_29">
						<circle class="st2" cx="3.4" cy="3.4" r="3.4"/>
						<circle class="st4" cx="3.4" cy="3.4" r="2.9"/>
					</g>
					<g id="Ellipse_30" transform="translate(12.639)">
						<circle class="st2" cx="3.4" cy="3.4" r="3.4"/>
						<circle class="st4" cx="3.4" cy="3.4" r="2.9"/>
					</g>
				</g>
				<g id="Nose_Front" transform="translate(7 -0.105)">
					<circle class="st1" cx="11" cy="11" r="11"/>
					<circle class="st4" cx="11" cy="11" r="10.5"/>
				</g>
			</g>
			<g id="Lips" transform="translate(90.642 214.627)">
				<path id="Path_12" class="st7" d="M83.7,0C83.6,8.5,0,9,0,0"/>
				<path id="Path_13" class="st5" d="M78.8,13.2c0,3.9-74.3,4.2-74.3,0"/>
			</g>
			<g id="Front_Hair" transform="translate(10.431 17.336)">
				<g id="Top_Hair" transform="translate(67.157)">
					<path class="st2" d="M54.2,35.7c-5.2,0-10.4-0.6-15.4-1.6c-4.9-1.1-9.7-2.6-14.3-4.7c-4.5-2-8.8-4.5-12.8-7.4
						c-3.6-2.6-7-5.6-10-8.8c7.9-3.8,16.2-6.7,24.7-8.8C35.6,2.1,45.1,1,54.7,1c9.4,0,18.8,1.1,27.9,3.2C91,6.2,99.2,9,107,12.7
						c-3.1,3.3-6.5,6.3-10.1,8.9c-4,2.9-8.3,5.5-12.9,7.5c-4.6,2.1-9.4,3.7-14.4,4.8C64.6,35.1,59.4,35.7,54.2,35.7z"/>
					<path class="st6" d="M54.7,2c-9.5,0-18.9,1.1-28.1,3.3c-8,1.9-15.8,4.6-23.3,8.1c2.8,2.8,5.8,5.4,8.9,7.7
						c3.9,2.9,8.2,5.3,12.6,7.3c4.5,2,9.2,3.6,14.1,4.6c5,1.1,10.1,1.6,15.2,1.6c5.2,0,10.3-0.6,15.3-1.6c4.9-1.1,9.6-2.7,14.2-4.7
						c4.5-2,8.7-4.5,12.7-7.4c3.2-2.3,6.2-5,9-7.8c-7.4-3.4-15.1-6-23-7.9C73.3,3.1,64,2,54.7,2 M54.7,0c19.4,0,37.7,4.5,54,12.4
						C95.2,27.3,75.8,36.7,54.2,36.7c-21.5,0-40.8-9.2-54.2-23.9C16.5,4.6,35,0,54.7,0z"/>
				</g>
				<g id="Right" transform="translate(0 32.976)">
					<path class="st2" d="M33.1,70H1.1C3.1,56.5,7,43.6,12.6,31.6C18.3,19.7,25.5,9,34.2-0.1c0.7,0.2,1.4,0.6,1.9,1.2
						c0.6,0.7,1,1.6,1,2.6V66C37.1,68.2,35.3,70,33.1,70z"/>
					<path class="st6" d="M33.1,69c1.7,0,3-1.3,3-3V3.7c0-0.7-0.3-1.4-0.7-2c-0.2-0.3-0.5-0.5-0.9-0.7C26.1,10,19,20.4,13.6,32
						c-5.5,11.6-9.3,24-11.3,37H33.1 M33.1,71H0C3.9,42.5,16.2,17.3,33.9-1.2c2.4,0.4,4.2,2.4,4.2,4.9V66C38.1,68.8,35.8,71,33.1,71
						z"/>
				</g>
				<g id="Left" transform="translate(205.58 32.976)">
					<path class="st2" d="M36.9,70H5c-2.2,0-4-1.8-4-4V3.7c0-1,0.3-1.9,1-2.6c0.5-0.6,1.2-1,1.9-1.2C12.5,9,19.8,19.7,25.4,31.6
						C31.1,43.6,35,56.5,36.9,70z"/>
					<path class="st6" d="M35.8,69c-2-13-5.8-25.4-11.3-37C19,20.4,12,10,3.6,1.1C3.3,1.2,3,1.5,2.7,1.8C2.3,2.3,2,3,2,3.7V66
						c0,1.7,1.3,3,3,3H35.8 M38.1,71H5c-2.8,0-5-2.2-5-5V3.7c0-2.5,1.8-4.6,4.2-4.9C21.9,17.3,34.2,42.5,38.1,71z"/>
				</g>
			</g>
			<path id="Path_14" class="st8" d="M113.4,119.2c0-39.8-54.4-38.9-54.4,0"/>
			<path id="Path_16" class="st8" d="M151,119.2c0-39.8,54.4-38.9,54.4,0"/>
		</g>
	</g>
</g>
</svg>
