<?xml version="1.0" encoding="utf-8"?>
<!-- Generator: Adobe Illustrator 24.0.1, SVG Export Plug-In . SVG Version: 6.00 Build 0)  -->
<svg version="1.1" id="Layer_1" opacity="0.2" xmlns="http://www.w3.org/2000/svg" xmlns:xlink="http://www.w3.org/1999/xlink"
	 x="0px" y="0px" viewBox="0 0 600 300" style="enable-background:new 0 0 600 300;" xml:space="preserve">
<style type="text/css">
	.st0{clip-path:url(#SVGID_2_);fill:#FFFFFF;}
	.st1{clip-path:url(#SVGID_2_);fill:#F5F5F5;}
	.st2{clip-path:url(#SVGID_2_);fill:#CCCCCC;}
</style>
<g>
	<g>
		<defs>
			<rect id="SVGID_1_" width="600" height="300"/>
		</defs>
		<clipPath id="SVGID_2_">
			<use xlink:href="#SVGID_1_"  style="overflow:visible;"/>
		</clipPath>
		<rect class="st0" width="600" height="300"/>
		<circle class="st1" cx="300" cy="150" r="132"/>
		<path class="st2" d="M300,19v1c35.9,0,68.4,14.5,91.9,38.1c23.5,23.5,38.1,56,38.1,91.9c0,35.9-14.5,68.4-38.1,91.9
			c-23.5,23.5-56,38.1-91.9,38.1c-35.9,0-68.4-14.5-91.9-38.1c-23.5-23.5-38.1-56-38.1-91.9c0-35.9,14.5-68.4,38.1-91.9
			C231.6,34.5,264.1,20,300,20V19v-1c-72.9,0-132,59.1-132,132c0,72.9,59.1,132,132,132c72.9,0,132-59.1,132-132
			c0-72.9-59.1-132-132-132V19z"/>
		<ellipse class="st0" cx="186.5" cy="171" rx="18.5" ry="62"/>
		<path class="st2" d="M186.5,109.5v0.5c1.1,0,2.2,0.4,3.3,1.2c1.9,1.4,3.8,3.9,5.5,7.5c5.1,10.7,8.6,30.1,8.6,52.4
			c0,16.9-2,32.3-5.3,43.3c-1.6,5.5-3.5,10-5.7,13c-1.1,1.5-2.1,2.7-3.3,3.5c-1.1,0.8-2.2,1.2-3.3,1.2c-1.1,0-2.2-0.4-3.3-1.2
			c-1.9-1.4-3.8-3.9-5.5-7.5c-5.1-10.7-8.6-30.1-8.6-52.4c0-16.9,2-32.3,5.3-43.3c1.6-5.5,3.5-10,5.7-13c1.1-1.5,2.1-2.7,3.3-3.5
			c1.1-0.8,2.2-1.2,3.3-1.2V109.5V109c-1.4,0-2.7,0.5-3.9,1.3c-2.2,1.5-4.1,4.2-5.9,7.8c-5.2,10.9-8.7,30.5-8.7,52.8
			c0,17,2,32.4,5.3,43.6c1.6,5.6,3.6,10.1,5.8,13.3c1.1,1.6,2.3,2.8,3.5,3.7c1.2,0.9,2.6,1.3,3.9,1.3c1.4,0,2.7-0.5,3.9-1.3
			c2.2-1.5,4.1-4.2,5.9-7.8c5.2-10.9,8.7-30.5,8.7-52.8c0-17-2-32.4-5.3-43.6c-1.6-5.6-3.6-10.1-5.8-13.3c-1.1-1.6-2.3-2.8-3.5-3.7
			c-1.2-0.9-2.6-1.3-3.9-1.3V109.5z"/>
		<path class="st0" d="M413.6,107.7c10.1,0,18.3,27.9,18.3,62.4c0,34.5-8.2,62.4-18.3,62.4c-10.1,0-18.3-27.9-18.3-62.4
			C395.3,135.6,403.5,107.7,413.6,107.7z"/>
		<path class="st2" d="M413.6,108.2v0.5c1.1,0,2.2,0.4,3.3,1.2c1.9,1.4,3.8,3.9,5.5,7.5c5.1,10.7,8.5,30.3,8.5,52.7
			c0,17.1-2,32.5-5.2,43.6c-1.6,5.6-3.5,10.1-5.6,13.1c-1,1.5-2.1,2.7-3.2,3.5c-1.1,0.8-2.2,1.2-3.3,1.2c-1.1,0-2.2-0.4-3.3-1.2
			c-1.9-1.4-3.8-3.9-5.5-7.5c-5.1-10.7-8.5-30.3-8.5-52.7c0-17.1,2-32.5,5.2-43.6c1.6-5.6,3.5-10.1,5.6-13.1c1-1.5,2.1-2.7,3.2-3.5
			c1.1-0.8,2.2-1.2,3.3-1.2V108.2v-0.5c-1.3,0-2.7,0.5-3.9,1.4c-2.1,1.5-4.1,4.2-5.8,7.9c-5.2,11-8.6,30.7-8.6,53.2
			c0,17.1,2,32.6,5.2,43.9c1.6,5.6,3.5,10.2,5.7,13.4c1.1,1.6,2.2,2.9,3.5,3.7c1.2,0.9,2.5,1.4,3.9,1.4c1.3,0,2.7-0.5,3.9-1.4
			c2.1-1.5,4.1-4.2,5.8-7.9c5.2-11,8.6-30.7,8.6-53.2c0-17.1-2-32.6-5.2-43.9c-1.6-5.6-3.5-10.2-5.7-13.4c-1.1-1.6-2.2-2.9-3.5-3.7
			c-1.2-0.9-2.5-1.4-3.9-1.4V108.2z"/>
		<ellipse class="st1" cx="300" cy="158.5" rx="124" ry="123.5"/>
		<path class="st2" d="M300,36v1c33.7,0,64.2,13.6,86.3,35.6c22.1,22,35.7,52.4,35.7,85.9c0,33.6-13.7,63.9-35.7,85.9
			c-22.1,22-52.6,35.6-86.3,35.6c-33.7,0-64.2-13.6-86.3-35.6c-22.1-22-35.7-52.4-35.7-85.9c0-33.6,13.7-63.9,35.7-85.9
			C235.8,50.6,266.3,37,300,37V36v-1c-68.5,0-124,55.3-124,123.5c0,68.2,55.5,123.5,124,123.5c68.5,0,124-55.3,124-123.5
			C424,90.3,368.5,35,300,35V36z"/>
		<circle class="st0" cx="300.3" cy="161.2" r="118.9"/>
		<path class="st2" d="M300.3,42.8v0.5c32.6,0,62,13.2,83.4,34.5c21.3,21.3,34.5,50.8,34.5,83.4c0,32.6-13.2,62-34.5,83.4
			c-21.3,21.3-50.8,34.5-83.4,34.5c-32.6,0-62-13.2-83.4-34.5c-21.3-21.3-34.5-50.8-34.5-83.4c0-32.6,13.2-62,34.5-83.4
			c21.3-21.3,50.8-34.5,83.4-34.5V42.8v-0.5c-65.7,0-118.9,53.2-118.9,118.9c0,65.7,53.2,118.9,118.9,118.9
			c65.7,0,118.9-53.2,118.9-118.9c0-65.7-53.2-118.9-118.9-118.9V42.8z"/>
		<ellipse class="st1" cx="340" cy="137.5" rx="7" ry="8.5"/>
		<path class="st2" d="M340,130v1c1.3,0,2.5,0.7,3.5,1.8c0.9,1.2,1.5,2.8,1.5,4.7c0,1.9-0.6,3.5-1.5,4.7c-0.9,1.2-2.2,1.8-3.5,1.8
			c-1.3,0-2.5-0.7-3.5-1.8c-0.9-1.2-1.5-2.8-1.5-4.7c0-1.9,0.6-3.5,1.5-4.7c0.9-1.2,2.2-1.8,3.5-1.8V130v-1c-2,0-3.8,1-5,2.6
			c-1.2,1.6-2,3.6-2,5.9c0,2.3,0.7,4.4,2,5.9c1.2,1.5,3,2.6,5,2.6c2,0,3.8-1,5-2.6c1.2-1.6,2-3.6,2-5.9c0-2.3-0.7-4.4-2-5.9
			c-1.2-1.5-3-2.6-5-2.6V130z"/>
		<ellipse class="st0" cx="339" cy="135.5" rx="4" ry="4.5"/>
		<path class="st2" d="M339,131.5v0.5c0.8,0,1.5,0.4,2.1,1c0.6,0.6,0.9,1.5,0.9,2.5c0,1-0.4,1.9-0.9,2.5c-0.6,0.6-1.3,1-2.1,1
			c-0.8,0-1.5-0.4-2.1-1c-0.6-0.6-0.9-1.5-0.9-2.5c0-1,0.4-1.9,0.9-2.5c0.6-0.6,1.3-1,2.1-1V131.5V131c-1.1,0-2.1,0.5-2.9,1.3
			c-0.7,0.8-1.1,1.9-1.1,3.2c0,1.2,0.4,2.3,1.1,3.2c0.7,0.8,1.7,1.3,2.9,1.3c1.1,0,2.1-0.5,2.9-1.3c0.7-0.8,1.1-1.9,1.1-3.2
			c0-1.2-0.4-2.3-1.1-3.2c-0.7-0.8-1.7-1.3-2.9-1.3V131.5z"/>
		<ellipse class="st1" cx="260" cy="137.5" rx="7" ry="8.5"/>
		<path class="st2" d="M260,130v1c1.3,0,2.5,0.7,3.5,1.8c0.9,1.2,1.5,2.8,1.5,4.7c0,1.9-0.6,3.5-1.5,4.7c-0.9,1.2-2.2,1.8-3.5,1.8
			c-1.3,0-2.5-0.7-3.5-1.8c-0.9-1.2-1.5-2.8-1.5-4.7c0-1.9,0.6-3.5,1.5-4.7c0.9-1.2,2.2-1.8,3.5-1.8V130v-1c-2,0-3.8,1-5,2.6
			c-1.2,1.6-2,3.6-2,5.9c0,2.3,0.7,4.4,2,5.9c1.2,1.5,3,2.6,5,2.6c2,0,3.8-1,5-2.6c1.2-1.6,2-3.6,2-5.9c0-2.3-0.7-4.4-2-5.9
			c-1.2-1.5-3-2.6-5-2.6V130z"/>
		<ellipse class="st0" cx="259" cy="135.5" rx="4" ry="4.5"/>
		<path class="st2" d="M259,131.5v0.5c0.8,0,1.5,0.4,2.1,1c0.6,0.6,0.9,1.5,0.9,2.5c0,1-0.4,1.9-0.9,2.5c-0.6,0.6-1.3,1-2.1,1
			c-0.8,0-1.5-0.4-2.1-1c-0.6-0.6-0.9-1.5-0.9-2.5c0-1,0.4-1.9,0.9-2.5c0.6-0.6,1.3-1,2.1-1V131.5V131c-1.1,0-2.1,0.5-2.9,1.3
			c-0.7,0.8-1.1,1.9-1.1,3.2c0,1.2,0.4,2.3,1.1,3.2c0.7,0.8,1.7,1.3,2.9,1.3c1.1,0,2.1-0.5,2.9-1.3c0.7-0.8,1.1-1.9,1.1-3.2
			c0-1.2-0.4-2.3-1.1-3.2c-0.7-0.8-1.7-1.3-2.9-1.3V131.5z"/>
		<ellipse class="st1" cx="240.5" cy="187" rx="43.5" ry="43"/>
		<path class="st2" d="M240.5,144.5v0.5c11.7,0,22.4,4.7,30.1,12.3c7.7,7.6,12.4,18.1,12.4,29.7c0,11.6-4.8,22.1-12.4,29.7
			c-7.7,7.6-18.3,12.3-30.1,12.3c-11.7,0-22.4-4.7-30.1-12.3c-7.7-7.6-12.4-18.1-12.4-29.7c0-11.6,4.8-22.1,12.4-29.7
			c7.7-7.6,18.3-12.3,30.1-12.3V144.5V144c-12,0-22.9,4.8-30.8,12.6c-7.9,7.8-12.7,18.5-12.7,30.4c0,11.9,4.9,22.6,12.7,30.4
			c7.9,7.8,18.7,12.6,30.8,12.6c12,0,22.9-4.8,30.8-12.6c7.9-7.8,12.7-18.5,12.7-30.4c0-11.9-4.9-22.6-12.7-30.4
			c-7.9-7.8-18.7-12.6-30.8-12.6V144.5z"/>
		<circle class="st1" cx="362" cy="187" r="43"/>
		<path class="st2" d="M362,144.5v0.5c11.6,0,22.1,4.7,29.7,12.3c7.6,7.6,12.3,18.1,12.3,29.7c0,11.6-4.7,22.1-12.3,29.7
			c-7.6,7.6-18.1,12.3-29.7,12.3c-11.6,0-22.1-4.7-29.7-12.3c-7.6-7.6-12.3-18.1-12.3-29.7c0-11.6,4.7-22.1,12.3-29.7
			c7.6-7.6,18.1-12.3,29.7-12.3V144.5V144c-23.7,0-43,19.3-43,43c0,23.7,19.3,43,43,43c23.7,0,43-19.3,43-43c0-23.7-19.3-43-43-43
			V144.5z"/>
		<path class="st0" d="M307.8,196.3c-2.2,0-4.3-0.6-6-1.9l-0.3-0.2l-0.3,0.2c-1.8,1.2-3.9,1.9-6,1.9c-5.9,0-10.7-4.8-10.7-10.7
			c0-5.9,4.8-10.7,10.7-10.7c2.2,0,4.3,0.6,6,1.9l0.3,0.2l0.3-0.2c1.8-1.2,3.9-1.9,6-1.9c2.9,0,5.5,1.1,7.6,3.1c2,2,3.1,4.7,3.1,7.6
			c0,2.9-1.1,5.5-3.1,7.6C313.4,195.2,310.7,196.3,307.8,196.3z"/>
		<path class="st2" d="M307.8,195.8c5.6,0,10.2-4.6,10.2-10.2c0-5.6-4.6-10.2-10.2-10.2c-2.1,0-4.1,0.6-5.8,1.8l-0.6,0.4l-0.6-0.4
			c-1.6-1.2-3.6-1.8-5.6-1.8c-5.6,0-10.2,4.6-10.2,10.2c0,5.6,4.6,10.2,10.2,10.2c2.1,0,4.1-0.6,5.8-1.8l0.6-0.4l0.6,0.4
			C303.8,195.1,305.8,195.8,307.8,195.8 M307.8,196.8c-2.3,0-4.5-0.7-6.3-2c-1.8,1.2-4,2-6.3,2c-6.2,0-11.2-5-11.2-11.2
			c0-6.2,5-11.2,11.2-11.2c2.3,0,4.5,0.7,6.3,2c1.8-1.2,4-2,6.3-2c6.2,0,11.2,5,11.2,11.2C319,191.8,314,196.8,307.8,196.8z"/>
		<path class="st1" d="M295.2,188.1c1.9,0,3.4,1.5,3.4,3.4s-1.5,3.4-3.4,3.4c-1.9,0-3.4-1.5-3.4-3.4S293.3,188.1,295.2,188.1z"/>
		<path class="st2" d="M295.2,188.6v0.5c1.3,0,2.4,1.1,2.4,2.4c0,1.3-1.1,2.4-2.4,2.4c-1.3,0-2.4-1.1-2.4-2.4c0-1.3,1.1-2.4,2.4-2.4
			V188.6v-0.5c-1.9,0-3.4,1.5-3.4,3.4c0,1.9,1.5,3.4,3.4,3.4c1.9,0,3.4-1.5,3.4-3.4c0-1.9-1.5-3.4-3.4-3.4V188.6z"/>
		<path class="st1" d="M307.8,188.1c1.9,0,3.4,1.5,3.4,3.4s-1.5,3.4-3.4,3.4c-1.9,0-3.4-1.5-3.4-3.4S305.9,188.1,307.8,188.1z"/>
		<path class="st2" d="M307.8,188.6v0.5c1.3,0,2.4,1.1,2.4,2.4c0,1.3-1.1,2.4-2.4,2.4c-1.3,0-2.4-1.1-2.4-2.4c0-1.3,1.1-2.4,2.4-2.4
			V188.6v-0.5c-1.9,0-3.4,1.5-3.4,3.4c0,1.9,1.5,3.4,3.4,3.4c1.9,0,3.4-1.5,3.4-3.4c0-1.9-1.5-3.4-3.4-3.4V188.6z"/>
		<circle class="st0" cx="302" cy="182" r="11"/>
		<path class="st2" d="M302,171.5v0.5c2.8,0,5.3,1.1,7.1,2.9c1.8,1.8,2.9,4.3,2.9,7.1c0,2.8-1.1,5.3-2.9,7.1
			c-1.8,1.8-4.3,2.9-7.1,2.9c-2.8,0-5.3-1.1-7.1-2.9c-1.8-1.8-2.9-4.3-2.9-7.1c0-2.8,1.1-5.3,2.9-7.1c1.8-1.8,4.3-2.9,7.1-2.9V171.5
			V171c-6.1,0-11,4.9-11,11c0,6.1,4.9,11,11,11c6.1,0,11-4.9,11-11c0-6.1-4.9-11-11-11V171.5z"/>
		<path class="st2" d="M341.3,232.6c0,0.1,0,0.1-0.1,0.2c-0.1,0.2-0.6,0.6-1.3,1c-1.3,0.7-3.4,1.3-6.1,1.8
			c-8.1,1.6-21.2,2.5-34.2,2.5c-10.3,0-20.5-0.5-28-1.6c-3.8-0.5-6.9-1.2-9-2c-1.1-0.4-1.8-0.8-2.3-1.2c-0.2-0.2-0.4-0.4-0.4-0.5
			c-0.1-0.1-0.1-0.2-0.1-0.3c0-0.6-0.4-1-1-1c-0.6,0-1,0.4-1,1c0,0.5,0.1,0.9,0.4,1.3c0.4,0.7,1.1,1.3,2,1.7c1.5,0.8,3.6,1.5,6.3,2
			c7.9,1.7,20.5,2.5,33.2,2.5c10.6,0,21.4-0.6,29.5-1.7c4.1-0.6,7.5-1.2,9.9-2.1c1.2-0.4,2.2-0.9,3-1.5c0.4-0.3,0.7-0.6,1-1
			c0.3-0.4,0.4-0.8,0.4-1.3c0-0.6-0.4-1-1-1C341.8,231.6,341.3,232.1,341.3,232.6L341.3,232.6z"/>
		<path class="st2" d="M336.9,245.8h0.1H336.9L336.9,245.8h0.1H336.9L336.9,245.8c0,0-0.5,0.2-1.1,0.4c-1.2,0.3-3.1,0.6-5.5,0.9
			c-7.3,0.8-19.2,1.2-31.1,1.2c-9.1,0-18.1-0.2-24.9-0.7c-3.4-0.2-6.2-0.6-8.1-0.9c-1-0.2-1.7-0.4-2.2-0.6c-0.2-0.1-0.4-0.2-0.5-0.3
			l0-0.1l-0.1,0.1h0.1l0-0.1l-0.1,0.1h0.1c0-0.3-0.2-0.5-0.5-0.5c-0.3,0-0.5,0.2-0.5,0.5c0,0.3,0.2,0.6,0.4,0.7
			c0.4,0.3,0.9,0.5,1.6,0.7c2.5,0.7,7.4,1.2,13.6,1.5c6.2,0.3,13.6,0.5,21.1,0.5c9.5,0,19-0.3,26.2-0.8c3.6-0.3,6.6-0.6,8.7-1
			c1.1-0.2,1.9-0.4,2.5-0.6c0.3-0.1,0.6-0.2,0.8-0.4c0.1-0.1,0.2-0.2,0.3-0.3c0.1-0.1,0.1-0.3,0.1-0.4c0-0.3-0.2-0.5-0.5-0.5
			C337.2,245.3,336.9,245.6,336.9,245.8L336.9,245.8z"/>
		<path class="st1" d="M299.8,71c-5.2,0-10.4-0.6-15.4-1.6c-4.9-1.1-9.7-2.6-14.3-4.7c-4.5-2-8.8-4.5-12.8-7.4
			c-3.6-2.6-7-5.6-10-8.8c7.9-3.8,16.2-6.7,24.7-8.8c9.2-2.3,18.7-3.4,28.3-3.4c9.4,0,18.8,1.1,27.9,3.2c8.4,2,16.6,4.8,24.4,8.5
			c-3.1,3.3-6.5,6.3-10.1,8.9c-4,2.9-8.3,5.5-12.9,7.5c-4.6,2.1-9.4,3.7-14.4,4.8C310.2,70.4,305,71,299.8,71z"/>
		<path class="st2" d="M300.3,37.3c-9.5,0-18.9,1.1-28.1,3.3c-8,1.9-15.8,4.6-23.3,8.1c2.8,2.8,5.8,5.4,8.9,7.7
			c3.9,2.9,8.2,5.3,12.6,7.3c4.5,2,9.2,3.6,14.1,4.6c5,1.1,10.1,1.6,15.2,1.6c5.2,0,10.3-0.6,15.3-1.6c4.9-1.1,9.6-2.7,14.2-4.7
			c4.5-2,8.7-4.5,12.7-7.4c3.2-2.3,6.2-5,9-7.8c-7.4-3.4-15.1-6-23-7.9C318.9,38.4,309.6,37.3,300.3,37.3 M300.3,35.3
			c19.4,0,37.7,4.5,54,12.4C340.8,62.6,321.4,72,299.8,72c-21.5,0-40.8-9.2-54.2-23.9C262.1,39.9,280.6,35.3,300.3,35.3z"/>
		<path class="st1" d="M211.5,138.3h-32c2-13.5,5.9-26.4,11.5-38.4c5.7-11.9,12.9-22.6,21.6-31.7c0.7,0.2,1.4,0.6,1.9,1.2
			c0.6,0.7,1,1.6,1,2.6v62.3C215.5,136.5,213.7,138.3,211.5,138.3z"/>
		<path class="st2" d="M211.5,137.3c1.7,0,3-1.3,3-3V72c0-0.7-0.3-1.4-0.7-2c-0.2-0.3-0.5-0.5-0.9-0.7c-8.4,9-15.5,19.4-20.9,31
			c-5.5,11.6-9.3,24-11.3,37H211.5 M211.5,139.3h-33.1c3.9-28.5,16.2-53.7,33.9-72.2c2.4,0.4,4.2,2.4,4.2,4.9v62.3
			C216.5,137.1,214.2,139.3,211.5,139.3z"/>
		<path class="st1" d="M420.9,138.3H389c-2.2,0-4-1.8-4-4V72c0-1,0.3-1.9,1-2.6c0.5-0.6,1.2-1,1.9-1.2c8.6,9.1,15.9,19.8,21.5,31.7
			C415.1,111.9,419,124.8,420.9,138.3z"/>
		<path class="st2" d="M419.8,137.3c-2-13-5.8-25.4-11.3-37s-12.5-22-20.9-30.9c-0.3,0.1-0.6,0.4-0.9,0.7c-0.4,0.5-0.7,1.2-0.7,1.9
			v62.3c0,1.7,1.3,3,3,3H419.8 M422.1,139.3H389c-2.8,0-5-2.2-5-5V72c0-2.5,1.8-4.6,4.2-4.9C405.9,85.6,418.2,110.8,422.1,139.3z"/>
		<path class="st2" d="M282.9,137.2c0-10.2-3.5-18.1-8.9-23.3c-5.4-5.2-12.5-7.8-19.6-7.8c-7.2,0-14.4,2.6-19.9,7.8
			c-5.5,5.2-9.1,13-9,23.2c0,0.8,0.7,1.5,1.5,1.5c0.8,0,1.5-0.7,1.5-1.5c0-9.4,3.3-16.4,8.1-21c4.8-4.6,11.3-7,17.8-7
			c6.4,0,12.8,2.3,17.5,6.9c4.7,4.6,7.9,11.5,8,21.1c0,0.8,0.7,1.5,1.5,1.5C282.2,138.7,282.9,138,282.9,137.2L282.9,137.2z"/>
		<path class="st2" d="M320.5,137.2c0-9.6,3.2-16.5,8-21.1c4.7-4.6,11.1-6.9,17.5-6.9c6.5,0,13,2.4,17.8,7c4.8,4.7,8.1,11.6,8.1,21
			c0,0.8,0.7,1.5,1.5,1.5c0.8,0,1.5-0.7,1.5-1.5c0-10.1-3.6-18-9-23.2c-5.5-5.2-12.7-7.8-19.9-7.8c-7.1,0-14.2,2.6-19.6,7.8
			c-5.4,5.2-8.9,13-8.9,23.3c0,0.8,0.7,1.5,1.5,1.5C319.8,138.7,320.5,138,320.5,137.2L320.5,137.2z"/>
	</g>
</g>
</svg>
