<svg xmlns="http://www.w3.org/2000/svg" xmlns:xlink="http://www.w3.org/1999/xlink" width="600" height="300" viewBox="0 0 600 300">
  <defs>
    <clipPath id="clip-iPad_2">
      <rect width="600" height="300"/>
    </clipPath>
  </defs>
  <g id="iPad_2" data-name="iPad – 2" clip-path="url(#clip-iPad_2)">
    <rect width="600" height="300" fill="#ccc"/>
    <g id="Mobile" transform="translate(466 18)">
      <g id="Hair_Back" data-name="Hair Back" stroke="#000" stroke-width="2">
        <circle cx="132" cy="132" r="132" stroke="none"/>
        <circle cx="132" cy="132" r="131" fill="none"/>
      </g>
      <g id="Right_Ear" data-name="Right Ear" transform="translate(0 90.75)">
        <g id="Ellipse_43" data-name="Ellipse 43" transform="translate(0 0.25)" fill="#fff" stroke="#000" stroke-width="1">
          <ellipse cx="18.5" cy="62" rx="18.5" ry="62" stroke="none"/>
          <ellipse cx="18.5" cy="62" rx="18" ry="61.5" fill="none"/>
        </g>
      </g>
      <g id="Left_Ear" data-name="Left Ear" transform="translate(227.347 89.651)">
        <g id="Ellipse_44" data-name="Ellipse 44" transform="translate(0 0)" fill="#fff" stroke="#000" stroke-width="1">
          <ellipse cx="18.326" cy="62.409" rx="18.326" ry="62.409" stroke="none"/>
          <ellipse cx="18.326" cy="62.409" rx="17.826" ry="61.909" fill="none"/>
        </g>
      </g>
      <g id="Hair" transform="translate(8 17)" stroke="#000" stroke-width="2">
        <ellipse cx="124" cy="123.5" rx="124" ry="123.5" stroke="none"/>
        <ellipse cx="124" cy="123.5" rx="123" ry="122.5" fill="none"/>
      </g>
      <g id="Face" transform="translate(13.373 24.27)" fill="#fff" stroke="#000" stroke-linecap="round" stroke-width="1">
        <circle cx="118.874" cy="118.874" r="118.874" stroke="none"/>
        <circle cx="118.874" cy="118.874" r="118.374" fill="none"/>
      </g>
      <g id="Left_Eye" data-name="Left Eye" transform="translate(165 111.375)">
        <g id="Ellipse_17" data-name="Ellipse 17" transform="translate(0 -0.375)" stroke="#000" stroke-width="2">
          <ellipse cx="7" cy="8.5" rx="7" ry="8.5" stroke="none"/>
          <ellipse cx="7" cy="8.5" rx="6" ry="7.5" fill="none"/>
        </g>
        <g id="Ellipse_47" data-name="Ellipse 47" transform="translate(2 1.625)" fill="#fff" stroke="#000" stroke-width="1">
          <ellipse cx="4" cy="4.5" rx="4" ry="4.5" stroke="none"/>
          <ellipse cx="4" cy="4.5" rx="3.5" ry="4" fill="none"/>
        </g>
      </g>
      <g id="Right_Eye" data-name="Right Eye" transform="translate(84.563 111.375)">
        <g id="Ellipse_16" data-name="Ellipse 16" transform="translate(0.438 -0.375)" stroke="#000" stroke-width="2">
          <ellipse cx="7" cy="8.5" rx="7" ry="8.5" stroke="none"/>
          <ellipse cx="7" cy="8.5" rx="6" ry="7.5" fill="none"/>
        </g>
        <g id="Ellipse_46" data-name="Ellipse 46" transform="translate(2.438 1.625)" fill="#fff" stroke="#000" stroke-width="1">
          <ellipse cx="4" cy="4.5" rx="4" ry="4.5" stroke="none"/>
          <ellipse cx="4" cy="4.5" rx="3.5" ry="4" fill="none"/>
        </g>
      </g>
      <g id="Cheek_Right" data-name="Cheek Right" transform="translate(29 126)" fill="#f5f5f5" stroke="#000" stroke-linecap="round" stroke-width="1">
        <ellipse cx="43.5" cy="43" rx="43.5" ry="43" stroke="none"/>
        <ellipse cx="43.5" cy="43" rx="43" ry="42.5" fill="none"/>
      </g>
      <g id="Cheek_Left" data-name="Cheek Left" transform="translate(151 126)" fill="#f5f5f5" stroke="#000" stroke-linecap="round" stroke-width="1">
        <circle cx="43" cy="43" r="43" stroke="none"/>
        <circle cx="43" cy="43" r="42.5" fill="none"/>
      </g>
      <g id="Nose" transform="translate(116 153.105)">
        <g id="Nostrils_Outer" data-name="Nostrils Outer" transform="translate(0 3.34)" fill="#f5f5f5">
          <path d="M 23.82016944885254 21.86156463623047 C 21.65118026733398 21.86156463623047 19.56361961364746 21.21553421020508 17.78314971923828 19.99331474304199 L 17.50019073486328 19.79907417297363 L 17.21722030639648 19.9933032989502 C 15.43663024902344 21.21553421020508 13.3492603302002 21.86156463623047 11.1807804107666 21.86156463623047 C 5.291379928588867 21.86156463623047 0.5 17.0701847076416 0.5 11.18078422546387 C 0.5 5.291384220123291 5.291379928588867 0.5000042319297791 11.1807804107666 0.5000042319297791 C 13.34908962249756 0.5000042319297791 15.4364595413208 1.146044254302979 17.21723937988281 2.368274211883545 L 17.50019073486328 2.562484264373779 L 17.78313064575195 2.368264198303223 C 19.56377983093262 1.146044254302979 21.65135955810547 0.5000042319297791 23.82016944885254 0.5000042319297791 C 26.67296981811523 0.5000042319297791 29.35494995117188 1.611004233360291 31.37206077575684 3.628334283828735 C 33.38914108276367 5.645644187927246 34.5 8.327814102172852 34.5 11.18078422546387 C 34.5 14.03375434875488 33.38914108276367 16.71592330932617 31.37206077575684 18.73323440551758 C 29.35494995117188 20.75056457519531 26.67296981811523 21.86156463623047 23.82016944885254 21.86156463623047 Z" stroke="none"/>
          <path d="M 23.82016944885254 21.36156463623047 C 29.433349609375 21.36156463623047 34 16.79448509216309 34 11.18078422546387 C 34 5.567084312438965 29.433349609375 1.000004172325134 23.82016944885254 1.000004172325134 C 21.7528190612793 1.000004172325134 19.76309013366699 1.615694284439087 18.06608963012695 2.78050422668457 L 17.50020027160645 3.168924331665039 L 16.93429946899414 2.780514240264893 C 15.23717021942139 1.615694284439087 13.24763011932373 1.000004172325134 11.1807804107666 1.000004172325134 C 5.567080020904541 1.000004172325134 1 5.567084312438965 1 11.18078422546387 C 1 16.79448509216309 5.567080020904541 21.36156463623047 11.1807804107666 21.36156463623047 C 13.24779987335205 21.36156463623047 15.23731994628906 20.74588394165039 16.93425941467285 19.58107376098633 L 17.50020027160645 19.19260406494141 L 18.06612968444824 19.58109474182129 C 19.762939453125 20.74588394165039 21.75264930725098 21.36156463623047 23.82016944885254 21.36156463623047 M 23.82016944885254 22.36156463623047 C 21.47442054748535 22.36156463623047 19.29795074462891 21.63963508605957 17.50017929077148 20.4055347442627 C 15.70228958129883 21.63963508605957 13.52606010437012 22.36156463623047 11.1807804107666 22.36156463623047 C 5.00586986541748 22.36156463623047 0 17.35569381713867 0 11.18078422546387 C 0 5.005874156951904 5.00586986541748 4.22546372647048e-06 11.1807804107666 4.22546372647048e-06 C 13.52606010437012 4.22546372647048e-06 15.70228958129883 0.7220542430877686 17.50017929077148 1.956034183502197 C 19.29795074462891 0.7220542430877686 21.47442054748535 4.22546372647048e-06 23.82016944885254 4.22546372647048e-06 C 29.99497032165527 4.22546372647048e-06 35 5.005874156951904 35 11.18078422546387 C 35 17.35569381713867 29.99497032165527 22.36156463623047 23.82016944885254 22.36156463623047 Z" stroke="none"/>
        </g>
        <g id="Nostrils" transform="translate(7.778 16.952)">
          <g id="Ellipse_29" data-name="Ellipse 29" stroke="#000" stroke-width="1">
            <circle cx="3.403" cy="3.403" r="3.403" stroke="none"/>
            <circle cx="3.403" cy="3.403" r="2.903" fill="none"/>
          </g>
          <g id="Ellipse_30" data-name="Ellipse 30" transform="translate(12.639)" stroke="#000" stroke-width="1">
            <circle cx="3.403" cy="3.403" r="3.403" stroke="none"/>
            <circle cx="3.403" cy="3.403" r="2.903" fill="none"/>
          </g>
        </g>
        <g id="Nose_Front" data-name="Nose Front" transform="translate(7 -0.105)" fill="#fff" stroke="#000" stroke-width="1">
          <circle cx="11" cy="11" r="11" stroke="none"/>
          <circle cx="11" cy="11" r="10.5" fill="none"/>
        </g>
      </g>
      <g id="Lips" transform="translate(90.642 214.627)">
        <path id="Path_12" data-name="Path 12" d="M168.691,467.16c-.063,8.475-83.691,9.028-83.691,0" transform="translate(-85 -467.16)" fill="none" stroke="#000" stroke-linecap="round" stroke-width="2"/>
        <path id="Path_13" data-name="Path 13" d="M159.3,467.16c-.029,3.937-74.3,4.162-74.3,0" transform="translate(-80.542 -453.915)" fill="none" stroke="#000" stroke-linecap="round" stroke-width="1"/>
      </g>
      <g id="Front_Hair" data-name="Front Hair" transform="translate(10.431 17.336)">
        <g id="Top_Hair" data-name="Top Hair" transform="translate(67.157)">
          <path d="M 54.16431045532227 35.65283203125 C 48.96652603149414 35.65283203125 43.77932739257812 35.09870147705078 38.74678421020508 34.00582885742188 C 33.84783935546875 32.94197463989258 29.04591178894043 31.35737228393555 24.47439765930176 29.29604530334473 C 19.98559761047363 27.27201652526855 15.68416881561279 24.77311515808105 11.68958282470703 21.86874389648438 C 8.088372230529785 19.25037956237793 4.71659517288208 16.28825187683105 1.650562286376953 13.05054378509521 C 9.546892166137695 9.248917579650879 17.85852241516113 6.302479267120361 26.3775691986084 4.286116123199463 C 35.59012603759766 2.105616092681885 45.1057243347168 1.000001788139343 54.66003799438477 1.000001788139343 C 64.0843505859375 1.000001788139343 73.47309875488281 2.075630187988281 82.56545257568359 4.196987628936768 C 90.97000885009766 6.15788459777832 99.1785888671875 9.024445533752441 106.9859619140625 12.72382354736328 C 103.9146194458008 16.00733947753906 100.530891418457 19.01242828369141 96.91161346435547 21.66965866088867 C 92.90068054199219 24.61442947387695 88.57719421386719 27.14873123168945 84.06127166748047 29.20217323303223 C 79.46214294433594 31.29345893859863 74.62872314453125 32.90128707885742 69.6953125 33.98101425170898 C 64.62660980224609 35.0903434753418 59.40124130249023 35.65283203125 54.16431045532227 35.65283203125 Z" stroke="none"/>
          <path d="M 54.6600341796875 2 C 45.18318557739258 2 35.74507904052734 3.096569061279297 26.60789489746094 5.259231567382812 C 18.60831451416016 7.152639389038086 10.79266357421875 9.873191833496094 3.336814880371094 13.35743522644043 C 6.099807739257812 16.16456413269043 9.098030090332031 18.74808502197266 12.27766418457031 21.05994033813477 C 16.21701812744141 23.92415428161621 20.45887756347656 26.38847732543945 24.88543701171875 28.38443183898926 C 29.39328002929688 30.41704559326172 34.12831115722656 31.97957038879395 38.958984375 33.02860260009766 C 43.92194366455078 34.10636901855469 49.03774261474609 34.65283203125 54.16431045532227 34.65283203125 C 59.32946395874023 34.65283203125 64.48292541503906 34.09812545776367 69.48150634765625 33.0041389465332 C 74.34619140625 31.9394474029541 79.11226654052734 30.3540153503418 83.6473388671875 28.29186248779297 C 88.10067749023438 26.26689338684082 92.36431121826172 23.76764678955078 96.31980133056641 20.86357116699219 C 99.51830291748047 18.51528358459473 102.5306015014648 15.89117050170898 105.3015823364258 13.04113578796387 C 97.93592834472656 9.654508590698242 90.22409820556641 7.010715484619141 82.33824920654297 5.170831680297852 C 73.32026672363281 3.066829681396484 64.00797271728516 2 54.6600341796875 2 M 54.6600341796875 0 C 74.0167236328125 0 92.3321533203125 4.459476470947266 108.634651184082 12.40673828125 C 95.21729278564453 27.29393768310547 75.7835693359375 36.65283203125 54.16431045532227 36.65283203125 C 32.708251953125 36.65283203125 13.40587615966797 27.43543243408203 0 12.7436466217041 C 16.47277069091797 4.586784362792969 35.033203125 0 54.6600341796875 0 Z" stroke="none"/>
        </g>
        <g id="Right" transform="translate(0 32.976)">
          <path d="M 33.05340194702148 70.03970336914062 L 1.138555407524109 70.03970336914062 C 3.085416793823242 56.53829193115234 6.954851150512695 43.60732269287109 12.64646053314209 31.58757591247559 C 18.27505111694336 19.70089340209961 25.52191734313965 9.0384521484375 34.19040679931641 -0.1121000796556473 C 34.92245483398438 0.1051333099603653 35.58382034301758 0.5316494107246399 36.08845138549805 1.119086146354675 C 36.71038055419922 1.843086123466492 37.05289840698242 2.768266201019287 37.05289840698242 3.724196195602417 L 37.05289840698242 66.03929901123047 C 37.05289840698242 68.24512481689453 35.25873184204102 70.03970336914062 33.05340194702148 70.03970336914062 Z" stroke="none"/>
          <path d="M 33.05340957641602 69.03970336914062 C 34.70734024047852 69.03970336914062 36.05290603637695 67.6937255859375 36.05290603637695 66.03929138183594 L 36.05290603637695 3.724206209182739 C 36.05290603637695 3.007217168807983 35.796142578125 2.313450574874878 35.32989501953125 1.770706057548523 C 35.08141326904297 1.48144268989563 34.78255081176758 1.244203686714172 34.4515380859375 1.069238424301147 C 26.06143569946289 10.03207874298096 19.03255081176758 20.43780326843262 13.55025196075439 32.01554107666016 C 8.062324523925781 43.60516357421875 4.280989646911621 56.05059432983398 2.29791784286499 69.03970336914062 L 33.05340957641602 69.03970336914062 M 33.05340957641602 71.03970336914062 L -0.01124762371182442 71.03970336914062 C 3.861863374710083 42.54069519042969 16.17007446289062 17.27565002441406 33.85670852661133 -1.211882829666138 C 36.23587417602539 -0.8273828029632568 38.05290603637695 1.236528277397156 38.05290603637695 3.724206209182739 L 38.05290603637695 66.03929138183594 C 38.05290603637695 68.80049133300781 35.81460952758789 71.03970336914062 33.05340957641602 71.03970336914062 Z" stroke="none"/>
        </g>
        <g id="Left" transform="translate(205.58 32.976)">
          <path d="M 36.91434097290039 70.03970336914062 L 4.999496459960938 70.03970336914062 C 2.794166326522827 70.03970336914062 0.9999963641166687 68.24512481689453 0.9999963641166687 66.03929901123047 L 0.9999963641166687 3.724196195602417 C 0.9999963641166687 2.768266201019287 1.342516303062439 1.843086123466492 1.964446306228638 1.119086146354675 C 2.46906852722168 0.5316494107246399 3.130430936813354 0.1051333323121071 3.862477779388428 -0.1121000573039055 C 12.53096961975098 9.0384521484375 19.77783584594727 19.70089340209961 25.40643692016602 31.58757591247559 C 31.09803581237793 43.60732269287109 34.96746826171875 56.53829193115234 36.91434097290039 70.03970336914062 Z" stroke="none"/>
          <path d="M 35.75497055053711 69.03970336914062 C 33.77190780639648 56.05060195922852 29.99057197570801 43.60516357421875 24.50263214111328 32.01554107666016 C 19.02033424377441 20.43781471252441 11.99145030975342 10.03209018707275 3.601346731185913 1.069239854812622 C 3.270336627960205 1.244203805923462 2.97148323059082 1.481437563896179 2.722999572753906 1.770694971084595 C 2.256766319274902 2.313450574874878 1.999999642372131 3.007217168807983 1.999999642372131 3.724206209182739 L 1.999999642372131 66.03929138183594 C 1.999999642372131 67.6937255859375 3.345566272735596 69.03970336914062 4.999499797821045 69.03970336914062 L 35.75497055053711 69.03970336914062 M 38.06413269042969 71.03970336914062 L 4.999499797821045 71.03970336914062 C 2.238299608230591 71.03970336914062 -3.214518358163332e-07 68.80049133300781 -3.214518358163332e-07 66.03929138183594 L -3.214518358163332e-07 3.724206209182739 C -3.214518358163332e-07 1.236528277397156 1.817010760307312 -0.8273828029632568 4.19617748260498 -1.211882829666138 C 21.88279914855957 17.27565002441406 34.19103240966797 42.54069519042969 38.06413269042969 71.03970336914062 Z" stroke="none"/>
        </g>
      </g>
      <path id="Path_14" data-name="Path 14" d="M110.484,379.547c0-39.842-54.422-38.908-54.422,0" transform="translate(2.941 -260.364)" fill="none" stroke="#000" stroke-linecap="round" stroke-width="3"/>
      <path id="Path_16" data-name="Path 16" d="M56.062,379.547c0-39.842,54.425-38.908,54.425,0" transform="translate(94.938 -260.364)" fill="none" stroke="#000" stroke-linecap="round" stroke-width="3"/>
    </g>
    <g id="Mobile-2" data-name="Mobile" transform="translate(168 18)">
      <g id="Hair_Back-2" data-name="Hair Back" fill="#fff" stroke="#f5f5f5" stroke-width="2">
        <circle cx="132" cy="132" r="132" stroke="none"/>
        <circle cx="132" cy="132" r="131" fill="none"/>
      </g>
      <g id="Right_Ear-2" data-name="Right Ear" transform="translate(0 90.75)">
        <g id="Ellipse_43-2" data-name="Ellipse 43" transform="translate(0 0.25)" fill="#fff" stroke="#f5f5f5" stroke-width="1">
          <ellipse cx="18.5" cy="62" rx="18.5" ry="62" stroke="none"/>
          <ellipse cx="18.5" cy="62" rx="18" ry="61.5" fill="none"/>
        </g>
      </g>
      <g id="Left_Ear-2" data-name="Left Ear" transform="translate(227.347 89.651)">
        <g id="Ellipse_44-2" data-name="Ellipse 44" transform="translate(0 0)" fill="#fff" stroke="#f5f5f5" stroke-width="1">
          <ellipse cx="18.326" cy="62.409" rx="18.326" ry="62.409" stroke="none"/>
          <ellipse cx="18.326" cy="62.409" rx="17.826" ry="61.909" fill="none"/>
        </g>
      </g>
      <g id="Hair-2" data-name="Hair" transform="translate(8 17)" fill="#fff" stroke="#f5f5f5" stroke-width="2">
        <ellipse cx="124" cy="123.5" rx="124" ry="123.5" stroke="none"/>
        <ellipse cx="124" cy="123.5" rx="123" ry="122.5" fill="none"/>
      </g>
      <g id="Face-2" data-name="Face" transform="translate(13.373 24.27)" fill="#fff" stroke="#f5f5f5" stroke-linecap="round" stroke-width="1">
        <circle cx="118.874" cy="118.874" r="118.874" stroke="none"/>
        <circle cx="118.874" cy="118.874" r="118.374" fill="none"/>
      </g>
      <g id="Left_Eye-2" data-name="Left Eye" transform="translate(165 111.375)">
        <g id="Ellipse_17-2" data-name="Ellipse 17" transform="translate(0 -0.375)" fill="#fff" stroke="#f5f5f5" stroke-width="2">
          <ellipse cx="7" cy="8.5" rx="7" ry="8.5" stroke="none"/>
          <ellipse cx="7" cy="8.5" rx="6" ry="7.5" fill="none"/>
        </g>
        <g id="Ellipse_47-2" data-name="Ellipse 47" transform="translate(2 1.625)" fill="#fff" stroke="#f5f5f5" stroke-width="1">
          <ellipse cx="4" cy="4.5" rx="4" ry="4.5" stroke="none"/>
          <ellipse cx="4" cy="4.5" rx="3.5" ry="4" fill="none"/>
        </g>
      </g>
      <g id="Right_Eye-2" data-name="Right Eye" transform="translate(84.563 111.375)">
        <g id="Ellipse_16-2" data-name="Ellipse 16" transform="translate(0.438 -0.375)" fill="#fff" stroke="#f5f5f5" stroke-width="2">
          <ellipse cx="7" cy="8.5" rx="7" ry="8.5" stroke="none"/>
          <ellipse cx="7" cy="8.5" rx="6" ry="7.5" fill="none"/>
        </g>
        <g id="Ellipse_46-2" data-name="Ellipse 46" transform="translate(2.438 1.625)" fill="#fff" stroke="#f5f5f5" stroke-width="1">
          <ellipse cx="4" cy="4.5" rx="4" ry="4.5" stroke="none"/>
          <ellipse cx="4" cy="4.5" rx="3.5" ry="4" fill="none"/>
        </g>
      </g>
      <g id="Cheek_Right-2" data-name="Cheek Right" transform="translate(29 126)" fill="#fff" stroke="#f5f5f5" stroke-linecap="round" stroke-width="1">
        <ellipse cx="43.5" cy="43" rx="43.5" ry="43" stroke="none"/>
        <ellipse cx="43.5" cy="43" rx="43" ry="42.5" fill="none"/>
      </g>
      <g id="Cheek_Left-2" data-name="Cheek Left" transform="translate(151 126)" fill="#fff" stroke="#f5f5f5" stroke-linecap="round" stroke-width="1">
        <circle cx="43" cy="43" r="43" stroke="none"/>
        <circle cx="43" cy="43" r="42.5" fill="none"/>
      </g>
      <g id="Nose-2" data-name="Nose" transform="translate(116 153.105)">
        <g id="Nostrils_Outer-2" data-name="Nostrils Outer" transform="translate(0 3.34)" fill="#fff">
          <path d="M 23.82016944885254 21.86156463623047 C 21.65118026733398 21.86156463623047 19.56361961364746 21.21553421020508 17.78314971923828 19.99331474304199 L 17.50019073486328 19.79907417297363 L 17.21722030639648 19.9933032989502 C 15.43663024902344 21.21553421020508 13.3492603302002 21.86156463623047 11.1807804107666 21.86156463623047 C 5.291379928588867 21.86156463623047 0.5 17.0701847076416 0.5 11.18078422546387 C 0.5 5.291384220123291 5.291379928588867 0.5000042319297791 11.1807804107666 0.5000042319297791 C 13.34908962249756 0.5000042319297791 15.4364595413208 1.146044254302979 17.21723937988281 2.368274211883545 L 17.50019073486328 2.562484264373779 L 17.78313064575195 2.368264198303223 C 19.56377983093262 1.146044254302979 21.65135955810547 0.5000042319297791 23.82016944885254 0.5000042319297791 C 26.67296981811523 0.5000042319297791 29.35494995117188 1.611004233360291 31.37206077575684 3.628334283828735 C 33.38914108276367 5.645644187927246 34.5 8.327814102172852 34.5 11.18078422546387 C 34.5 14.03375434875488 33.38914108276367 16.71592330932617 31.37206077575684 18.73323440551758 C 29.35494995117188 20.75056457519531 26.67296981811523 21.86156463623047 23.82016944885254 21.86156463623047 Z" stroke="none"/>
          <path d="M 23.82016944885254 21.36156463623047 C 29.433349609375 21.36156463623047 34 16.79448509216309 34 11.18078422546387 C 34 5.567084312438965 29.433349609375 1.000004172325134 23.82016944885254 1.000004172325134 C 21.7528190612793 1.000004172325134 19.76309013366699 1.615694284439087 18.06608963012695 2.78050422668457 L 17.50020027160645 3.168924331665039 L 16.93429946899414 2.780514240264893 C 15.23717021942139 1.615694284439087 13.24763011932373 1.000004172325134 11.1807804107666 1.000004172325134 C 5.567080020904541 1.000004172325134 1 5.567084312438965 1 11.18078422546387 C 1 16.79448509216309 5.567080020904541 21.36156463623047 11.1807804107666 21.36156463623047 C 13.24779987335205 21.36156463623047 15.23731994628906 20.74588394165039 16.93425941467285 19.58107376098633 L 17.50020027160645 19.19260406494141 L 18.06612968444824 19.58109474182129 C 19.762939453125 20.74588394165039 21.75264930725098 21.36156463623047 23.82016944885254 21.36156463623047 M 23.82016944885254 22.36156463623047 C 21.47442054748535 22.36156463623047 19.29795074462891 21.63963508605957 17.50017929077148 20.4055347442627 C 15.70228958129883 21.63963508605957 13.52606010437012 22.36156463623047 11.1807804107666 22.36156463623047 C 5.00586986541748 22.36156463623047 0 17.35569381713867 0 11.18078422546387 C 0 5.005874156951904 5.00586986541748 4.22546372647048e-06 11.1807804107666 4.22546372647048e-06 C 13.52606010437012 4.22546372647048e-06 15.70228958129883 0.7220542430877686 17.50017929077148 1.956034183502197 C 19.29795074462891 0.7220542430877686 21.47442054748535 4.22546372647048e-06 23.82016944885254 4.22546372647048e-06 C 29.99497032165527 4.22546372647048e-06 35 5.005874156951904 35 11.18078422546387 C 35 17.35569381713867 29.99497032165527 22.36156463623047 23.82016944885254 22.36156463623047 Z" stroke="none" fill="#f5f5f5"/>
        </g>
        <g id="Nostrils-2" data-name="Nostrils" transform="translate(7.778 16.952)">
          <g id="Ellipse_29-2" data-name="Ellipse 29" fill="#fff" stroke="#f5f5f5" stroke-width="1">
            <circle cx="3.403" cy="3.403" r="3.403" stroke="none"/>
            <circle cx="3.403" cy="3.403" r="2.903" fill="none"/>
          </g>
          <g id="Ellipse_30-2" data-name="Ellipse 30" transform="translate(12.639)" fill="#fff" stroke="#f5f5f5" stroke-width="1">
            <circle cx="3.403" cy="3.403" r="3.403" stroke="none"/>
            <circle cx="3.403" cy="3.403" r="2.903" fill="none"/>
          </g>
        </g>
        <g id="Nose_Front-2" data-name="Nose Front" transform="translate(7 -0.105)" fill="#fff" stroke="#f5f5f5" stroke-width="1">
          <circle cx="11" cy="11" r="11" stroke="none"/>
          <circle cx="11" cy="11" r="10.5" fill="none"/>
        </g>
      </g>
      <g id="Lips-2" data-name="Lips" transform="translate(90.642 214.627)">
        <path id="Path_12-2" data-name="Path 12" d="M168.691,467.16c-.063,8.475-83.691,9.028-83.691,0" transform="translate(-85 -467.16)" fill="none" stroke="#f5f5f5" stroke-linecap="round" stroke-width="2"/>
        <path id="Path_13-2" data-name="Path 13" d="M159.3,467.16c-.029,3.937-74.3,4.162-74.3,0" transform="translate(-80.542 -453.915)" fill="none" stroke="#f5f5f5" stroke-linecap="round" stroke-width="1"/>
      </g>
      <g id="Front_Hair-2" data-name="Front Hair" transform="translate(10.431 17.336)">
        <g id="Top_Hair-2" data-name="Top Hair" transform="translate(67.157)" fill="#fff">
          <path d="M 54.16431045532227 35.65283203125 C 48.96652603149414 35.65283203125 43.77932739257812 35.09870147705078 38.74678421020508 34.00582885742188 C 33.84783935546875 32.94197463989258 29.04591178894043 31.35737228393555 24.47439765930176 29.29604530334473 C 19.98559761047363 27.27201652526855 15.68416881561279 24.77311515808105 11.68958282470703 21.86874389648438 C 8.088372230529785 19.25037956237793 4.71659517288208 16.28825187683105 1.650562286376953 13.05054378509521 C 9.546892166137695 9.248917579650879 17.85852241516113 6.302479267120361 26.3775691986084 4.286116123199463 C 35.59012603759766 2.105616092681885 45.1057243347168 1.000001788139343 54.66003799438477 1.000001788139343 C 64.0843505859375 1.000001788139343 73.47309875488281 2.075630187988281 82.56545257568359 4.196987628936768 C 90.97000885009766 6.15788459777832 99.1785888671875 9.024445533752441 106.9859619140625 12.72382354736328 C 103.9146194458008 16.00733947753906 100.530891418457 19.01242828369141 96.91161346435547 21.66965866088867 C 92.90068054199219 24.61442947387695 88.57719421386719 27.14873123168945 84.06127166748047 29.20217323303223 C 79.46214294433594 31.29345893859863 74.62872314453125 32.90128707885742 69.6953125 33.98101425170898 C 64.62660980224609 35.0903434753418 59.40124130249023 35.65283203125 54.16431045532227 35.65283203125 Z" stroke="none"/>
          <path d="M 54.6600341796875 2 C 45.18318557739258 2 35.74507904052734 3.096569061279297 26.60789489746094 5.259231567382812 C 18.60831451416016 7.152639389038086 10.79266357421875 9.873191833496094 3.336814880371094 13.35743522644043 C 6.099807739257812 16.16456413269043 9.098030090332031 18.74808502197266 12.27766418457031 21.05994033813477 C 16.21701812744141 23.92415428161621 20.45887756347656 26.38847732543945 24.88543701171875 28.38443183898926 C 29.39328002929688 30.41704559326172 34.12831115722656 31.97957038879395 38.958984375 33.02860260009766 C 43.92194366455078 34.10636901855469 49.03774261474609 34.65283203125 54.16431045532227 34.65283203125 C 59.32946395874023 34.65283203125 64.48292541503906 34.09812545776367 69.48150634765625 33.0041389465332 C 74.34619140625 31.9394474029541 79.11226654052734 30.3540153503418 83.6473388671875 28.29186248779297 C 88.10067749023438 26.26689338684082 92.36431121826172 23.76764678955078 96.31980133056641 20.86357116699219 C 99.51830291748047 18.51528358459473 102.5306015014648 15.89117050170898 105.3015823364258 13.04113578796387 C 97.93592834472656 9.654508590698242 90.22409820556641 7.010715484619141 82.33824920654297 5.170831680297852 C 73.32026672363281 3.066829681396484 64.00797271728516 2 54.6600341796875 2 M 54.6600341796875 0 C 74.0167236328125 0 92.3321533203125 4.459476470947266 108.634651184082 12.40673828125 C 95.21729278564453 27.29393768310547 75.7835693359375 36.65283203125 54.16431045532227 36.65283203125 C 32.708251953125 36.65283203125 13.40587615966797 27.43543243408203 0 12.7436466217041 C 16.47277069091797 4.586784362792969 35.033203125 0 54.6600341796875 0 Z" stroke="none" fill="#f5f5f5"/>
        </g>
        <g id="Right-2" data-name="Right" transform="translate(0 32.976)" fill="#fff">
          <path d="M 33.05340194702148 70.03970336914062 L 1.138555407524109 70.03970336914062 C 3.085416793823242 56.53829193115234 6.954851150512695 43.60732269287109 12.64646053314209 31.58757591247559 C 18.27505111694336 19.70089340209961 25.52191734313965 9.0384521484375 34.19040679931641 -0.1121000796556473 C 34.92245483398438 0.1051333099603653 35.58382034301758 0.5316494107246399 36.08845138549805 1.119086146354675 C 36.71038055419922 1.843086123466492 37.05289840698242 2.768266201019287 37.05289840698242 3.724196195602417 L 37.05289840698242 66.03929901123047 C 37.05289840698242 68.24512481689453 35.25873184204102 70.03970336914062 33.05340194702148 70.03970336914062 Z" stroke="none"/>
          <path d="M 33.05340957641602 69.03970336914062 C 34.70734024047852 69.03970336914062 36.05290603637695 67.6937255859375 36.05290603637695 66.03929138183594 L 36.05290603637695 3.724206209182739 C 36.05290603637695 3.007217168807983 35.796142578125 2.313450574874878 35.32989501953125 1.770706057548523 C 35.08141326904297 1.48144268989563 34.78255081176758 1.244203686714172 34.4515380859375 1.069238424301147 C 26.06143569946289 10.03207874298096 19.03255081176758 20.43780326843262 13.55025196075439 32.01554107666016 C 8.062324523925781 43.60516357421875 4.280989646911621 56.05059432983398 2.29791784286499 69.03970336914062 L 33.05340957641602 69.03970336914062 M 33.05340957641602 71.03970336914062 L -0.01124762371182442 71.03970336914062 C 3.861863374710083 42.54069519042969 16.17007446289062 17.27565002441406 33.85670852661133 -1.211882829666138 C 36.23587417602539 -0.8273828029632568 38.05290603637695 1.236528277397156 38.05290603637695 3.724206209182739 L 38.05290603637695 66.03929138183594 C 38.05290603637695 68.80049133300781 35.81460952758789 71.03970336914062 33.05340957641602 71.03970336914062 Z" stroke="none" fill="#f5f5f5"/>
        </g>
        <g id="Left-2" data-name="Left" transform="translate(205.58 32.976)" fill="#fff">
          <path d="M 36.91434097290039 70.03970336914062 L 4.999496459960938 70.03970336914062 C 2.794166326522827 70.03970336914062 0.9999963641166687 68.24512481689453 0.9999963641166687 66.03929901123047 L 0.9999963641166687 3.724196195602417 C 0.9999963641166687 2.768266201019287 1.342516303062439 1.843086123466492 1.964446306228638 1.119086146354675 C 2.46906852722168 0.5316494107246399 3.130430936813354 0.1051333323121071 3.862477779388428 -0.1121000573039055 C 12.53096961975098 9.0384521484375 19.77783584594727 19.70089340209961 25.40643692016602 31.58757591247559 C 31.09803581237793 43.60732269287109 34.96746826171875 56.53829193115234 36.91434097290039 70.03970336914062 Z" stroke="none"/>
          <path d="M 35.75497055053711 69.03970336914062 C 33.77190780639648 56.05060195922852 29.99057197570801 43.60516357421875 24.50263214111328 32.01554107666016 C 19.02033424377441 20.43781471252441 11.99145030975342 10.03209018707275 3.601346731185913 1.069239854812622 C 3.270336627960205 1.244203805923462 2.97148323059082 1.481437563896179 2.722999572753906 1.770694971084595 C 2.256766319274902 2.313450574874878 1.999999642372131 3.007217168807983 1.999999642372131 3.724206209182739 L 1.999999642372131 66.03929138183594 C 1.999999642372131 67.6937255859375 3.345566272735596 69.03970336914062 4.999499797821045 69.03970336914062 L 35.75497055053711 69.03970336914062 M 38.06413269042969 71.03970336914062 L 4.999499797821045 71.03970336914062 C 2.238299608230591 71.03970336914062 -3.214518358163332e-07 68.80049133300781 -3.214518358163332e-07 66.03929138183594 L -3.214518358163332e-07 3.724206209182739 C -3.214518358163332e-07 1.236528277397156 1.817010760307312 -0.8273828029632568 4.19617748260498 -1.211882829666138 C 21.88279914855957 17.27565002441406 34.19103240966797 42.54069519042969 38.06413269042969 71.03970336914062 Z" stroke="none" fill="#f5f5f5"/>
        </g>
      </g>
      <path id="Path_14-2" data-name="Path 14" d="M110.484,379.547c0-39.842-54.422-38.908-54.422,0" transform="translate(2.941 -260.364)" fill="none" stroke="#f5f5f5" stroke-linecap="round" stroke-width="3"/>
      <path id="Path_16-2" data-name="Path 16" d="M56.062,379.547c0-39.842,54.425-38.908,54.425,0" transform="translate(94.938 -260.364)" fill="none" stroke="#f5f5f5" stroke-linecap="round" stroke-width="3"/>
    </g>
    <g id="Mobile-3" data-name="Mobile" transform="translate(-133 18)">
      <g id="Hair_Back-3" data-name="Hair Back" stroke="#000" stroke-width="2">
        <circle cx="132" cy="132" r="132" stroke="none"/>
        <circle cx="132" cy="132" r="131" fill="none"/>
      </g>
      <g id="Right_Ear-3" data-name="Right Ear" transform="translate(0 90.75)">
        <g id="Ellipse_43-3" data-name="Ellipse 43" transform="translate(0 0.25)" fill="#fff" stroke="#000" stroke-width="1">
          <ellipse cx="18.5" cy="62" rx="18.5" ry="62" stroke="none"/>
          <ellipse cx="18.5" cy="62" rx="18" ry="61.5" fill="none"/>
        </g>
      </g>
      <g id="Left_Ear-3" data-name="Left Ear" transform="translate(227.347 89.651)">
        <g id="Ellipse_44-3" data-name="Ellipse 44" transform="translate(0 0)" fill="#fff" stroke="#000" stroke-width="1">
          <ellipse cx="18.326" cy="62.409" rx="18.326" ry="62.409" stroke="none"/>
          <ellipse cx="18.326" cy="62.409" rx="17.826" ry="61.909" fill="none"/>
        </g>
      </g>
      <g id="Hair-3" data-name="Hair" transform="translate(8 17)" stroke="#000" stroke-width="2">
        <ellipse cx="124" cy="123.5" rx="124" ry="123.5" stroke="none"/>
        <ellipse cx="124" cy="123.5" rx="123" ry="122.5" fill="none"/>
      </g>
      <g id="Face-3" data-name="Face" transform="translate(13.373 24.27)" fill="#fff" stroke="#000" stroke-linecap="round" stroke-width="1">
        <circle cx="118.874" cy="118.874" r="118.874" stroke="none"/>
        <circle cx="118.874" cy="118.874" r="118.374" fill="none"/>
      </g>
      <g id="Left_Eye-3" data-name="Left Eye" transform="translate(165 111.375)">
        <g id="Ellipse_17-3" data-name="Ellipse 17" transform="translate(0 -0.375)" stroke="#000" stroke-width="2">
          <ellipse cx="7" cy="8.5" rx="7" ry="8.5" stroke="none"/>
          <ellipse cx="7" cy="8.5" rx="6" ry="7.5" fill="none"/>
        </g>
        <g id="Ellipse_47-3" data-name="Ellipse 47" transform="translate(2 1.625)" fill="#fff" stroke="#000" stroke-width="1">
          <ellipse cx="4" cy="4.5" rx="4" ry="4.5" stroke="none"/>
          <ellipse cx="4" cy="4.5" rx="3.5" ry="4" fill="none"/>
        </g>
      </g>
      <g id="Right_Eye-3" data-name="Right Eye" transform="translate(84.563 111.375)">
        <g id="Ellipse_16-3" data-name="Ellipse 16" transform="translate(0.438 -0.375)" stroke="#000" stroke-width="2">
          <ellipse cx="7" cy="8.5" rx="7" ry="8.5" stroke="none"/>
          <ellipse cx="7" cy="8.5" rx="6" ry="7.5" fill="none"/>
        </g>
        <g id="Ellipse_46-3" data-name="Ellipse 46" transform="translate(2.438 1.625)" fill="#fff" stroke="#000" stroke-width="1">
          <ellipse cx="4" cy="4.5" rx="4" ry="4.5" stroke="none"/>
          <ellipse cx="4" cy="4.5" rx="3.5" ry="4" fill="none"/>
        </g>
      </g>
      <g id="Cheek_Right-3" data-name="Cheek Right" transform="translate(29 126)" fill="#f5f5f5" stroke="#000" stroke-linecap="round" stroke-width="1">
        <ellipse cx="43.5" cy="43" rx="43.5" ry="43" stroke="none"/>
        <ellipse cx="43.5" cy="43" rx="43" ry="42.5" fill="none"/>
      </g>
      <g id="Cheek_Left-3" data-name="Cheek Left" transform="translate(151 126)" fill="#f5f5f5" stroke="#000" stroke-linecap="round" stroke-width="1">
        <circle cx="43" cy="43" r="43" stroke="none"/>
        <circle cx="43" cy="43" r="42.5" fill="none"/>
      </g>
      <g id="Nose-3" data-name="Nose" transform="translate(116 153.105)">
        <g id="Nostrils_Outer-3" data-name="Nostrils Outer" transform="translate(0 3.34)" fill="#f5f5f5">
          <path d="M 23.82016944885254 21.86156463623047 C 21.65118026733398 21.86156463623047 19.56361961364746 21.21553421020508 17.78314971923828 19.99331474304199 L 17.50019073486328 19.79907417297363 L 17.21722030639648 19.9933032989502 C 15.43663024902344 21.21553421020508 13.3492603302002 21.86156463623047 11.1807804107666 21.86156463623047 C 5.291379928588867 21.86156463623047 0.5 17.0701847076416 0.5 11.18078422546387 C 0.5 5.291384220123291 5.291379928588867 0.5000042319297791 11.1807804107666 0.5000042319297791 C 13.34908962249756 0.5000042319297791 15.4364595413208 1.146044254302979 17.21723937988281 2.368274211883545 L 17.50019073486328 2.562484264373779 L 17.78313064575195 2.368264198303223 C 19.56377983093262 1.146044254302979 21.65135955810547 0.5000042319297791 23.82016944885254 0.5000042319297791 C 26.67296981811523 0.5000042319297791 29.35494995117188 1.611004233360291 31.37206077575684 3.628334283828735 C 33.38914108276367 5.645644187927246 34.5 8.327814102172852 34.5 11.18078422546387 C 34.5 14.03375434875488 33.38914108276367 16.71592330932617 31.37206077575684 18.73323440551758 C 29.35494995117188 20.75056457519531 26.67296981811523 21.86156463623047 23.82016944885254 21.86156463623047 Z" stroke="none"/>
          <path d="M 23.82016944885254 21.36156463623047 C 29.433349609375 21.36156463623047 34 16.79448509216309 34 11.18078422546387 C 34 5.567084312438965 29.433349609375 1.000004172325134 23.82016944885254 1.000004172325134 C 21.7528190612793 1.000004172325134 19.76309013366699 1.615694284439087 18.06608963012695 2.78050422668457 L 17.50020027160645 3.168924331665039 L 16.93429946899414 2.780514240264893 C 15.23717021942139 1.615694284439087 13.24763011932373 1.000004172325134 11.1807804107666 1.000004172325134 C 5.567080020904541 1.000004172325134 1 5.567084312438965 1 11.18078422546387 C 1 16.79448509216309 5.567080020904541 21.36156463623047 11.1807804107666 21.36156463623047 C 13.24779987335205 21.36156463623047 15.23731994628906 20.74588394165039 16.93425941467285 19.58107376098633 L 17.50020027160645 19.19260406494141 L 18.06612968444824 19.58109474182129 C 19.762939453125 20.74588394165039 21.75264930725098 21.36156463623047 23.82016944885254 21.36156463623047 M 23.82016944885254 22.36156463623047 C 21.47442054748535 22.36156463623047 19.29795074462891 21.63963508605957 17.50017929077148 20.4055347442627 C 15.70228958129883 21.63963508605957 13.52606010437012 22.36156463623047 11.1807804107666 22.36156463623047 C 5.00586986541748 22.36156463623047 0 17.35569381713867 0 11.18078422546387 C 0 5.005874156951904 5.00586986541748 4.22546372647048e-06 11.1807804107666 4.22546372647048e-06 C 13.52606010437012 4.22546372647048e-06 15.70228958129883 0.7220542430877686 17.50017929077148 1.956034183502197 C 19.29795074462891 0.7220542430877686 21.47442054748535 4.22546372647048e-06 23.82016944885254 4.22546372647048e-06 C 29.99497032165527 4.22546372647048e-06 35 5.005874156951904 35 11.18078422546387 C 35 17.35569381713867 29.99497032165527 22.36156463623047 23.82016944885254 22.36156463623047 Z" stroke="none"/>
        </g>
        <g id="Nostrils-3" data-name="Nostrils" transform="translate(7.778 16.952)">
          <g id="Ellipse_29-3" data-name="Ellipse 29" stroke="#000" stroke-width="1">
            <circle cx="3.403" cy="3.403" r="3.403" stroke="none"/>
            <circle cx="3.403" cy="3.403" r="2.903" fill="none"/>
          </g>
          <g id="Ellipse_30-3" data-name="Ellipse 30" transform="translate(12.639)" stroke="#000" stroke-width="1">
            <circle cx="3.403" cy="3.403" r="3.403" stroke="none"/>
            <circle cx="3.403" cy="3.403" r="2.903" fill="none"/>
          </g>
        </g>
        <g id="Nose_Front-3" data-name="Nose Front" transform="translate(7 -0.105)" fill="#fff" stroke="#000" stroke-width="1">
          <circle cx="11" cy="11" r="11" stroke="none"/>
          <circle cx="11" cy="11" r="10.5" fill="none"/>
        </g>
      </g>
      <g id="Lips-3" data-name="Lips" transform="translate(90.642 214.627)">
        <path id="Path_12-3" data-name="Path 12" d="M168.691,467.16c-.063,8.475-83.691,9.028-83.691,0" transform="translate(-85 -467.16)" fill="none" stroke="#000" stroke-linecap="round" stroke-width="2"/>
        <path id="Path_13-3" data-name="Path 13" d="M159.3,467.16c-.029,3.937-74.3,4.162-74.3,0" transform="translate(-80.542 -453.915)" fill="none" stroke="#000" stroke-linecap="round" stroke-width="1"/>
      </g>
      <g id="Front_Hair-3" data-name="Front Hair" transform="translate(10.431 17.336)">
        <g id="Top_Hair-3" data-name="Top Hair" transform="translate(67.157)">
          <path d="M 54.16431045532227 35.65283203125 C 48.96652603149414 35.65283203125 43.77932739257812 35.09870147705078 38.74678421020508 34.00582885742188 C 33.84783935546875 32.94197463989258 29.04591178894043 31.35737228393555 24.47439765930176 29.29604530334473 C 19.98559761047363 27.27201652526855 15.68416881561279 24.77311515808105 11.68958282470703 21.86874389648438 C 8.088372230529785 19.25037956237793 4.71659517288208 16.28825187683105 1.650562286376953 13.05054378509521 C 9.546892166137695 9.248917579650879 17.85852241516113 6.302479267120361 26.3775691986084 4.286116123199463 C 35.59012603759766 2.105616092681885 45.1057243347168 1.000001788139343 54.66003799438477 1.000001788139343 C 64.0843505859375 1.000001788139343 73.47309875488281 2.075630187988281 82.56545257568359 4.196987628936768 C 90.97000885009766 6.15788459777832 99.1785888671875 9.024445533752441 106.9859619140625 12.72382354736328 C 103.9146194458008 16.00733947753906 100.530891418457 19.01242828369141 96.91161346435547 21.66965866088867 C 92.90068054199219 24.61442947387695 88.57719421386719 27.14873123168945 84.06127166748047 29.20217323303223 C 79.46214294433594 31.29345893859863 74.62872314453125 32.90128707885742 69.6953125 33.98101425170898 C 64.62660980224609 35.0903434753418 59.40124130249023 35.65283203125 54.16431045532227 35.65283203125 Z" stroke="none"/>
          <path d="M 54.6600341796875 2 C 45.18318557739258 2 35.74507904052734 3.096569061279297 26.60789489746094 5.259231567382812 C 18.60831451416016 7.152639389038086 10.79266357421875 9.873191833496094 3.336814880371094 13.35743522644043 C 6.099807739257812 16.16456413269043 9.098030090332031 18.74808502197266 12.27766418457031 21.05994033813477 C 16.21701812744141 23.92415428161621 20.45887756347656 26.38847732543945 24.88543701171875 28.38443183898926 C 29.39328002929688 30.41704559326172 34.12831115722656 31.97957038879395 38.958984375 33.02860260009766 C 43.92194366455078 34.10636901855469 49.03774261474609 34.65283203125 54.16431045532227 34.65283203125 C 59.32946395874023 34.65283203125 64.48292541503906 34.09812545776367 69.48150634765625 33.0041389465332 C 74.34619140625 31.9394474029541 79.11226654052734 30.3540153503418 83.6473388671875 28.29186248779297 C 88.10067749023438 26.26689338684082 92.36431121826172 23.76764678955078 96.31980133056641 20.86357116699219 C 99.51830291748047 18.51528358459473 102.5306015014648 15.89117050170898 105.3015823364258 13.04113578796387 C 97.93592834472656 9.654508590698242 90.22409820556641 7.010715484619141 82.33824920654297 5.170831680297852 C 73.32026672363281 3.066829681396484 64.00797271728516 2 54.6600341796875 2 M 54.6600341796875 0 C 74.0167236328125 0 92.3321533203125 4.459476470947266 108.634651184082 12.40673828125 C 95.21729278564453 27.29393768310547 75.7835693359375 36.65283203125 54.16431045532227 36.65283203125 C 32.708251953125 36.65283203125 13.40587615966797 27.43543243408203 0 12.7436466217041 C 16.47277069091797 4.586784362792969 35.033203125 0 54.6600341796875 0 Z" stroke="none"/>
        </g>
        <g id="Right-3" data-name="Right" transform="translate(0 32.976)">
          <path d="M 33.05340194702148 70.03970336914062 L 1.138555407524109 70.03970336914062 C 3.085416793823242 56.53829193115234 6.954851150512695 43.60732269287109 12.64646053314209 31.58757591247559 C 18.27505111694336 19.70089340209961 25.52191734313965 9.0384521484375 34.19040679931641 -0.1121000796556473 C 34.92245483398438 0.1051333099603653 35.58382034301758 0.5316494107246399 36.08845138549805 1.119086146354675 C 36.71038055419922 1.843086123466492 37.05289840698242 2.768266201019287 37.05289840698242 3.724196195602417 L 37.05289840698242 66.03929901123047 C 37.05289840698242 68.24512481689453 35.25873184204102 70.03970336914062 33.05340194702148 70.03970336914062 Z" stroke="none"/>
          <path d="M 33.05340957641602 69.03970336914062 C 34.70734024047852 69.03970336914062 36.05290603637695 67.6937255859375 36.05290603637695 66.03929138183594 L 36.05290603637695 3.724206209182739 C 36.05290603637695 3.007217168807983 35.796142578125 2.313450574874878 35.32989501953125 1.770706057548523 C 35.08141326904297 1.48144268989563 34.78255081176758 1.244203686714172 34.4515380859375 1.069238424301147 C 26.06143569946289 10.03207874298096 19.03255081176758 20.43780326843262 13.55025196075439 32.01554107666016 C 8.062324523925781 43.60516357421875 4.280989646911621 56.05059432983398 2.29791784286499 69.03970336914062 L 33.05340957641602 69.03970336914062 M 33.05340957641602 71.03970336914062 L -0.01124762371182442 71.03970336914062 C 3.861863374710083 42.54069519042969 16.17007446289062 17.27565002441406 33.85670852661133 -1.211882829666138 C 36.23587417602539 -0.8273828029632568 38.05290603637695 1.236528277397156 38.05290603637695 3.724206209182739 L 38.05290603637695 66.03929138183594 C 38.05290603637695 68.80049133300781 35.81460952758789 71.03970336914062 33.05340957641602 71.03970336914062 Z" stroke="none"/>
        </g>
        <g id="Left-3" data-name="Left" transform="translate(205.58 32.976)">
          <path d="M 36.91434097290039 70.03970336914062 L 4.999496459960938 70.03970336914062 C 2.794166326522827 70.03970336914062 0.9999963641166687 68.24512481689453 0.9999963641166687 66.03929901123047 L 0.9999963641166687 3.724196195602417 C 0.9999963641166687 2.768266201019287 1.342516303062439 1.843086123466492 1.964446306228638 1.119086146354675 C 2.46906852722168 0.5316494107246399 3.130430936813354 0.1051333323121071 3.862477779388428 -0.1121000573039055 C 12.53096961975098 9.0384521484375 19.77783584594727 19.70089340209961 25.40643692016602 31.58757591247559 C 31.09803581237793 43.60732269287109 34.96746826171875 56.53829193115234 36.91434097290039 70.03970336914062 Z" stroke="none"/>
          <path d="M 35.75497055053711 69.03970336914062 C 33.77190780639648 56.05060195922852 29.99057197570801 43.60516357421875 24.50263214111328 32.01554107666016 C 19.02033424377441 20.43781471252441 11.99145030975342 10.03209018707275 3.601346731185913 1.069239854812622 C 3.270336627960205 1.244203805923462 2.97148323059082 1.481437563896179 2.722999572753906 1.770694971084595 C 2.256766319274902 2.313450574874878 1.999999642372131 3.007217168807983 1.999999642372131 3.724206209182739 L 1.999999642372131 66.03929138183594 C 1.999999642372131 67.6937255859375 3.345566272735596 69.03970336914062 4.999499797821045 69.03970336914062 L 35.75497055053711 69.03970336914062 M 38.06413269042969 71.03970336914062 L 4.999499797821045 71.03970336914062 C 2.238299608230591 71.03970336914062 -3.214518358163332e-07 68.80049133300781 -3.214518358163332e-07 66.03929138183594 L -3.214518358163332e-07 3.724206209182739 C -3.214518358163332e-07 1.236528277397156 1.817010760307312 -0.8273828029632568 4.19617748260498 -1.211882829666138 C 21.88279914855957 17.27565002441406 34.19103240966797 42.54069519042969 38.06413269042969 71.03970336914062 Z" stroke="none"/>
        </g>
      </g>
      <path id="Path_14-3" data-name="Path 14" d="M110.484,379.547c0-39.842-54.422-38.908-54.422,0" transform="translate(2.941 -260.364)" fill="none" stroke="#000" stroke-linecap="round" stroke-width="3"/>
      <path id="Path_16-3" data-name="Path 16" d="M56.062,379.547c0-39.842,54.425-38.908,54.425,0" transform="translate(94.938 -260.364)" fill="none" stroke="#000" stroke-linecap="round" stroke-width="3"/>
    </g>
  </g>
</svg>
