<?xml version="1.0" encoding="utf-8"?>
<!-- Generator: Adobe Illustrator 24.0.1, SVG Export Plug-In . SVG Version: 6.00 Build 0)  -->
<svg version="1.1" id="Layer_1" xmlns="http://www.w3.org/2000/svg" xmlns:xlink="http://www.w3.org/1999/xlink" x="0px" y="0px"
	 viewBox="0 0 37 37" style="enable-background:new 0 0 37 37;" xml:space="preserve">
<style type="text/css">
	.st0{fill:#F5F5F5;}
	.st1{fill:#280025;}
	.st2{fill:#FFFFFF;}
	.st3{fill:#F5F6F6;stroke:#280025;stroke-width:0.25;stroke-linecap:round;}
	.st4{fill:#F5F6F6;stroke:#280025;stroke-width:0.25;stroke-miterlimit:10;}
	.st5{fill:#FFFFFF;stroke:#280025;stroke-width:0.25;stroke-miterlimit:10;}
	.st6{fill:none;stroke:#280025;stroke-width:0.5;stroke-linecap:round;}
	.st7{fill:none;stroke:#280025;stroke-width:0.25;stroke-linecap:round;}
	.st8{fill:none;stroke:#280025;stroke-width:0.75;stroke-linecap:round;}
	.st9{fill-rule:evenodd;clip-rule:evenodd;fill:#280025;}
</style>
<title>Asset 9</title>
<g id="Layer_2_1_">
	<g id="Layer_2-2">
		<g id="Github">
			<circle id="Background" class="st0" cx="18.5" cy="18.5" r="18"/>
			<g id="Face">
				<g id="Left_Eye">
					<ellipse class="st1" cx="21" cy="17.8" rx="0.4" ry="0.5"/>
					<circle class="st2" cx="20.9" cy="17.7" r="0.2"/>
				</g>
				<g id="Right_Eye">
					<ellipse class="st1" cx="15.9" cy="17.8" rx="0.4" ry="0.5"/>
					<circle class="st2" cx="15.9" cy="17.7" r="0.2"/>
				</g>
				<circle class="st3" cx="14.7" cy="20.9" r="2.7"/>
				<circle class="st3" cx="22.3" cy="20.9" r="2.7"/>
				<g id="Nose">
					<path class="st4" d="M18.9,21.5c-0.1,0-0.3,0-0.4-0.1h-0.1l0,0c-0.1,0.1-0.2,0.1-0.4,0.1c-0.4,0-0.7-0.3-0.7-0.7
						c0-0.4,0.3-0.7,0.6-0.7c0.1,0,0.3,0,0.4,0.1l0,0l0,0c0.1-0.1,0.2-0.1,0.4-0.1c0.4,0,0.7,0.2,0.7,0.6S19.3,21.4,18.9,21.5
						C18.9,21.5,18.9,21.5,18.9,21.5L18.9,21.5z"/>
					<g id="Nostrils">
						<g id="Ellipse_29">
							<circle class="st1" cx="18.1" cy="21.2" r="0.1"/>
						</g>
						<g id="Ellipse_30">
							<circle class="st1" cx="18.9" cy="21.2" r="0.1"/>
						</g>
					</g>
					<circle class="st5" cx="18.5" cy="20.6" r="0.7"/>
				</g>
				<g id="Lips">
					<path id="Path_12" class="st6" d="M21.1,23.8c0,0.5-5.2,0.6-5.2,0"/>
					<path id="Path_13" class="st7" d="M20.8,24.6c0,0.2-4.6,0.3-4.6,0"/>
				</g>
				<path id="Path_14" class="st8" d="M17.3,17.8c0-2.5-3.4-2.4-3.4,0"/>
				<path id="Path_16" class="st8" d="M19.7,17.8c0-2.5,3.4-2.4,3.4,0"/>
			</g>
			<path class="st9" d="M18.5,0.5c-10,0-18,8-18,18c0,7.7,4.9,14.6,12.3,17.1c0.9,0.2,1.2-0.4,1.2-0.9c0-0.4,0-1.8,0-3.3
				c-5,1.1-6-2.1-6-2.1c-0.8-2.1-2-2.6-2-2.6c-1.6-1.1,0.1-1.1,0.1-1.1c1.8,0.1,2.8,1.8,2.8,1.8c1.6,2.7,4.2,2,5.2,1.5
				c0.1-1.2,0.6-2,1.1-2.4c-4-0.4-8.2-2-8.2-8.9c0-1.8,0.6-3.5,1.8-4.8C8.7,12.3,8.1,10.4,9.1,8c0,0,1.5-0.5,4.9,1.8
				c3-0.8,6-0.8,9,0C26.4,7.5,27.9,8,27.9,8c1,2.5,0.4,4.3,0.2,4.8c1.2,1.3,1.9,3,1.8,4.8c0,6.9-4.2,8.4-8.2,8.9
				c0.7,0.6,1.2,1.7,1.2,3.3c0,2.4,0,4.4,0,4.9c0,0.5,0.3,1,1.2,0.9c9.4-3.2,14.5-13.4,11.4-22.8C33.1,5.4,26.2,0.5,18.5,0.5z"/>
			<path class="st1" d="M7.3,26.3c0,0.1-0.2,0.1-0.3,0.1s-0.2-0.2-0.1-0.3C6.9,26,7.1,26,7.2,26.1C7.3,26.1,7.4,26.2,7.3,26.3
				L7.3,26.3z"/>
			<path class="st1" d="M8,27.1c-0.1,0.1-0.3,0-0.4-0.1c-0.1-0.1-0.1-0.3-0.1-0.4c0.1-0.1,0.2,0,0.4,0.1C8.1,26.9,8.1,27.1,8,27.1z"
				/>
			<path class="st1" d="M8.8,28.2c-0.1,0.1-0.3,0-0.4-0.1c-0.1-0.1-0.1-0.4,0-0.4c0.1-0.1,0.3,0,0.4,0.1S8.9,28.1,8.8,28.2z"/>
			<path class="st1" d="M9.7,29.2c-0.1,0.1-0.4,0.1-0.5-0.1l0,0c-0.1-0.1-0.2-0.4-0.1-0.4c0.1-0.1,0.3-0.1,0.5,0.1
				C9.8,28.9,9.8,29.1,9.7,29.2L9.7,29.2z"/>
			<path class="st1" d="M11.1,29.8c-0.1,0.1-0.2,0.2-0.4,0.1c-0.2-0.1-0.3-0.2-0.3-0.4c0-0.1,0.2-0.2,0.4-0.1
				C11,29.5,11.1,29.6,11.1,29.8z"/>
			<path class="st1" d="M12.5,29.9c0,0.1-0.2,0.3-0.4,0.3s-0.4-0.1-0.4-0.3c0-0.1,0.2-0.3,0.4-0.3S12.5,29.7,12.5,29.9z"/>
			<path class="st1" d="M13.9,29.6c0,0.1-0.1,0.3-0.3,0.3c-0.2,0-0.4-0.1-0.4-0.2c0-0.1,0.1-0.3,0.3-0.3
				C13.7,29.4,13.9,29.5,13.9,29.6z"/>
		</g>
	</g>
</g>
</svg>
