<?xml version="1.0" encoding="utf-8"?>
<!-- Generator: Adobe Illustrator 24.0.1, SVG Export Plug-In . SVG Version: 6.00 Build 0)  -->
<svg version="1.1" id="Layer_1" xmlns="http://www.w3.org/2000/svg" xmlns:xlink="http://www.w3.org/1999/xlink" x="0px" y="0px"
	 viewBox="0 0 120.8 120.8" style="enable-background:new 0 0 120.8 120.8;" xml:space="preserve">
<style type="text/css">
	.st0{fill:#FFFFFF;}
	.st1{fill:#010101;}
	.st2{fill:#FFFFFF;stroke:#231F20;stroke-width:0.25;stroke-miterlimit:10;}
	.st3{fill:#F5F6F6;stroke:#010101;stroke-linecap:round;}
	.st4{fill:#F5F6F6;stroke:#010101;stroke-width:0.5;stroke-miterlimit:10;}
	.st5{fill:#FFFFFF;stroke:#231F20;stroke-width:0.5;stroke-miterlimit:10;}
	.st6{fill:none;stroke:#010101;stroke-linecap:round;}
	.st7{fill:none;stroke:#010101;stroke-width:0.5;stroke-linecap:round;}
	.st8{fill:none;stroke:#010101;stroke-width:2;stroke-linecap:round;}
	.st9{fill-rule:evenodd;clip-rule:evenodd;fill:#191717;}
	.st10{fill:#191717;}
</style>
<title>Asset 1</title>
<g id="Layer_2_1_">
	<circle class="st0" cx="60.4" cy="60.4" r="60.4"/>
	<g id="Left_Eye">
		<ellipse class="st1" cx="68.8" cy="58.1" rx="1.5" ry="1.7"/>
		<circle class="st2" cx="68.6" cy="57.7" r="0.7"/>
	</g>
	<g id="Right_Eye">
		<ellipse class="st1" cx="51.9" cy="58.1" rx="1.5" ry="1.7"/>
		<circle class="st2" cx="51.6" cy="57.7" r="0.7"/>
	</g>
	<circle class="st3" cx="47.6" cy="68.5" r="8.9"/>
	<circle class="st3" cx="73.2" cy="68.5" r="8.9"/>
	<g id="Nose">
		<path class="st4" d="M61.7,70.3c-0.4,0-0.9-0.1-1.2-0.4h-0.2L60.3,70c-0.4,0.3-0.8,0.4-1.2,0.4c-1.2,0-2.2-1-2.2-2.2
			c0-1.2,1-2.2,2.1-2.2c0.4,0,0.9,0.1,1.2,0.4l0.1,0.1l0.1-0.1c0.4-0.3,0.8-0.4,1.2-0.4c1.2-0.1,2.2,0.8,2.3,2
			c0.1,1.2-0.8,2.2-2,2.3C61.9,70.3,61.8,70.3,61.7,70.3L61.7,70.3z"/>
		<g id="Nostrils">
			<g id="Ellipse_29">
				<circle class="st1" cx="59" cy="69.4" r="0.5"/>
			</g>
			<g id="Ellipse_30">
				<circle class="st1" cx="61.7" cy="69.4" r="0.5"/>
			</g>
		</g>
		<circle class="st5" cx="60.4" cy="67.4" r="2.2"/>
	</g>
	<g id="Lips">
		<path id="Path_12" class="st6" d="M69.2,78.1c0,1.8-17.6,1.9-17.6,0"/>
		<path id="Path_13" class="st7" d="M68.2,80.9c0,0.8-15.6,0.9-15.6,0"/>
	</g>
	<path id="Path_14" class="st8" d="M56.4,58c0-8.4-11.5-8.2-11.5,0"/>
	<path id="Path_16" class="st8" d="M64.3,58c0-8.4,11.5-8.2,11.5,0"/>
	<path class="st9" d="M60.4,0C27.1,0,0,27.1,0,60.4c0,26,16.6,49.1,41.3,57.3c3,0.6,4.1-1.3,4.1-2.9c0-1.4-0.1-6.2-0.1-11.2
		C28.6,107.2,25,96.5,25,96.5c-2.8-7-6.7-8.8-6.7-8.8c-5.5-3.8,0.4-3.7,0.4-3.7c6.1,0.4,9.3,6.2,9.3,6.2c5.4,9.2,14.1,6.6,17.6,5
		c0.6-3.9,2.1-6.6,3.8-8.1C36,85.6,21.9,80.4,21.9,57.3c-0.1-6,2.1-11.8,6.2-16.2c-0.6-1.5-2.7-7.7,0.6-16c0,0,5.1-1.6,16.6,6.2
		c9.9-2.7,20.4-2.7,30.3,0C87,23.5,92.1,25,92.1,25c3.3,8.3,1.2,14.5,0.6,16c4.1,4.4,6.3,10.2,6.2,16.2c0,23.2-14.1,28.3-27.6,29.8
		c2.2,1.9,4.1,5.6,4.1,11.2c0,8.1-0.1,14.6-0.1,16.6c0,1.6,1.1,3.5,4.1,2.9c31.6-10.6,48.7-44.8,38.1-76.4C109.4,16.6,86.4,0,60.4,0
		z"/>
	<path class="st10" d="M22.9,86.7c-0.1,0.3-0.6,0.4-1,0.2c-0.4-0.2-0.7-0.6-0.6-0.9s0.6-0.4,1-0.2C22.7,86,23,86.4,22.9,86.7
		L22.9,86.7z"/>
	<path class="st10" d="M25.3,89.5c-0.3,0.3-0.9,0.1-1.2-0.3c-0.4-0.3-0.5-0.9-0.2-1.3c0.3-0.3,0.8-0.1,1.2,0.3
		C25.6,88.6,25.6,89.2,25.3,89.5z"/>
	<path class="st10" d="M27.7,93c-0.4,0.3-1,0-1.4-0.5c-0.4-0.5-0.4-1.2,0-1.4c0.4-0.3,1,0,1.4,0.5C28.1,92,28.1,92.7,27.7,93z"/>
	<path class="st10" d="M31,96.3c-0.5,0.4-1.2,0.3-1.6-0.3c0,0,0,0,0,0c-0.5-0.5-0.7-1.2-0.3-1.5c0.3-0.4,1-0.3,1.6,0.2
		S31.3,95.9,31,96.3L31,96.3z"/>
	<path class="st10" d="M35.5,98.3c-0.2,0.5-0.8,0.7-1.5,0.5c-0.7-0.2-1.1-0.8-1-1.2s0.8-0.7,1.5-0.5C35.2,97.2,35.6,97.8,35.5,98.3z
		"/>
	<path class="st10" d="M40.4,98.6c0,0.5-0.6,0.9-1.3,0.9c-0.7,0-1.3-0.4-1.3-0.9c0-0.5,0.6-0.9,1.3-0.9
		C39.8,97.7,40.4,98.1,40.4,98.6z"/>
	<path class="st10" d="M45,97.8c0.1,0.5-0.4,1-1.1,1.1c-0.7,0.1-1.4-0.2-1.4-0.7s0.4-1,1.1-1.1C44.3,97.1,44.9,97.4,45,97.8z"/>
</g>
</svg>
