<?xml version="1.0" encoding="utf-8"?>
<!-- Generator: Adobe Illustrator 24.0.1, SVG Export Plug-In . SVG Version: 6.00 Build 0)  -->
<svg version="1.1" id="Layer_1" xmlns="http://www.w3.org/2000/svg" xmlns:xlink="http://www.w3.org/1999/xlink" x="0px" y="0px"
	 viewBox="0 0 72 72" style="enable-background:new 0 0 72 72;" xml:space="preserve">
<style type="text/css">
	.st0{fill:#DC395F;}
	.st1{fill:#FFFFFF;}
</style>
<g>
	<path class="st0" d="M60.1,6.6H11.9C9,6.6,6.6,9,6.6,11.9v48.2c0,2.9,2.4,5.3,5.3,5.3h48.2c2.9,0,5.3-2.4,5.3-5.3V11.9
		C65.4,9,63,6.6,60.1,6.6"/>
	<path class="st1" d="M26.2,25.1c2,0,3.6-1.5,3.6-3.5c0-2-1.6-3.5-3.6-3.5c-2,0-3.6,1.5-3.6,3.5C22.6,23.6,24.3,25.1,26.2,25.1"/>
	<path class="st1" d="M18.8,44.1c-0.2,0.9-0.3,1.9-0.3,2.7c0,3.1,1.7,5.2,5.3,5.2c3,0,5.4-1.8,7.1-4.6l-1.1,4.3h5.9L39.1,38
		c0.8-3.4,2.5-5.2,5-5.2c2,0,3.2,1.2,3.2,3.2c0,0.6-0.1,1.2-0.3,1.9l-1.7,6.2c-0.3,0.9-0.4,1.8-0.4,2.6c0,3,1.7,5.1,5.4,5.1
		c3.1,0,5.6-2,7-6.8L55,44.2c-1.2,3.2-2.2,3.8-3,3.8c-0.8,0-1.2-0.5-1.2-1.6c0-0.5,0.1-1,0.3-1.6l1.7-6.1c0.4-1.4,0.6-2.7,0.6-3.9
		c0-4.5-2.7-6.9-6.1-6.9c-3.1,0-6.3,2.8-7.9,5.8l1.2-5.3h-9L30.2,33h4.2l-2.6,10.4c-2,4.5-5.8,4.6-6.3,4.5c-0.8-0.2-1.3-0.5-1.3-1.5
		c0-0.6,0.1-1.4,0.4-2.4l4-15.7h-10L17.3,33h4.2L18.8,44.1"/>
</g>
</svg>
