<svg xmlns="http://www.w3.org/2000/svg" viewBox="0 0 120.77 117.79"><defs><style>.cls-1{fill:#333;}.cls-2{fill:#f5f5f5;}</style></defs><title>Asset 13</title><g id="Layer_2" data-name="Layer 2"><g id="CG_Social_Media_Icons" data-name="CG Social Media Icons"><g id="linkedin"><rect class="cls-1" width="120.77" height="117.79" rx="5"/><path id="i" class="cls-2" d="M29.79,32.56q0-5.39,6-5.39c4,0,6,1.8,6,5.39a5.27,5.27,0,0,1-1.49,4A6.31,6.31,0,0,1,35.79,38Q29.79,38,29.79,32.56ZM41.28,83.4h-11V43h11Z"/><path id="n" class="cls-2" d="M90.13,83.4h-11V59.8q0-4.36-1.55-6.56a5.68,5.68,0,0,0-5-2.18q-4.64,0-6.69,3.09T63.86,64.39v19h-11V43h8.42l1.48,5.17h.62a11.57,11.57,0,0,1,5.07-4.43,17.31,17.31,0,0,1,7.36-1.5q7,0,10.69,3.81t3.65,11Z"/></g></g></g></svg>