<?xml version="1.0" encoding="utf-8"?>
<!-- Generator: Adobe Illustrator 24.0.1, SVG Export Plug-In . SVG Version: 6.00 Build 0)  -->
<svg version="1.1" id="Layer_1" xmlns="http://www.w3.org/2000/svg" xmlns:xlink="http://www.w3.org/1999/xlink" x="0px" y="0px"
	 viewBox="0 0 37 37" style="enable-background:new 0 0 37 37;" xml:space="preserve">
<style type="text/css">
	.st0{fill:#280025;stroke:#F5F5F5;stroke-miterlimit:10;}
	.st1{fill:#F5F5F5;stroke:#F5F5F5;stroke-miterlimit:10;}
</style>
<title>Asset 13</title>
<g id="Layer_2_1_">
	<g id="CG_Social_Media_Icons">
		<g id="linkedin">
			<path class="st0" d="M2,0.9h33c0.8,0,1.5,0.7,1.5,1.5v32.1c0,0.8-0.7,1.5-1.5,1.5H2c-0.8,0-1.5-0.7-1.5-1.5V2.4
				C0.5,1.6,1.2,0.9,2,0.9z"/>
			<path id="i" class="st1" d="M9.4,10.7c0-1.1,0.6-1.6,1.8-1.6S13,9.6,13,10.7c0,0.4-0.1,0.9-0.4,1.2c-0.4,0.3-0.9,0.5-1.3,0.4
				C10,12.3,9.4,11.7,9.4,10.7z M12.8,25.8H9.5v-12h3.3V25.8z"/>
			<path id="n" class="st1" d="M27.4,25.8h-3.3v-7c0-0.9-0.1-1.5-0.5-2c-0.4-0.4-0.9-0.7-1.5-0.7c-0.9,0-1.6,0.3-2,0.9
				s-0.6,1.6-0.6,3v5.7h-3.3v-12h2.5l0.4,1.5h0.2c0.4-0.6,0.9-1,1.5-1.3c0.7-0.3,1.4-0.4,2.2-0.4c1.4,0,2.4,0.4,3.2,1.1
				s1.1,1.8,1.1,3.3L27.4,25.8z"/>
		</g>
	</g>
</g>
</svg>
