<svg xmlns="http://www.w3.org/2000/svg" viewBox="0 0 120.78 117.79"><defs><style>.cls-1{fill:#231f20;}.cls-2{fill:#fff;}</style></defs><title>Asset 4</title><g id="Layer_2" data-name="Layer 2"><g id="Layer_2-2" data-name="Layer 2"><g id="LinkedIn.Logo"><path class="cls-1" d="M115.77,0H5A5,5,0,0,0,0,5V112.79a5,5,0,0,0,5,5H115.77a5,5,0,0,0,5-5V5A5,5,0,0,0,115.77,0ZM41.28,83.4h-11V43h11Zm-1-46.85A6.31,6.31,0,0,1,35.79,38q-6,0-6-5.42t6-5.39q6,0,6,5.39A5.24,5.24,0,0,1,40.29,36.55ZM90.13,83.4h-11V59.8q0-4.36-1.55-6.56a5.68,5.68,0,0,0-5-2.18q-4.64,0-6.69,3.09T63.86,64.39v19h-11V43h8.42l1.48,5.17h.62a11.63,11.63,0,0,1,5.07-4.43,17.31,17.31,0,0,1,7.36-1.5q7,0,10.69,3.81t3.65,11Z"/><path class="cls-2" d="M29.79,32.56q0-5.39,6-5.39t6,5.39a5.24,5.24,0,0,1-1.5,4A6.31,6.31,0,0,1,35.79,38Q29.79,38,29.79,32.56Z"/></g></g></g></svg>