<?xml version="1.0" encoding="utf-8"?>
<!-- Generator: Adobe Illustrator 24.0.1, SVG Export Plug-In . SVG Version: 6.00 Build 0)  -->
<svg version="1.1" id="Layer_1" xmlns="http://www.w3.org/2000/svg" xmlns:xlink="http://www.w3.org/1999/xlink" x="0px" y="0px"
	 viewBox="0 0 120.8 117.8" style="enable-background:new 0 0 120.8 117.8;" xml:space="preserve">
<style type="text/css">
	.st0{fill:#280025;}
	.st1{fill:#F5F5F5;}
</style>
<title>Asset 13</title>
<g id="Layer_2_1_">
	<g id="CG_Social_Media_Icons">
		<g id="linkedin">
			<path class="st0" d="M5,0h110.8c2.8,0,5,2.2,5,5v107.8c0,2.8-2.2,5-5,5H5c-2.8,0-5-2.2-5-5V5C0,2.2,2.2,0,5,0z"/>
			<path id="i" class="st1" d="M29.8,32.6c0-3.6,2-5.4,6-5.4c4,0,6,1.8,6,5.4c0.1,1.5-0.5,2.9-1.5,4c-1.3,1-2.9,1.6-4.5,1.4
				C31.8,38,29.8,36.2,29.8,32.6z M41.3,83.4h-11V43h11V83.4z"/>
			<path id="n" class="st1" d="M90.1,83.4h-11V59.8c0-2.9-0.5-5.1-1.6-6.6c-1.2-1.5-3.1-2.4-5-2.2c-3.1,0-5.3,1-6.7,3.1
				c-1.4,2.1-2,5.5-2,10.2v19h-11V43h8.4l1.5,5.2h0.6c1.2-1.9,3-3.5,5.1-4.4c2.3-1,4.8-1.5,7.4-1.5c4.7,0,8.2,1.3,10.7,3.8
				s3.7,6.2,3.7,11L90.1,83.4z"/>
		</g>
	</g>
</g>
</svg>
