<?xml version="1.0" encoding="utf-8"?>
<!-- Generator: Adobe Illustrator 24.0.1, SVG Export Plug-In . SVG Version: 6.00 Build 0)  -->
<svg version="1.1" id="Layer_1" xmlns="http://www.w3.org/2000/svg" xmlns:xlink="http://www.w3.org/1999/xlink" x="0px" y="0px"
	 viewBox="0 0 50 50" style="enable-background:new 0 0 50 50;" xml:space="preserve">
<style type="text/css">
	.st0{opacity:0.1;}
	.st1{fill:none;stroke:#000000;stroke-miterlimit:10;}
	.st2{fill:none;stroke:#000000;}
	.st3{fill:#FFFFFF;}
	.st4{fill:#FFFFFF;stroke:#000000;stroke-width:0.5;stroke-miterlimit:10;}
	.st5{fill:#F5F5F5;stroke:#000000;stroke-width:0.5;stroke-miterlimit:10;}
	.st6{fill:none;stroke:#000000;stroke-linecap:round;}
	.st7{fill:none;stroke:#000000;stroke-width:0.5;stroke-linecap:round;}
	.st8{fill:none;stroke:#000000;stroke-width:2;stroke-linecap:round;}
</style>
<g id="Mobile" transform="translate(3.5 -250.505)" class="st0">
	<g id="Hair_Back" transform="translate(-3.5 250.505)">
		<circle class="st1" cx="25" cy="25" r="24"/>
	</g>
	<g id="Right_Ear" transform="translate(-3.015 294.141)">
		<g id="Ellipse_43" transform="translate(-0.485 0.364)">
			<ellipse class="st2" cx="4.4" cy="-15.3" rx="3.2" ry="11.1"/>
		</g>
	</g>
	<g id="Left_Ear" transform="translate(106.729 293.972)">
		<g id="Ellipse_44" transform="translate(0 0)">
			<ellipse class="st2" cx="-64.6" cy="-14.8" rx="3.1" ry="11.2"/>
		</g>
	</g>
	<g id="Hair" transform="translate(0.5 258.505)">
		<circle class="st1" cx="21" cy="18.5" r="22.5"/>
	</g>
	<g id="Face" transform="translate(2.984 262.272)">
		<circle class="st3" cx="18.5" cy="15.2" r="21.6"/>
	</g>
	<g id="Left_Eye" transform="translate(76.015 304.808)">
		<g id="Ellipse_17" transform="translate(0.485 -0.303)">
			<ellipse cx="-47.7" cy="-31.2" rx="1.3" ry="1.5"/>
			<ellipse class="st2" cx="-47.7" cy="-31.2" rx="0.9" ry="1.1"/>
		</g>
		<g id="Ellipse_47" transform="translate(1.485 0.697)">
			<circle class="st3" cx="-48.9" cy="-32.6" r="0.7"/>
		</g>
	</g>
	<g id="Right_Eye" transform="translate(37.712 304.808)">
		<g id="Ellipse_16" transform="translate(-0.212 -0.303)">
			<ellipse cx="-23.3" cy="-31.2" rx="1.3" ry="1.5"/>
			<ellipse class="st2" cx="-23.3" cy="-31.2" rx="0.9" ry="1.1"/>
		</g>
		<g id="Ellipse_46" transform="translate(0.788 0.697)">
			<circle class="st3" cx="-24.5" cy="-32.6" r="0.7"/>
		</g>
	</g>
	<g id="Cheek_Right" transform="translate(10.5 311.505)">
		<circle class="st4" cx="0" cy="-29.3" r="7.7"/>
	</g>
	<g id="Cheek_Left" transform="translate(69.5 311.505)">
		<circle class="st4" cx="-36.9" cy="-29.3" r="7.7"/>
	</g>
	<g id="Nose" transform="translate(51.975 324.686)">
		<g id="Nostrils_Outer" transform="translate(0 1.465)">
			<path class="st5" d="M-29.2-42.3c-0.4,0-0.7-0.1-1-0.3l-0.1,0l-0.1,0.1c-0.3,0.2-0.7,0.3-1,0.3c-1,0-1.9-0.9-1.9-1.9
				c0-1,0.9-1.9,1.9-1.9c0.4,0,0.7,0.1,1,0.3l0.1,0.1l0.1-0.1c0.3-0.2,0.7-0.3,1-0.3c1,0,1.9,0.9,1.9,1.9
				C-27.4-43.2-28.2-42.3-29.2-42.3z"/>
		</g>
		<g id="Nostrils" transform="translate(3.843 8.19)">
			<g id="Ellipse_29">
				<circle cx="-35.4" cy="-49.8" r="0.6"/>
			</g>
			<g id="Ellipse_30" transform="translate(6.244)">
				<circle cx="-39.3" cy="-49.8" r="0.6"/>
			</g>
		</g>
		<g id="Nose_Front" transform="translate(3.525 -0.182)">
			<circle class="st4" cx="-34" cy="-43.2" r="1.9"/>
		</g>
	</g>
	<g id="Lips" transform="translate(40.447 354.566)">
		<path id="Path_12" class="st6" d="M-11.2-64c0,1.5-15.2,1.6-15.2,0"/>
		<path id="Path_13" class="st7" d="M-12.1-61.6c0,0.7-13.5,0.7-13.5,0"/>
	</g>
	<g id="Front_Hair" transform="translate(1.552 258.91)">
		<g id="Top_Hair" transform="translate(32.566)">
			<path class="st1" d="M-12.6,2.1c-1.8,0-3.6-0.4-5.3-1.1c-1.5-0.7-2.8-1.6-3.9-2.7c1.3-0.6,2.8-1.1,4.2-1.5
				c1.6-0.4,3.4-0.6,5.1-0.6c1.7,0,3.4,0.2,5,0.6C-6.1-3-4.7-2.5-3.4-1.9c-1.1,1.2-2.4,2.1-3.9,2.8C-9,1.6-10.8,2.1-12.6,2.1z"/>
			<path class="st1" d="M-12.6-3.5c-1.7,0-3.4,0.2-5,0.6c-1.2,0.3-2.4,0.7-3.6,1.2c1,0.9,2.1,1.7,3.4,2.2c1.6,0.7,3.4,1.1,5.2,1.1
				s3.6-0.4,5.2-1.1C-6.2,0-5-0.8-4-1.8c-1.2-0.5-2.4-0.9-3.6-1.2C-9.2-3.3-10.9-3.5-12.6-3.5 M-12.6-4.2C-9-4.2-5.7-3.4-2.8-2
				c-2.4,2.7-6,4.4-9.9,4.4c-3.9,0-7.4-1.7-9.9-4.3C-19.5-3.4-16.1-4.2-12.6-4.2z"/>
		</g>
		<g id="Right" transform="translate(0 15.401)">
			<path class="st1" d="M2.9-1.1h-4.6c0.3-2.3,1-4.5,2-6.6c0.9-2,2.1-3.9,3.6-5.5c0.3,0.3,0.5,0.7,0.5,1.2v9.4
				C4.4-1.8,3.7-1.1,2.9-1.1z"/>
			<path class="st1" d="M2.9-1.5C3.5-1.5,4-2,4-2.6V-12c0-0.2-0.1-0.4-0.1-0.6c-1.3,1.5-2.4,3.2-3.3,5.1c-0.9,1.9-1.5,3.9-1.9,6H2.9
				 M2.9-0.8h-4.8c-0.1,0-0.1,0-0.2,0c0.7-5.1,2.8-9.6,6-12.9c0.6,0.3,1,0.9,1,1.6v9.4C4.8-1.6,3.9-0.8,2.9-0.8z"/>
		</g>
		<g id="Left" transform="translate(99.681 15.401)">
			<path class="st1" d="M-58-1.1h-4.6c-0.8,0-1.5-0.7-1.5-1.5V-12c0-0.4,0.2-0.9,0.5-1.2c1.4,1.6,2.7,3.4,3.6,5.5
				C-59-5.6-58.3-3.4-58-1.1z"/>
			<path class="st1" d="M-58.4-1.5c-0.4-2.1-1-4.2-1.9-6c-0.9-1.9-1.9-3.6-3.3-5.1c-0.1,0.2-0.1,0.4-0.1,0.6v9.4
				c0,0.6,0.5,1.1,1.1,1.1H-58.4 M-57.8-0.8h-4.8c-1,0-1.9-0.8-1.9-1.9V-12c0-0.7,0.4-1.3,1-1.6c3.1,3.3,5.2,7.8,6,12.9
				C-57.6-0.8-57.7-0.8-57.8-0.8z"/>
		</g>
	</g>
	<path id="Path_14" class="st8" d="M18.1,273.2c0-7.2-9.9-7.1-9.9,0"/>
	<path id="Path_16" class="st8" d="M24.9,273.2c0-7.2,9.9-7.1,9.9,0"/>
</g>
</svg>
