<?xml version="1.0" encoding="utf-8"?>
<!-- Generator: Adobe Illustrator 24.0.1, SVG Export Plug-In . SVG Version: 6.00 Build 0)  -->
<svg version="1.1" id="Layer_1" xmlns="http://www.w3.org/2000/svg" xmlns:xlink="http://www.w3.org/1999/xlink" x="0px" y="0px"
	 viewBox="0 0 50 50" style="enable-background:new 0 0 50 50;" xml:space="preserve">
<style type="text/css">
	.st0{fill:#E5E5E5;}
	.st1{fill:#FFBFBF;}
	.st2{fill:#ECACAC;}
	.st3{fill:#FFDFDF;}
	.st4{fill:#F6D6D6;}
	.st5{fill:#FFA7A7;}
	.st6{fill:#F8A1A1;}
</style>
<g>
	<path class="st0" d="M44.4,39.7c-2.3,3.1-5.4,5.6-9,7.3c-3.1,1.6-6.6,2.5-10.4,2.5c8,0,15-3.8,19.5-9.7
		C44.5,39.8,44.4,39.7,44.4,39.7 M5.7,39.6c-0.1,0.1-0.2,0.2-0.2,0.2C10,45.7,17,49.5,25,49.5c-5.1,0-9.7-1.6-13.5-4.4
		C9.3,43.6,7.3,41.7,5.7,39.6 M48.1,32.5c-0.7,2.3-1.8,4.4-3.1,6.4c0,0,0.1,0.1,0.1,0.1c1.2-1.7,2.2-3.6,2.9-5.6
		C48.1,33.1,48.1,32.8,48.1,32.5 M1.8,31.5c0.1,0.7,0.1,1.3,0.2,2c0.7,2,1.7,3.9,2.9,5.6c0.1-0.1,0.2-0.2,0.2-0.3
		C3.6,36.6,2.5,34.1,1.8,31.5 M25,0.5L25,0.5C11.5,0.5,0.5,11.5,0.5,25c0,1,0.1,2.1,0.2,3.1c0-1.4,0.1-2.7,0.3-4
		C1.5,11.3,12.1,1,25.1,1c13.3,0,24.2,10.8,24.2,24.2c0,0.3,0,0.7,0,1c0,0.6,0.1,1.2,0.1,1.8c0.1-1,0.2-2,0.2-3
		C49.5,11.5,38.5,0.5,25,0.5"/>
	<path class="st0" d="M1,24.1c-0.2,1.2-0.3,2.6-0.3,4c0,0.2,0,0.4,0,0.7c0,3.1,0.4,5.9,1,8c0.3,1,0.7,1.9,1.1,2.5
		c0.2,0.3,0.4,0.6,0.7,0.8c0.3,0.2,0.6,0.3,0.9,0.3c0,0,0,0,0,0c0,0,0,0,0,0c0.3,0,0.7-0.1,0.9-0.3c0.1,0,0.1-0.1,0.2-0.2
		c0.1-0.1,0.2-0.2,0.2-0.2c-0.2-0.3-0.4-0.6-0.6-0.8C5.1,38.9,5,38.9,4.9,39c-0.1,0.1-0.1,0.1-0.2,0.2c-0.1,0.1-0.3,0.1-0.4,0.1
		c-0.1,0-0.2,0-0.4-0.1C3.8,39,3.5,38.6,3.2,38c-0.5-1-0.9-2.6-1.2-4.6c-0.1-0.6-0.2-1.3-0.2-2c-0.5-2-0.8-4.1-0.8-6.3
		C1,24.8,1,24.5,1,24.1"/>
	<path class="st0" d="M49.2,26.2c-0.1,2.2-0.5,4.3-1.1,6.3c0,0.3-0.1,0.6-0.1,0.9c-0.2,1.1-0.4,2.2-0.6,3c-0.3,1-0.6,1.8-0.9,2.3
		c-0.2,0.2-0.3,0.4-0.5,0.5c-0.1,0.1-0.2,0.1-0.3,0.1c-0.1,0-0.2,0-0.3-0.1c-0.1,0-0.1-0.1-0.2-0.2c0,0-0.1-0.1-0.1-0.1
		c-0.2,0.3-0.4,0.6-0.6,0.8c0,0,0.1,0.1,0.1,0.1c0.1,0.1,0.2,0.1,0.2,0.2c0.3,0.2,0.6,0.3,0.9,0.3c0,0,0,0,0,0c0,0,0,0,0,0
		c0.3,0,0.7-0.1,0.9-0.3c0.5-0.3,0.8-0.9,1.2-1.6c1-2.1,1.6-5.7,1.6-9.8c0-0.2,0-0.4,0-0.7C49.3,27.4,49.3,26.8,49.2,26.2"/>
	<path class="st0" d="M11.4,45.1c3.8,2.8,8.5,4.4,13.5,4.4c0,0,0,0,0,0s0,0,0,0c3.7,0,7.3-0.9,10.4-2.5c-3.1,1.5-6.6,2.3-10.3,2.3
		C20,49.3,15.3,47.7,11.4,45.1"/>
	<path class="st1" d="M6.6,38.2c0,0.1-0.1,0.1-0.1,0.2c0.9,1.3,1.8,2.5,3,3.7c0.9,0.9,1.9,1.7,3,2.5C10.1,42.8,8.1,40.7,6.6,38.2
		 M43.5,38.2c-1,1.7-2.3,3.3-3.8,4.6c0.3-0.3,0.6-0.5,0.8-0.8c1.1-1.1,2.1-2.4,3-3.7C43.5,38.3,43.5,38.3,43.5,38.2 M3.7,23.6H3.2
		c-0.1,1-0.2,1.9-0.2,2.9c0,3.9,1,7.6,2.9,10.8c0-0.1,0.1-0.1,0.1-0.2c-1.6-3-2.5-6.5-2.5-10.1C3.4,25.8,3.5,24.7,3.7,23.6
		 M46.8,23.6h-0.4c0.2,1.1,0.3,2.3,0.3,3.5c0,3.6-0.9,7.1-2.5,10.1c0,0.1,0,0.1,0.1,0.2C46,34.1,47,30.4,47,26.5
		C47,25.5,46.9,24.5,46.8,23.6 M2.8,20.3c-0.1,0.2-0.2,0.5-0.2,0.7c-0.5,1.8-0.9,4.2-0.9,7c0.2,1.9,0.7,3.7,1.4,5.5
		c-0.7-2.2-1.1-4.6-1.1-7C2,24.4,2.3,22.3,2.8,20.3 M47.1,19.8c0.2,0.6,0.3,1.1,0.4,1.7c0.4,1.6,0.5,3.3,0.5,5c0,2.4-0.4,4.8-1.1,7
		c0.7-1.8,1.2-3.6,1.4-5.6C48.3,24.6,47.8,21.6,47.1,19.8 M8.6,12.4c-0.9,1.2-1.8,2.6-2.5,4l0,0l0,0C6,16.7,6,16.9,5.9,17
		c0.8-1.4,1.7-2.8,2.7-4V12.4 M41.5,12.4v0.7c1.2,1.4,2.1,2.9,2.9,4.5c0,0,0,0,0,0c-0.1-0.4-0.3-0.7-0.5-1.1l0,0l0,0
		C43.3,15,42.5,13.6,41.5,12.4 M14.9,7c-1.8,0.9-3.5,2.1-5,3.5c0.2,0.2,0.3,0.5,0.3,0.8c1.6-1.5,3.3-2.7,5.3-3.6
		C15.3,7.4,15.1,7.2,14.9,7 M35.1,6.9c-0.2,0.2-0.4,0.4-0.6,0.6c2,1,3.8,2.2,5.4,3.7c0.1-0.3,0.2-0.5,0.3-0.7
		C38.6,9.1,36.9,7.9,35.1,6.9 M25,5.4c-1.2,0-2.4,0.1-3.5,0.3C22.7,5.5,23.8,5.4,25,5.4c2.7,0,5.2,0.5,7.6,1.4c0,0,0,0,0,0
		c-0.9-0.3-1.8-0.6-2.8-0.8l0,0l0,0C28.3,5.6,26.7,5.4,25,5.4L25,5.4 M25,1.5c-6.5,0-12.4,2.6-16.6,6.9C5.5,11.3,3.3,15,2.2,19.2
		c0,0,0-0.1,0-0.1c0.3-0.7,0.7-1.2,1.2-1.6c0.1-0.1,0.3-0.2,0.4-0.2c1.1-2.8,2.7-5.4,4.6-7.5l0.3-0.3l0.3,0.2c0,0,0.1,0,0.1,0.1
		c4.1-3.9,9.7-6.3,15.8-6.3l0,0c6.1,0,11.7,2.4,15.8,6.3c0.1,0,0.1-0.1,0.2-0.1l0.3-0.2l0.3,0.3c1.9,2,3.4,4.5,4.5,7.3
		c0.2,0.1,0.3,0.1,0.4,0.2c0.3,0.2,0.5,0.5,0.7,0.8c0.1,0.2,0.2,0.3,0.3,0.5c-1.1-3.9-3.2-7.4-6-10.2C37.4,4.1,31.5,1.5,25,1.5
		L25,1.5"/>
	<path class="st2" d="M5.9,39.4c-0.1,0.1-0.1,0.2-0.2,0.2c1.6,2.1,3.5,4,5.7,5.5C9.3,43.5,7.4,41.6,5.9,39.4 M44.1,39.3
		c-2.2,3.2-5.2,5.9-8.7,7.7c3.6-1.7,6.6-4.2,9-7.3C44.3,39.6,44.2,39.5,44.1,39.3 M1.7,28c0,0.2,0,0.5,0,0.7c0,0.9,0,1.9,0.1,2.7
		c0.7,2.6,1.9,5.1,3.4,7.3c0,0,0-0.1,0.1-0.1c0-0.1,0.1-0.1,0.1-0.2c-0.9-1.5-1.7-3.2-2.3-4.9C2.4,31.8,1.9,29.9,1.7,28 M48.3,27.9
		c-0.2,1.9-0.7,3.8-1.4,5.6c-0.6,1.7-1.3,3.4-2.2,4.9c0.1,0.2,0.2,0.3,0.3,0.5c1.3-1.9,2.4-4.1,3.1-6.4c0.1-1.2,0.2-2.5,0.2-3.8
		C48.3,28.4,48.3,28.2,48.3,27.9 M25.1,1C12.1,1,1.5,11.3,1,24.1c0.3-2,0.7-3.8,1.3-5C3.3,15,5.5,11.3,8.4,8.4
		C12.6,4.1,18.5,1.5,25,1.5l0,0c6.5,0,12.4,2.6,16.6,6.9c2.8,2.8,4.9,6.3,6,10.2c0.3,0.6,0.5,1.2,0.8,2c0.4,1.5,0.7,3.4,0.9,5.5
		c0-0.3,0-0.7,0-1C49.3,11.8,38.4,1,25.1,1"/>
	<path class="st2" d="M5.3,38.4c0,0.1-0.1,0.2-0.1,0.2c0,0,0,0.1-0.1,0.1c0.2,0.3,0.4,0.6,0.6,0.8c0.1-0.1,0.1-0.2,0.2-0.2
		C5.7,39.1,5.5,38.8,5.3,38.4 M5.9,37.1c0,0.1-0.1,0.2-0.1,0.2c0.2,0.4,0.4,0.7,0.6,1.1c0-0.1,0.1-0.1,0.1-0.2
		C6.4,37.9,6.1,37.5,5.9,37.1 M3.9,17.3c-0.1,0.1-0.3,0.1-0.4,0.2c-0.5,0.3-0.8,0.9-1.2,1.6c0,0,0,0.1,0,0.1c-0.6,1.2-1,2.9-1.3,5
		c0,0.3,0,0.7,0,1c0,2.2,0.3,4.3,0.8,6.3c-0.1-0.9-0.1-1.8-0.1-2.7c0-0.2,0-0.5,0-0.7c0.1-2.7,0.4-5.2,0.9-7
		c0.1-0.3,0.2-0.5,0.2-0.7c0.2-0.5,0.3-1.1,0.5-1.6C3.5,18.2,3.7,17.8,3.9,17.3"/>
	<path class="st2" d="M44.7,38.4c-0.2,0.3-0.4,0.6-0.6,0.9c0.1,0.1,0.2,0.3,0.3,0.4c0.2-0.3,0.4-0.6,0.6-0.8
		C44.9,38.7,44.8,38.6,44.7,38.4 M44.1,37.1c-0.2,0.4-0.4,0.8-0.6,1.1c0,0,0,0.1,0,0.1c0.2-0.4,0.4-0.7,0.6-1.1
		C44.2,37.2,44.1,37.2,44.1,37.1 M44.5,17.6C44.5,17.6,44.5,17.6,44.5,17.6C44.5,17.6,44.5,17.6,44.5,17.6
		C44.5,17.6,44.5,17.6,44.5,17.6 M46.2,17.1c0.3,0.9,0.6,1.8,0.9,2.7c0.7,1.8,1.2,4.8,1.3,8.1c0,0.2,0,0.5,0,0.7
		c0,1.3-0.1,2.6-0.2,3.8c0.6-2,1-4.1,1.1-6.3c-0.1-2.1-0.4-4-0.9-5.5c-0.2-0.8-0.5-1.5-0.8-2c-0.1-0.2-0.2-0.4-0.3-0.5
		c-0.2-0.3-0.4-0.6-0.7-0.8C46.5,17.2,46.3,17.1,46.2,17.1"/>
	<path class="st2" d="M3.3,18.7c-0.2,0.5-0.4,1.1-0.5,1.6c-0.5,2-0.8,4-0.8,6.2c0,2.4,0.4,4.8,1.1,7c0.6,1.7,1.3,3.4,2.3,4.9
		c0.2,0.3,0.4,0.6,0.6,0.9c1.5,2.2,3.4,4.1,5.5,5.7c3.9,2.7,8.6,4.2,13.7,4.2c3.7,0,7.2-0.8,10.3-2.3c3.5-1.8,6.5-4.4,8.7-7.7
		c0.2-0.3,0.4-0.6,0.6-0.9c0.9-1.5,1.7-3.2,2.2-4.9c0.7-2.2,1.1-4.6,1.1-7c0-1.7-0.2-3.4-0.5-5c0.1,0.5,0.2,1,0.2,1.4l0.1,0.6h-0.6
		c-0.1,0-0.2,0-0.3,0l0,0h-0.1c0.1,1,0.2,1.9,0.2,2.9c0,3.9-1,7.6-2.8,10.8c-0.2,0.4-0.4,0.7-0.6,1.1c-0.9,1.3-1.9,2.6-3,3.7
		c-0.3,0.3-0.6,0.5-0.8,0.8c-3.9,3.6-9,5.8-14.7,5.8c-4.7,0-9.1-1.5-12.6-4.1c-1.1-0.7-2.1-1.6-3-2.5c-1.1-1.1-2.1-2.3-3-3.7
		c-0.2-0.3-0.4-0.7-0.6-1.1C4,34.1,3,30.4,3,26.5c0-1,0.1-2,0.2-2.9H3.1H2.3L2.4,23C2.6,21.5,2.9,20.1,3.3,18.7 M25,3.5L25,3.5
		c-6.1,0-11.7,2.4-15.8,6.3c0.3,0.2,0.5,0.4,0.7,0.7c1.5-1.4,3.1-2.6,5-3.5c0,0-0.1-0.1-0.1-0.1l-0.4-0.5L14.9,6
		C18,4.5,21.4,3.7,25,3.7l0,0c0,0,0,0,0,0c3.6,0,7,0.8,10,2.3l0.6,0.3l-0.4,0.5c-0.1,0.1-0.1,0.1-0.2,0.2c1.9,1,3.6,2.2,5.1,3.6
		c0.2-0.3,0.4-0.5,0.7-0.7C36.7,5.9,31.1,3.5,25,3.5"/>
	<path class="st1" d="M46.4,23.6H43c0,0.5,0.1,1.1,0.1,1.6c0,0.9-0.1,1.7-0.2,2.5c0.7,1.2,1.1,2.6,1.1,4.1c0,4.4-3.6,7.9-7.9,7.9
		c-0.1,0-0.2,0-0.4,0c-1.8,1.3-3.8,2.3-6,2.9c0.4,0,0.8-0.1,1.1-0.1c0.4,0,0.7-0.1,0.8-0.2c0-0.1,0.1-0.1,0.2-0.1
		c0.1,0,0.2,0.1,0.2,0.3c0,0.1-0.1,0.2-0.1,0.3l-0.2,0.1c-0.1,0-0.3,0.1-0.5,0.1c-0.4,0.1-0.9,0.1-1.6,0.2c-1.3,0.1-3,0.1-4.7,0.1
		c-1.4,0-2.7,0-3.9-0.1c-1.1-0.1-2-0.2-2.5-0.3c-0.1,0-0.3-0.1-0.4-0.2c-0.1,0-0.1-0.1-0.1-0.3c0-0.1,0.1-0.3,0.2-0.3
		c0.1,0,0.2,0.1,0.2,0.1l0,0c0.1,0,0.2,0.1,0.4,0.1c0.3,0.1,0.9,0.1,1.5,0.2c0.1,0,0.1,0,0.2,0c-2.2-0.6-4.3-1.6-6.1-2.9
		c-0.1,0-0.3,0-0.4,0c-4.4,0-7.9-3.6-7.9-7.9c0-1.5,0.4-3,1.2-4.2c-0.1-0.8-0.2-1.6-0.2-2.4c0-0.5,0-1.1,0.1-1.6H3.7
		c-0.2,1.1-0.3,2.3-0.3,3.5c0,3.6,0.9,7.1,2.5,10.1c0.2,0.4,0.4,0.8,0.6,1.1c1.5,2.5,3.5,4.6,5.8,6.3c3.5,2.6,7.9,4.1,12.6,4.1
		c5.7,0,10.8-2.2,14.7-5.8c1.5-1.4,2.7-2.9,3.8-4.6c0.2-0.4,0.4-0.7,0.6-1.1c1.6-3,2.5-6.4,2.5-10.1C46.6,25.8,46.5,24.7,46.4,23.6
		 M41.5,13.1v4.7c0.6,1.3,1,2.6,1.3,4.1h2.9c-0.3-1.4-0.7-2.9-1.2-4.2c0,0,0,0,0,0C43.7,15.9,42.7,14.4,41.5,13.1 M8.6,13
		c-1,1.2-2,2.6-2.7,4c-0.7,1.5-1.2,3.1-1.5,4.8h3c0.3-1.3,0.6-2.6,1.2-3.8V13 M15.5,7.6c-1.9,0.9-3.7,2.2-5.3,3.6
		c0,0.2,0.1,0.4,0.1,0.6v3c1.8-2.5,4.1-4.5,6.9-5.9C16.6,8.6,16.1,8.1,15.5,7.6 M34.4,7.6c-0.5,0.5-1,0.9-1.6,1.3
		c2.8,1.3,5.2,3.3,7,5.8v-2.9c0-0.2,0-0.4,0.1-0.5C38.2,9.8,36.4,8.5,34.4,7.6 M25,5.4c-1.2,0-2.4,0.1-3.5,0.3
		c-0.5,0.1-0.9,0.2-1.4,0.3l0,0l0,0c-0.9,0.2-1.9,0.5-2.8,0.9c0.6,0.5,1.2,0.9,1.9,1.3c1.8-0.6,3.8-1,5.9-1c2,0,3.9,0.3,5.7,0.9
		c0.7-0.4,1.3-0.8,1.9-1.3C30.3,5.9,27.7,5.4,25,5.4"/>
	<path class="st1" d="M7.4,28.4c-0.5,1-0.8,2.2-0.8,3.4c0,2.1,0.8,3.9,2.2,5.3c1.3,1.3,3.1,2.1,5.1,2.2C10.5,36.5,8.2,32.7,7.4,28.4
		"/>
	<path class="st2" d="M7.3,27.6c-0.7,1.2-1.2,2.6-1.2,4.2c0,4.4,3.6,7.9,7.9,7.9c0.1,0,0.3,0,0.4,0c-0.2-0.2-0.4-0.3-0.6-0.5
		c-2-0.1-3.7-0.9-5.1-2.2c-1.3-1.3-2.2-3.2-2.2-5.3c0-1.2,0.3-2.4,0.8-3.4C7.3,28.1,7.3,27.8,7.3,27.6"/>
	<path class="st1" d="M42.8,28.5c-0.8,4.3-3.1,8.1-6.4,10.7c1.9-0.1,3.7-0.9,5-2.2c1.3-1.3,2.2-3.2,2.2-5.3
		C43.6,30.6,43.3,29.5,42.8,28.5"/>
	<path class="st2" d="M42.9,27.7c0,0.3-0.1,0.5-0.1,0.8c0.5,1,0.8,2.1,0.8,3.3c0,2.1-0.8,3.9-2.2,5.3c-1.3,1.3-3,2.1-5,2.2
		c-0.2,0.2-0.4,0.3-0.6,0.5c0.1,0,0.2,0,0.4,0c4.4,0,7.9-3.6,7.9-7.9C44.1,30.3,43.7,28.9,42.9,27.7"/>
	<path class="st2" d="M31.6,42.4L31.6,42.4L31.6,42.4 M31.8,42.2c-0.1,0-0.2,0.1-0.2,0.1c-0.1,0-0.4,0.1-0.8,0.2
		c-0.3,0-0.7,0.1-1.1,0.1c-1.5,0.4-3,0.6-4.6,0.6c-1.6,0-3.1-0.2-4.5-0.6c-0.1,0-0.1,0-0.2,0c-0.6,0-1.1-0.1-1.5-0.2
		c-0.2,0-0.3-0.1-0.4-0.1l0,0c0-0.1-0.1-0.1-0.2-0.1c-0.1,0-0.2,0.1-0.2,0.3c0,0.1,0.1,0.2,0.1,0.3c0.1,0.1,0.2,0.1,0.4,0.2
		c0.5,0.1,1.4,0.2,2.5,0.3c1.1,0.1,2.5,0.1,3.9,0.1c1.7,0,3.4,0,4.7-0.1c0.7,0,1.2-0.1,1.6-0.2c0.2,0,0.4-0.1,0.5-0.1l0.2-0.1
		c0.1,0,0.1-0.1,0.1-0.3C32.1,42.3,31.9,42.2,31.8,42.2"/>
	<path class="st2" d="M25,3.7C25,3.7,25,3.7,25,3.7L25,3.7C21.4,3.7,18,4.5,14.9,6l-0.6,0.3l0.4,0.5c0,0,0.1,0.1,0.1,0.1
		c0.2,0.2,0.4,0.4,0.7,0.6c0.5,0.5,1.1,0.9,1.7,1.3c0.6-0.3,1.3-0.6,2-0.8c-0.7-0.4-1.3-0.8-1.9-1.3c0.9-0.4,1.9-0.7,2.8-0.9l0,0
		l0,0c0.5-0.1,0.9-0.2,1.4-0.3c1.2-0.2,2.3-0.3,3.5-0.3l0,0c1.6,0,3.3,0.2,4.8,0.5l0,0l0,0c0.9,0.2,1.9,0.5,2.8,0.8c0,0,0,0,0,0
		c-0.6,0.5-1.2,0.9-1.9,1.3c0.7,0.2,1.4,0.5,2,0.8c0.6-0.4,1.1-0.8,1.6-1.3c0.2-0.2,0.4-0.4,0.6-0.6c0.1-0.1,0.1-0.1,0.2-0.2
		l0.4-0.5L35.1,6C32.1,4.5,28.6,3.7,25,3.7"/>
	<path class="st2" d="M8.8,9.5L8.5,9.8c-2,2.1-3.5,4.6-4.6,7.5c-0.2,0.5-0.4,1-0.5,1.4c-0.4,1.4-0.7,2.8-0.9,4.3l-0.1,0.6h0.8h0.1
		h0.5h3.5c0.1-0.6,0.1-1.2,0.2-1.7h-3c0.3-1.6,0.8-3.2,1.5-4.8C6,16.9,6,16.7,6.1,16.5l0,0l0,0c0.7-1.5,1.5-2.8,2.5-4V13v5
		c0.5-1.1,1.1-2.2,1.7-3.1v-3c0-0.2,0-0.4-0.1-0.6c-0.1-0.3-0.2-0.5-0.3-0.8C9.7,10.2,9.5,10,9.2,9.8c0,0-0.1,0-0.1-0.1L8.8,9.5"/>
	<path class="st2" d="M46.6,22.3l-0.3,0v0.2h0.3C46.6,22.5,46.6,22.4,46.6,22.3"/>
	<path class="st2" d="M46.3,22.3l0.3,0c0,0.1,0,0.2,0.1,0.3h-0.3V22.3 M41.3,9.5L41,9.7c-0.1,0-0.1,0.1-0.2,0.1
		c-0.3,0.2-0.5,0.4-0.7,0.7c-0.1,0.2-0.2,0.5-0.3,0.7c0,0.2-0.1,0.3-0.1,0.5v2.9c0.7,0.9,1.3,2,1.7,3v-4.7v-0.7
		c1,1.2,1.8,2.6,2.5,4.1l0,0l0,0c0.2,0.4,0.3,0.7,0.5,1.1c0,0,0,0,0,0c0.5,1.3,0.9,2.8,1.2,4.2h-2.9c0.1,0.6,0.2,1.2,0.2,1.7h3.3
		h0.4h0.1c0.1,0,0.1,0,0.3,0h0.6L47.7,23c-0.1-0.5-0.2-1-0.2-1.4c-0.1-0.6-0.3-1.2-0.4-1.7c-0.3-0.9-0.6-1.8-0.9-2.7
		c-1.1-2.8-2.6-5.2-4.5-7.3L41.3,9.5"/>
	<path class="st3" d="M32.2,40L32.2,40L32.2,40L32.2,40 M24.9,41.7c-2.5,0-4.9-0.2-6.4-0.5c-0.5-0.1-0.9-0.3-1.2-0.5
		C17.2,40.6,17,40.3,17,40c0-0.3,0.2-0.5,0.5-0.5c0.2,0,0.4,0.2,0.5,0.4c0,0,0.2,0.1,0.3,0.2c0.3,0.1,0.9,0.3,1.6,0.3
		c1.3,0.2,3.2,0.3,5,0.3c0,0,0,0,0,0c0,0,0,0,0,0c2.6,0,5.2-0.2,6.6-0.5c0.4-0.1,0.6-0.2,0.7-0.3c0.1-0.2,0.3-0.4,0.5-0.4
		c0,0,0,0,0,0c0.3,0,0.5,0.2,0.5,0.5c0,0.2-0.1,0.3-0.1,0.4c-0.1,0.1-0.2,0.2-0.3,0.3c-0.2,0.1-0.4,0.2-0.6,0.3
		c-0.5,0.2-1.1,0.3-1.9,0.4C28.8,41.6,26.8,41.7,24.9,41.7 M21.6,34.1c-0.9,3.1-3.8,5.4-7.2,5.6c1.8,1.3,3.9,2.3,6.1,2.9
		c1.2,0.1,2.8,0.1,4.3,0.1c0,0,0,0,0,0c0,0,0,0,0,0c1.7,0,3.5,0,4.8-0.1c2.2-0.6,4.3-1.6,6-2.9c-3.4-0.2-6.3-2.5-7.2-5.6
		c-1.1,0.4-2.2,0.6-3.4,0.6C23.9,34.7,22.7,34.5,21.6,34.1 M8.6,18c-0.5,1.2-0.9,2.5-1.2,3.8H8c0.4,0,0.6-0.3,0.6-0.6V18 M41.5,17.7
		v3.4c0,0.4,0.3,0.6,0.6,0.6h0.7C42.5,20.4,42.1,19,41.5,17.7 M32.8,8.9c-2.2,1.5-4.9,2.5-7.8,2.5c-2.9,0-5.5-0.9-7.7-2.4
		c-2.8,1.3-5.1,3.4-6.9,5.9v6.3c0,1.3-1.1,2.4-2.4,2.4l0,0H7.2c0,0.5-0.1,1.1-0.1,1.6c0,0.8,0.1,1.6,0.2,2.4
		c1.4-2.3,3.9-3.8,6.8-3.8l0,0c0.5,0,1.1,0.1,1.6,0.2c0.3-2.1,1.2-4,2.6-5.4c-0.5-0.2-1-0.3-1.5-0.3c-1,0-2,0.4-2.7,1.1
		c-0.7,0.7-1.2,1.8-1.3,3.3c0,0.6-0.4,1-1,1s-1-0.4-1-1c0-2,0.7-3.7,1.9-4.7c1.1-1.1,2.6-1.6,4.1-1.6c0,0,0,0,0,0
		c1.1,0,2.2,0.3,3.1,0.9c1.5-1,3.3-1.6,5.3-1.6c1.9,0,3.7,0.6,5.2,1.5c0.9-0.6,2-0.8,3-0.8c0,0,0,0,0,0c1.5,0,3,0.5,4.1,1.6
		c1.1,1.1,1.9,2.7,1.9,4.7c0,0.6-0.4,1-1,1s-1-0.4-1-1c0-1.5-0.5-2.6-1.3-3.3c-0.7-0.7-1.7-1.1-2.7-1.1c0,0,0,0,0,0
		c-0.5,0-0.9,0.1-1.4,0.2c1.4,1.4,2.3,3.3,2.6,5.4c0.5-0.1,1-0.1,1.5-0.1l0,0c2.9,0,5.4,1.5,6.8,3.9c0.1-0.8,0.2-1.7,0.2-2.5
		c0-0.5,0-1.1-0.1-1.6h-0.9c0,0,0,0,0,0c-0.7,0-1.3-0.3-1.7-0.7c-0.4-0.4-0.7-1-0.7-1.7v-6.5C38,12.2,35.6,10.2,32.8,8.9 M25.1,7.1
		c-2.1,0-4,0.3-5.9,1c0.2,0.1,0.5,0.3,0.8,0.4l0,0l0,0c1.5,0.7,3.2,1,5,1c1.7,0,3.4-0.4,5-1.1l0,0l0,0c0.3-0.1,0.5-0.3,0.8-0.4
		C29,7.5,27.1,7.1,25.1,7.1"/>
	<path class="st3" d="M14,24.3c-2.1,0-3.9,0.8-5.3,2.2c-0.6,0.6-1,1.2-1.4,1.9c0.8,4.3,3.1,8.1,6.4,10.8c0.1,0,0.1,0,0.2,0
		c2.1,0,3.9-0.8,5.3-2.2c0.9-0.9,1.5-1.9,1.9-3.1c-3.3-1.5-5.6-4.8-5.6-8.7c0-0.2,0-0.5,0-0.7C15.1,24.4,14.5,24.3,14,24.3L14,24.3"
		/>
	<path class="st4" d="M21.1,33.9c-0.4,1.2-1,2.3-1.9,3.1c-1.3,1.3-3.2,2.2-5.3,2.2c-0.1,0-0.1,0-0.2,0c0.2,0.2,0.4,0.3,0.6,0.5
		c3.4-0.2,6.2-2.5,7.2-5.6C21.5,34,21.3,33.9,21.1,33.9 M14,23.8L14,23.8c-2.9,0-5.4,1.5-6.8,3.8c0,0.3,0.1,0.5,0.1,0.8
		c0.4-0.7,0.8-1.3,1.4-1.9c1.3-1.3,3.2-2.2,5.3-2.2l0,0c0.5,0,1.1,0.1,1.6,0.2c0-0.2,0-0.3,0-0.5C15.1,23.9,14.6,23.8,14,23.8"/>
	<path class="st3" d="M36.1,24.3c-0.5,0-1,0.1-1.5,0.1c0,0.2,0,0.5,0,0.7c0,3.9-2.3,7.2-5.7,8.7c0.4,1.2,1,2.3,1.9,3.1
		c1.3,1.3,3.2,2.2,5.3,2.2c0.1,0,0.2,0,0.3,0c3.3-2.6,5.6-6.4,6.4-10.7c-0.4-0.7-0.8-1.4-1.4-2C40,25.1,38.2,24.3,36.1,24.3
		L36.1,24.3"/>
	<path class="st4" d="M29,33.9c-0.2,0.1-0.3,0.1-0.5,0.2c1,3.1,3.8,5.4,7.2,5.6c0.2-0.2,0.4-0.3,0.6-0.5c-0.1,0-0.2,0-0.3,0
		c-2.1,0-3.9-0.8-5.3-2.2C30,36.1,29.4,35.1,29,33.9 M36.1,23.8L36.1,23.8c-0.5,0-1,0.1-1.5,0.1c0,0.2,0,0.3,0,0.5
		c0.5-0.1,1-0.1,1.5-0.1l0,0c2.1,0,3.9,0.8,5.3,2.2c0.6,0.6,1.1,1.2,1.4,2c0-0.3,0.1-0.5,0.1-0.8C41.6,25.4,39,23.8,36.1,23.8"/>
	<path class="st4" d="M32.2,40L32.2,40C32.2,40,32.2,40,32.2,40 M17.5,39.5c-0.3,0-0.5,0.2-0.5,0.5c0,0.3,0.2,0.5,0.3,0.7
		c0.3,0.2,0.7,0.4,1.2,0.5c1.5,0.4,3.9,0.5,6.4,0.5c2,0,3.9-0.1,5.4-0.3c0.8-0.1,1.4-0.2,1.9-0.4c0.2-0.1,0.5-0.2,0.6-0.3
		c0.1-0.1,0.2-0.1,0.3-0.3c0.1-0.1,0.1-0.3,0.1-0.4c0-0.3-0.2-0.5-0.5-0.5c0,0,0,0,0,0c-0.2,0-0.4,0.2-0.5,0.4
		c-0.1,0.1-0.4,0.2-0.7,0.3c-1.3,0.3-4,0.5-6.6,0.5c0,0,0,0,0,0c0,0,0,0,0,0c-1.8,0-3.7-0.1-5-0.3c-0.7-0.1-1.2-0.2-1.6-0.3
		C18.1,40,18,40,18,39.9C17.9,39.7,17.7,39.5,17.5,39.5"/>
	<path class="st4" d="M29.7,42.6c-1.3,0.1-3,0.1-4.8,0.1c0,0,0,0,0,0c0,0,0,0,0,0c-1.6,0-3.1,0-4.3-0.1c1.4,0.4,3,0.6,4.5,0.6
		C26.7,43.2,28.2,43,29.7,42.6"/>
	<path class="st4" d="M30.8,8.1c-0.3,0.1-0.5,0.3-0.8,0.4l0,0l0,0c-1.6,0.7-3.3,1.1-5,1.1c-1.7,0-3.4-0.3-5-1l0,0l0,0
		c-0.3-0.1-0.5-0.2-0.8-0.4c-0.7,0.2-1.4,0.5-2,0.8c2.2,1.5,4.9,2.4,7.7,2.4c2.9,0,5.6-0.9,7.8-2.5C32.2,8.6,31.5,8.3,30.8,8.1"/>
	<path class="st4" d="M10.3,14.9c-0.7,1-1.3,2-1.7,3.1v3.2c0,0.4-0.3,0.6-0.6,0.6l0,0H7.4c-0.1,0.6-0.2,1.2-0.2,1.7H8
		c1.3,0,2.4-1,2.4-2.4V14.9"/>
	<path class="st4" d="M39.8,14.7v6.5c0,0.7,0.3,1.3,0.7,1.7c0.4,0.4,1,0.7,1.7,0.7c0,0,0,0,0,0H43c-0.1-0.6-0.1-1.2-0.2-1.7h-0.7
		c-0.4,0-0.6-0.3-0.6-0.6v-3.4C41,16.7,40.4,15.6,39.8,14.7"/>
	<path class="st4" d="M16.7,16.3C16.7,16.3,16.7,16.3,16.7,16.3c-1.5,0-3,0.5-4.1,1.6c-1.1,1.1-1.9,2.7-1.9,4.7c0,0.6,0.4,1,1,1
		s1-0.4,1-1c0-1.5,0.5-2.6,1.3-3.3c0.7-0.7,1.7-1.1,2.7-1.1c0.5,0,1,0.1,1.5,0.3c0.5-0.5,1.1-1,1.7-1.4
		C18.9,16.6,17.8,16.3,16.7,16.3"/>
	<path class="st4" d="M33.4,16.3c-1.1,0-2.1,0.3-3,0.8c0.6,0.4,1.2,0.9,1.7,1.4c0.4-0.2,0.9-0.2,1.4-0.2c0,0,0,0,0,0
		c1,0,2,0.4,2.7,1.1c0.7,0.7,1.2,1.8,1.3,3.3c0,0.6,0.4,1,1,1s1-0.4,1-1c0-2-0.7-3.7-1.9-4.7C36.3,16.8,34.8,16.3,33.4,16.3
		C33.4,16.3,33.4,16.3,33.4,16.3"/>
	<path class="st5" d="M28.2,32.2c-0.3,0.8-1.1,1.3-2,1.3l0,0c-0.4,0-0.8-0.1-1.1-0.3c-0.3,0.3-0.8,0.4-1.2,0.4c-0.9,0-1.7-0.6-2-1.3
		c0,0.6-0.2,1.2-0.3,1.8c1.1,0.4,2.3,0.7,3.5,0.7c1.2,0,2.4-0.2,3.4-0.6C28.4,33.5,28.2,32.9,28.2,32.2 M17.7,21.1
		C17.7,21.1,17.7,21.1,17.7,21.1c0.4,0,0.8,0.2,1,0.5c0.2,0.3,0.4,0.7,0.4,1.1c0,0.4-0.1,0.8-0.4,1.1c-0.2,0.3-0.6,0.5-1,0.5
		c0,0,0,0,0,0c0,0,0,0,0,0c-0.4,0-0.8-0.2-1-0.5c-0.2-0.3-0.4-0.7-0.4-1.1c0-0.4,0.1-0.8,0.4-1.1C16.9,21.3,17.3,21.1,17.7,21.1
		C17.7,21.1,17.7,21.1,17.7,21.1L17.7,21.1 M32.3,24.4c-0.4,0-0.8-0.2-1-0.5c-0.2-0.3-0.4-0.7-0.4-1.1c0-0.4,0.1-0.8,0.4-1.1
		c0.2-0.3,0.6-0.5,1-0.5c0,0,0,0,0,0l0,0c0,0,0,0,0,0c0.4,0,0.8,0.2,1,0.5c0.2,0.3,0.4,0.7,0.4,1.1c0,0.4-0.1,0.8-0.4,1.1
		C33.1,24.2,32.7,24.4,32.3,24.4C32.3,24.4,32.3,24.4,32.3,24.4C32.3,24.4,32.3,24.4,32.3,24.4 M25.1,15.6c-1.9,0-3.8,0.6-5.3,1.6
		c0.3,0.2,0.7,0.5,1,0.7c1.1,1.1,1.8,2.7,1.8,4.8h0l0,0c0,0.6-0.4,1-1,1c-0.6,0-1-0.4-1-1c0-1.6-0.5-2.6-1.2-3.3
		c-0.4-0.3-0.8-0.6-1.2-0.8c-1.4,1.4-2.3,3.3-2.6,5.4c3.3,0.7,5.9,3.4,6.3,6.8c0.2-0.7,0.8-1.2,1.6-1.4c0.4-0.4,1-0.7,1.6-0.7l0,0
		c0.6,0,1.2,0.3,1.6,0.7c0.8,0.1,1.4,0.7,1.6,1.5c0.4-3.4,3-6.2,6.3-6.9c-0.3-2.1-1.2-4-2.6-5.4c-0.5,0.2-0.9,0.5-1.3,0.8
		c-0.7,0.7-1.2,1.7-1.2,3.3c0,0.6-0.4,1-1,1s-1-0.4-1-1c0-2,0.7-3.7,1.8-4.8c0.3-0.3,0.7-0.6,1-0.8C28.8,16.2,27,15.6,25.1,15.6"/>
	<path class="st6" d="M32.7,22.8c-0.1,0.2-0.4,0.3-0.6,0.3c-0.1,0-0.1,0-0.2,0c0,0,0,0.1,0.1,0.1c0.1,0.1,0.2,0.1,0.3,0.1
		c0.1,0,0.2,0,0.3-0.1C32.7,23.1,32.7,23,32.7,22.8"/>
	<path class="st6" d="M32,23.1c-0.3-0.1-0.6-0.4-0.6-0.7c0-0.4,0.3-0.7,0.7-0.7c0.4,0,0.8,0.3,0.8,0.7c0,0.2,0,0.3-0.1,0.4
		c0,0.2-0.1,0.3-0.2,0.4c-0.1,0.1-0.2,0.1-0.3,0.1c-0.1,0-0.2,0-0.3-0.1C32,23.2,32,23.2,32,23.1 M32.3,21.1c-0.4,0-0.8,0.2-1,0.5
		c-0.2,0.3-0.4,0.7-0.4,1.1c0,0.4,0.1,0.8,0.4,1.1c0.2,0.3,0.6,0.5,1,0.5c0,0,0,0,0,0c0,0,0,0,0,0c0.4,0,0.8-0.2,1-0.5
		c0.2-0.3,0.4-0.7,0.4-1.1c0-0.4-0.1-0.8-0.4-1.1C33.1,21.3,32.7,21.1,32.3,21.1C32.3,21.1,32.3,21.1,32.3,21.1L32.3,21.1
		C32.3,21.1,32.3,21.1,32.3,21.1"/>
	<path class="st5" d="M32.1,21.6c-0.4,0-0.7,0.3-0.7,0.7c0,0.4,0.2,0.7,0.6,0.7c0.1,0,0.1,0,0.2,0c0.3,0,0.5-0.1,0.6-0.3
		c0.1-0.1,0.1-0.3,0.1-0.4C32.9,22,32.5,21.6,32.1,21.6"/>
	<path class="st6" d="M18.1,22.8c-0.1,0.2-0.4,0.3-0.6,0.3c-0.1,0-0.1,0-0.2,0c0,0,0,0.1,0.1,0.1c0.1,0.1,0.2,0.1,0.3,0.1
		c0.1,0,0.2,0,0.3-0.1C18.1,23.1,18.1,23,18.1,22.8"/>
	<path class="st6" d="M17.3,23.1c-0.3-0.1-0.6-0.4-0.6-0.7c0-0.4,0.3-0.7,0.7-0.7c0.4,0,0.8,0.3,0.8,0.7c0,0.2,0,0.3-0.1,0.4
		c0,0.2-0.1,0.3-0.2,0.4c-0.1,0.1-0.2,0.1-0.3,0.1c-0.1,0-0.2,0-0.3-0.1C17.4,23.2,17.4,23.2,17.3,23.1 M17.7,21.1
		C17.7,21.1,17.7,21.1,17.7,21.1L17.7,21.1C17.7,21.1,17.7,21.1,17.7,21.1c-0.4,0-0.8,0.2-1,0.5c-0.2,0.3-0.4,0.7-0.4,1.1
		c0,0.4,0.1,0.8,0.4,1.1c0.2,0.3,0.6,0.5,1,0.5c0,0,0,0,0,0c0,0,0,0,0,0c0.4,0,0.8-0.2,1-0.5c0.2-0.3,0.4-0.7,0.4-1.1
		c0-0.4-0.1-0.8-0.4-1.1C18.5,21.3,18.1,21.1,17.7,21.1"/>
	<path class="st5" d="M17.5,21.6c-0.4,0-0.7,0.3-0.7,0.7c0,0.4,0.2,0.7,0.6,0.7c0.1,0,0.1,0,0.2,0c0.3,0,0.5-0.1,0.6-0.3
		c0.1-0.1,0.1-0.3,0.1-0.4C18.3,22,17.9,21.6,17.5,21.6"/>
	<path class="st5" d="M15.6,24.5c0,0.2,0,0.5,0,0.7c0,3.9,2.3,7.2,5.6,8.7c0.2-0.7,0.3-1.4,0.3-2.1c0-2.1-0.8-3.9-2.2-5.3
		C18.3,25.5,17,24.8,15.6,24.5"/>
	<path class="st6" d="M15.6,24c0,0.2,0,0.3,0,0.5c1.4,0.3,2.7,1,3.7,2c1.3,1.3,2.2,3.2,2.2,5.3c0,0.7-0.1,1.4-0.3,2.1
		c0.2,0.1,0.3,0.1,0.5,0.2c0.2-0.6,0.3-1.2,0.3-1.8c-0.1-0.2-0.2-0.5-0.2-0.8c0-0.2,0-0.5,0.1-0.7C21.5,27.4,18.9,24.7,15.6,24"/>
	<path class="st5" d="M34.6,24.5c-1.5,0.3-2.8,1-3.8,2c-1.3,1.3-2.2,3.2-2.2,5.3c0,0.7,0.1,1.5,0.3,2.1c3.3-1.5,5.7-4.8,5.7-8.7
		C34.7,24.9,34.7,24.7,34.6,24.5"/>
	<path class="st6" d="M34.6,24c-3.3,0.7-5.9,3.4-6.3,6.9c0.1,0.2,0.1,0.4,0.1,0.6c0,0.3-0.1,0.5-0.1,0.7c0,0.6,0.2,1.3,0.3,1.9
		c0.2-0.1,0.3-0.1,0.5-0.2c-0.2-0.7-0.3-1.4-0.3-2.1c0-2.1,0.8-3.9,2.2-5.3c1-1,2.3-1.7,3.8-2C34.6,24.3,34.6,24.1,34.6,24"/>
	<path class="st5" d="M24.4,32.8c0,0.1-0.1,0.2-0.2,0.2c0.1,0,0.3-0.1,0.4-0.2C24.6,32.9,24.5,32.9,24.4,32.8 M25.7,32.8
		c-0.1,0-0.1,0-0.2,0c0.1,0,0.2,0.1,0.3,0.1C25.7,32.9,25.7,32.9,25.7,32.8 M23,30.1c-0.1,0.1-0.2,0.1-0.3,0.2
		c-0.3,0.3-0.5,0.7-0.5,1.1c0,0.7,0.5,1.4,1.2,1.6c-0.2-0.1-0.3-0.3-0.3-0.5c0-0.1,0-0.3,0.1-0.4c-0.3-0.4-0.5-0.8-0.5-1.3
		C22.9,30.6,23,30.3,23,30.1 M27,30.1c0.1,0.2,0.1,0.5,0.1,0.8c0,0.5-0.2,0.9-0.4,1.3c0.1,0.1,0.1,0.3,0.1,0.4
		c0,0.2-0.1,0.4-0.2,0.5c0.3-0.1,0.5-0.2,0.7-0.4c0.3-0.3,0.5-0.7,0.5-1.1C27.9,30.9,27.5,30.3,27,30.1"/>
	<path class="st6" d="M26.6,29.4c0.2,0.2,0.3,0.4,0.4,0.7c0.5,0.3,0.8,0.8,0.8,1.4c0,0.4-0.2,0.8-0.5,1.1c-0.2,0.2-0.4,0.3-0.7,0.4
		c-0.1,0.1-0.3,0.2-0.4,0.2c-0.2,0-0.3-0.1-0.4-0.2c-0.1,0-0.2-0.1-0.3-0.1c-0.2,0-0.3,0.1-0.5,0.1c-0.1,0-0.3,0-0.4,0
		c-0.1,0.1-0.3,0.1-0.4,0.2c-0.1,0.1-0.2,0.1-0.4,0.1c-0.1,0-0.3,0-0.4-0.1c-0.7-0.2-1.2-0.8-1.2-1.6c0-0.4,0.2-0.8,0.5-1.1
		c0.1-0.1,0.2-0.2,0.3-0.2c0.1-0.3,0.2-0.5,0.4-0.7c-0.7,0.2-1.3,0.7-1.6,1.4c-0.1,0.2-0.1,0.4-0.1,0.7c0,0.3,0.1,0.5,0.2,0.8
		c0.3,0.8,1.1,1.3,2,1.3c0.4,0,0.8-0.1,1.2-0.4c0.3,0.2,0.7,0.3,1.1,0.3l0,0c0.9,0,1.7-0.6,2-1.3c0.1-0.2,0.1-0.5,0.1-0.7
		c0-0.2,0-0.4-0.1-0.6C28,30.1,27.4,29.5,26.6,29.4"/>
	<path class="st6" d="M23.4,32.1c-0.1,0.1-0.1,0.2-0.1,0.4c0,0.2,0.1,0.4,0.3,0.5c0.1,0.1,0.2,0.1,0.4,0.1c0.1,0,0.3,0,0.4-0.1
		c0.1-0.1,0.1-0.1,0.2-0.2C24,32.7,23.6,32.5,23.4,32.1"/>
	<path class="st6" d="M26.7,32.1c-0.3,0.3-0.6,0.6-1,0.7c0,0.1,0.1,0.1,0.1,0.2c0.1,0.1,0.3,0.2,0.4,0.2c0.2,0,0.3-0.1,0.4-0.2
		c0.1-0.1,0.2-0.3,0.2-0.5C26.9,32.4,26.8,32.2,26.7,32.1"/>
	<path class="st5" d="M25,29.2c-0.9,0-1.6,0.7-1.6,1.6c0,0.9,0.7,1.6,1.6,1.6c0.9,0,1.6-0.7,1.6-1.6C26.7,29.9,25.9,29.2,25,29.2
		L25,29.2"/>
	<path class="st6" d="M25,32.4c-0.9,0-1.6-0.7-1.6-1.6c0-0.9,0.7-1.6,1.6-1.6l0,0c0.9,0,1.6,0.7,1.6,1.6
		C26.7,31.7,25.9,32.4,25,32.4 M25,28.7L25,28.7c-0.6,0-1.2,0.3-1.6,0.7c-0.2,0.2-0.3,0.4-0.4,0.7c-0.1,0.2-0.1,0.5-0.1,0.7
		c0,0.5,0.2,1,0.5,1.3c0.3,0.3,0.6,0.6,1.1,0.7c0.1,0,0.1,0,0.2,0.1c0.1,0,0.3,0,0.4,0c0.2,0,0.3,0,0.5-0.1c0.1,0,0.1,0,0.2,0
		c0.4-0.1,0.8-0.4,1-0.7c0.3-0.4,0.4-0.8,0.4-1.3c0-0.3,0-0.5-0.1-0.8c-0.1-0.3-0.2-0.5-0.4-0.7C26.2,29,25.7,28.7,25,28.7"/>
	<path class="st6" d="M19.8,17.2c-0.6,0.4-1.2,0.9-1.7,1.4c0.5,0.2,0.9,0.4,1.2,0.8c0.7,0.7,1.2,1.7,1.2,3.3c0,0.6,0.4,1,1,1
		c0.6,0,1-0.4,1-1h0c0-2-0.7-3.7-1.8-4.8C20.5,17.6,20.2,17.4,19.8,17.2"/>
	<path class="st6" d="M30.3,17.1c-0.4,0.2-0.7,0.5-1,0.8c-1.1,1.1-1.8,2.7-1.8,4.8c0,0.6,0.4,1,1,1s1-0.4,1-1c0-1.6,0.5-2.6,1.2-3.3
		c0.4-0.4,0.8-0.6,1.3-0.8C31.5,18,30.9,17.5,30.3,17.1"/>
</g>
</svg>
