<?xml version="1.0" encoding="utf-8"?>
<!-- Generator: Adobe Illustrator 24.0.1, SVG Export Plug-In . SVG Version: 6.00 Build 0)  -->
<svg version="1.1" id="Layer_2_1_" xmlns="http://www.w3.org/2000/svg" xmlns:xlink="http://www.w3.org/1999/xlink" x="0px" y="0px"
	 viewBox="0 0 128 128" style="enable-background:new 0 0 128 128;" xml:space="preserve">
<style type="text/css">
	.st0{fill:#332E28;}
	.st1{fill:#F9E3C2;}
	.st2{fill:#FFFFFF;}
	.st3{fill:#F2D4B6;}
</style>
<g>
	<circle class="st0" cx="64" cy="64" r="63"/>
	<path d="M64,1v1c17.1,0,32.6,6.9,43.8,18.2C119.1,31.4,126,46.9,126,64s-6.9,32.6-18.2,43.8C96.6,119.1,81.1,126,64,126
		s-32.6-6.9-43.8-18.2C8.9,96.6,2,81.1,2,64s6.9-32.6,18.2-43.8C31.4,8.9,46.9,2,64,2V1V0C28.7,0,0,28.7,0,64s28.7,64,64,64
		s64-28.7,64-64S99.3,0,64,0V1z"/>
	<ellipse class="st1" cx="9" cy="74" rx="8.5" ry="29.5"/>
	<ellipse class="st1" cx="9" cy="74" rx="8.5" ry="29.5"/>
	<path d="M9,44.5V45c0.5,0,0.9,0.2,1.4,0.5c0.9,0.6,1.7,1.8,2.5,3.5c2.4,5,4,14.4,4,25c0,8.1-0.9,15.4-2.5,20.7
		c-0.8,2.6-1.7,4.8-2.6,6.2c-0.5,0.7-1,1.2-1.5,1.6c-0.5,0.3-1,0.5-1.4,0.5c-0.5,0-0.9-0.2-1.4-0.5c-0.9-0.6-1.7-1.8-2.5-3.5
		c-2.4-5-4-14.4-4-25c0-8.1,0.9-15.4,2.5-20.7c0.8-2.6,1.7-4.8,2.6-6.2c0.5-0.7,1-1.2,1.5-1.6C8.1,45.2,8.5,45,9,45V44.5V44
		c-0.7,0-1.4,0.3-2,0.7c-1.1,0.8-2,2.1-2.9,3.9C1.6,53.9,0,63.3,0,74c0,8.2,1,15.6,2.5,21c0.8,2.7,1.7,4.9,2.8,6.5
		c0.5,0.8,1.1,1.4,1.7,1.8s1.3,0.7,2,0.7s1.4-0.3,2-0.7c1.1-0.8,2-2.1,2.9-3.9C16.4,94.2,18,84.8,18,74c0-8.2-1-15.6-2.5-21
		c-0.8-2.7-1.7-4.9-2.8-6.5c-0.5-0.8-1.1-1.4-1.7-1.8C10.4,44.3,9.7,44,9,44V44.5z"/>
	<path d="M9,44.5V45c0.5,0,0.9,0.2,1.4,0.5c0.9,0.6,1.7,1.8,2.5,3.5c2.4,5,4,14.4,4,25c0,8.1-0.9,15.4-2.5,20.7
		c-0.8,2.6-1.7,4.8-2.6,6.2c-0.5,0.7-1,1.2-1.5,1.6c-0.5,0.3-1,0.5-1.4,0.5c-0.5,0-0.9-0.2-1.4-0.5c-0.9-0.6-1.7-1.8-2.5-3.5
		c-2.4-5-4-14.4-4-25c0-8.1,0.9-15.4,2.5-20.7c0.8-2.6,1.7-4.8,2.6-6.2c0.5-0.7,1-1.2,1.5-1.6C8.1,45.2,8.5,45,9,45V44.5V44
		c-0.7,0-1.4,0.3-2,0.7c-1.1,0.8-2,2.1-2.9,3.9C1.6,53.9,0,63.3,0,74c0,8.2,1,15.6,2.5,21c0.8,2.7,1.7,4.9,2.8,6.5
		c0.5,0.8,1.1,1.4,1.7,1.8s1.3,0.7,2,0.7s1.4-0.3,2-0.7c1.1-0.8,2-2.1,2.9-3.9C16.4,94.2,18,84.8,18,74c0-8.2-1-15.6-2.5-21
		c-0.8-2.7-1.7-4.9-2.8-6.5c-0.5-0.8-1.1-1.4-1.7-1.8C10.4,44.3,9.7,44,9,44V44.5z"/>
	<path class="st1" d="M119.1,44c4.6,0,8.4,13.3,8.4,29.8s-3.8,29.8-8.4,29.8s-8.4-13.3-8.4-29.8S114.5,44,119.1,44z"/>
	<path d="M119.1,44v0.5c0.5,0,0.9,0.2,1.4,0.5c0.8,0.6,1.7,1.8,2.5,3.5c2.4,5.1,4,14.5,4,25.3c0,8.2-0.9,15.6-2.4,20.9
		c-0.7,2.7-1.6,4.8-2.6,6.2c-0.5,0.7-1,1.3-1.5,1.6c-0.5,0.3-0.9,0.5-1.4,0.5s-0.9-0.2-1.4-0.5c-0.8-0.6-1.7-1.8-2.5-3.5
		c-2.4-5.1-4-14.5-4-25.3c0-8.2,0.9-15.6,2.4-20.9c0.7-2.7,1.6-4.8,2.6-6.2c0.5-0.7,1-1.3,1.5-1.6s0.9-0.5,1.4-0.5V44v-0.5
		c-0.7,0-1.4,0.3-2,0.7c-1.1,0.8-2,2.1-2.8,3.9c-2.5,5.4-4.1,14.8-4.1,25.7c0,8.3,0.9,15.8,2.5,21.2c0.8,2.7,1.7,5,2.7,6.5
		c0.5,0.8,1.1,1.4,1.7,1.9c0.6,0.4,1.3,0.7,2,0.7s1.4-0.3,2-0.7c1.1-0.8,2-2.1,2.8-3.9c2.5-5.4,4.1-14.8,4.1-25.7
		c0-8.3-0.9-15.8-2.5-21.2c-0.8-2.7-1.7-5-2.7-6.5c-0.5-0.8-1.1-1.4-1.7-1.9c-0.6-0.4-1.3-0.7-2-0.7V44z"/>
	<circle class="st0" cx="64" cy="68" r="60"/>
	<path class="st0" d="M64,8v0.5c16.4,0,31.3,6.7,42.1,17.4c10.8,10.8,17.4,25.6,17.4,42.1c0,16.4-6.7,31.3-17.4,42.1
		c-10.8,10.8-25.6,17.4-42.1,17.4c-16.4,0-31.3-6.7-42.1-17.4C11.2,99.3,4.5,84.4,4.5,68s6.7-31.3,17.4-42.1
		C32.7,15.2,47.6,8.5,64,8.5V8V7.5C30.6,7.5,3.5,34.6,3.5,68s27.1,60.5,60.5,60.5s60.5-27.1,60.5-60.5S97.4,7.5,64,7.5V8z"/>
	<ellipse class="st1" cx="64.1" cy="69.4" rx="57.1" ry="57.1"/>
	<path d="M64.1,12.3v0.5c15.6,0,29.8,6.3,40,16.6c10.2,10.2,16.6,24.4,16.6,40s-6.3,29.8-16.6,40c-10.2,10.2-24.4,16.6-40,16.6
		s-29.8-6.3-40-16.6C13.8,99.1,7.5,85,7.5,69.4s6.3-29.8,16.6-40c10.2-10.2,24.4-16.6,40-16.6V12.3v-0.5
		c-31.8,0-57.6,25.8-57.6,57.6S32.3,127,64.1,127s57.6-25.8,57.6-57.6S95.9,11.8,64.1,11.8V12.3z"/>
	<ellipse class="st0" cx="83.5" cy="58" rx="3.5" ry="4"/>
	<path d="M83.5,54v0.5c0.8,0,1.5,0.4,2.1,1s0.9,1.5,0.9,2.5s-0.4,1.9-0.9,2.5c-0.6,0.6-1.3,1-2.1,1c-0.8,0-1.5-0.4-2.1-1
		S80.5,59,80.5,58s0.4-1.9,0.9-2.5c0.6-0.6,1.3-1,2.1-1V54v-0.5c-1.1,0-2.1,0.5-2.9,1.3c-0.7,0.8-1.1,1.9-1.1,3.2
		c0,1.2,0.4,2.3,1.1,3.2c0.7,0.8,1.7,1.3,2.9,1.3c1.1,0,2.1-0.5,2.9-1.3c0.7-0.8,1.1-1.9,1.1-3.2c0-1.2-0.4-2.3-1.1-3.2
		c-0.7-0.8-1.7-1.3-2.9-1.3V54z"/>
	<circle class="st2" cx="83" cy="57" r="1.5"/>
	<path d="M83,55.5V56c0.6,0,1,0.4,1,1s-0.4,1-1,1s-1-0.4-1-1s0.4-1,1-1V55.5V55c-1.1,0-2,0.9-2,2s0.9,2,2,2s2-0.9,2-2s-0.9-2-2-2
		V55.5z"/>
	<ellipse class="st0" cx="44.5" cy="58" rx="3.5" ry="4"/>
	<path d="M44.5,54v0.5c0.8,0,1.5,0.4,2.1,1s0.9,1.5,0.9,2.5s-0.4,1.9-0.9,2.5c-0.6,0.6-1.3,1-2.1,1s-1.5-0.4-2.1-1S41.5,59,41.5,58
		s0.4-1.9,0.9-2.5c0.6-0.6,1.3-1,2.1-1V54v-0.5c-1.1,0-2.1,0.5-2.9,1.3c-0.7,0.8-1.1,1.9-1.1,3.2c0,1.2,0.4,2.3,1.1,3.2
		c0.7,0.8,1.7,1.3,2.9,1.3c1.1,0,2.1-0.5,2.9-1.3c0.7-0.8,1.1-1.9,1.1-3.2c0-1.2-0.4-2.3-1.1-3.2c-0.7-0.8-1.7-1.3-2.9-1.3V54z"/>
	<circle class="st2" cx="44" cy="57" r="1.5"/>
	<path d="M44,55.5V56c0.6,0,1,0.4,1,1s-0.4,1-1,1s-1-0.4-1-1s0.4-1,1-1V55.5V55c-1.1,0-2,0.9-2,2s0.9,2,2,2s2-0.9,2-2s-0.9-2-2-2
		V55.5z"/>
	<circle class="st1" cx="34.7" cy="82" r="20.5"/>
	<path class="st3" d="M34.7,61.5V62c5.5,0,10.5,2.2,14.1,5.9c3.6,3.6,5.9,8.6,5.9,14.1s-2.2,10.5-5.9,14.1
		c-3.6,3.6-8.6,5.9-14.1,5.9s-10.5-2.2-14.1-5.9c-3.6-3.6-5.9-8.6-5.9-14.1s2.2-10.5,5.9-14.1c3.6-3.6,8.6-5.9,14.1-5.9L34.7,61.5
		V61c-11.6,0-21,9.4-21,21s9.4,21,21,21s21-9.4,21-21s-9.4-21-21-21V61.5z"/>
	<circle class="st1" cx="93.7" cy="82" r="20.5"/>
	<path class="st3" d="M93.7,61.5V62c5.5,0,10.5,2.2,14.1,5.9c3.6,3.6,5.9,8.6,5.9,14.1s-2.2,10.5-5.9,14.1
		c-3.6,3.6-8.6,5.9-14.1,5.9s-10.5-2.2-14.1-5.9c-3.6-3.6-5.9-8.6-5.9-14.1s2.2-10.5,5.9-14.1c3.6-3.6,8.6-5.9,14.1-5.9V61.5V61
		c-11.6,0-21,9.4-21,21s9.4,21,21,21s21-9.4,21-21s-9.4-21-21-21V61.5z"/>
	<path class="st1" d="M67.3,86.1c-1,0-2-0.3-2.8-0.9l-0.4-0.1l-0.2,0.2c-0.8,0.6-1.8,0.9-2.8,0.9c-2.8,0-5-2.3-5-5s2.3-5,5-5
		c1,0,2,0.3,2.8,0.9l0.3,0.2l0.3-0.2c0.8-0.6,1.8-0.9,2.8-0.9c2.8,0,5,2.3,5,5S70,86.1,67.3,86.1z"/>
	<path d="M67.3,86.1v-0.5c-0.9,0-1.8-0.3-2.5-0.8l-0.1-0.1l-0.5-0.1l-0.3-0.1L63.5,85l0.4,0.4L63.6,85c-0.7,0.5-1.6,0.8-2.5,0.8
		c-1.3,0-2.4-0.5-3.2-1.3s-1.3-1.9-1.3-3.2c0-1.2,0.5-2.3,1.3-3.2c0.8-0.8,2-1.3,3.2-1.3c0.9,0,1.8,0.3,2.5,0.8l0,0l0.3,0.2l0.3,0.2
		l0.6-0.4l0,0l0,0c0.7-0.5,1.6-0.8,2.5-0.8c1.3,0,2.4,0.5,3.2,1.3c0.8,0.8,1.3,1.9,1.3,3.2c0,1.2-0.5,2.3-1.3,3.1
		c-0.8,0.8-2,1.3-3.2,1.3L67.3,86.1v0.5c3,0,5.5-2.4,5.5-5.4s-2.4-5.5-5.5-5.5c-1.1,0-2.2,0.3-3.1,1l0.3,0.4l-0.3-0.4l0,0l0,0
		l-0.3,0.4l0.3-0.4c-0.9-0.7-2-1-3.1-1c-3,0-5.5,2.5-5.5,5.5s2.4,5.5,5.5,5.5c1.1,0,2.2-0.3,3.1-1l0,0l0,0h0.1l0.1-0.5l-0.3,0.4
		c0.9,0.7,2,1,3.1,1v-0.5H67.3z"/>
	<path d="M61,82.4c0.9,0,1.7,0.8,1.7,1.7c0,0.9-0.8,1.7-1.7,1.7s-1.7-0.8-1.7-1.7C59.3,83.1,60.1,82.4,61,82.4z"/>
	<circle cx="67.2" cy="84.1" r="1.7"/>
	<path class="st1" d="M64.1,74.5c2.8,0,5,2.2,5,5s-2.2,5-5,5c-2.8,0-5-2.2-5-5S61.3,74.5,64.1,74.5z"/>
	<path d="M64.1,74.5V75c1.2,0,2.4,0.5,3.2,1.3c0.8,0.8,1.3,1.9,1.3,3.2c0,1.2-0.5,2.4-1.3,3.2c-0.8,0.8-1.9,1.3-3.2,1.3
		c-1.2,0-2.4-0.5-3.2-1.3s-1.3-1.9-1.3-3.2c0-1.2,0.5-2.4,1.3-3.2c0.8-0.8,1.9-1.3,3.2-1.3V74.5V74c-3,0-5.5,2.5-5.5,5.5
		s2.5,5.5,5.5,5.5s5.5-2.5,5.5-5.5S67.1,74,64.1,74V74.5z"/>
	<path d="M83.5,104h0.3l-0.2-0.2L83.5,104h0.3l-0.2-0.2l0,0c-0.1,0.1-0.3,0.2-0.7,0.4c-0.7,0.3-1.7,0.6-3,0.8
		c-3.9,0.7-10.1,1.1-16.2,1.1c-4.9,0-9.8-0.3-13.5-0.8c-1.8-0.3-3.3-0.6-4.2-0.9c-0.5-0.2-0.8-0.4-1-0.5l-0.1-0.1l0,0l-0.1,0.1h0.1
		l0,0l-0.1,0.1h0.1l-0.3,0.1h0.3V104l-0.3,0.1h0.3c0-0.6-0.4-1-1-1s-1,0.4-1,1c0,0.3,0.1,0.6,0.2,0.9c0.3,0.5,0.7,0.8,1.2,1
		c0.8,0.4,1.9,0.8,3.2,1c3.9,0.8,10,1.2,16.1,1.2c5.2,0,10.4-0.3,14.4-0.8c2-0.3,3.7-0.6,4.9-1c0.6-0.2,1.2-0.5,1.6-0.8
		c0.2-0.2,0.4-0.4,0.6-0.6s0.3-0.6,0.3-0.9c0-0.6-0.4-1-1-1C84,103,83.6,103.5,83.5,104L83.5,104z"/>
	<path d="M81.6,110.5H82l-0.3-0.2L81.6,110.5H82l-0.3-0.2l0.1,0.1l-0.1-0.1l0,0l0.1,0.1l-0.1-0.1c0,0-0.2,0.1-0.5,0.2
		c-1.1,0.3-3.7,0.6-6.8,0.7c-3.1,0.2-6.9,0.2-10.6,0.2c-4.4,0-8.8-0.1-12.1-0.4c-1.6-0.1-3-0.3-3.9-0.4c-0.5-0.1-0.8-0.2-1-0.3
		c-0.1,0-0.2-0.1-0.2-0.1l-0.1,0.1l0.1-0.1l0,0l-0.1,0.1l0.1-0.1l-0.3,0.2h0.3v-0.2l-0.3,0.2h0.3c0-0.3-0.2-0.5-0.5-0.5
		s-0.5,0.2-0.5,0.5s0.1,0.5,0.3,0.6c0.2,0.2,0.5,0.3,0.9,0.4c1.3,0.4,3.7,0.6,6.7,0.8c3,0.2,6.7,0.2,10.3,0.2
		c4.6,0,9.2-0.1,12.6-0.4c1.7-0.1,3.2-0.3,4.2-0.5c0.5-0.1,0.9-0.2,1.3-0.3c0.2-0.1,0.3-0.1,0.4-0.2s0.1-0.1,0.2-0.2
		s0.1-0.2,0.1-0.3c0-0.3-0.2-0.5-0.5-0.5C81.9,110,81.6,110.2,81.6,110.5L81.6,110.5z"/>
	<path class="st0" d="M63.9,25.2c-4.9,0-9.7-1-14.2-3c-3.9-1.8-7.4-4.3-10.4-7.3c3.6-1.7,7.4-3,11.2-3.9c4.4-1,9-1.6,13.6-1.6
		c4.5,0,9,0.5,13.4,1.5c3.8,0.9,7.5,2.2,11.1,3.8c-3,3.1-6.5,5.6-10.5,7.4C73.6,24.1,68.8,25.2,63.9,25.2z"/>
	<path class="st0" d="M18.6,57.8H6.3c0.9-6.1,2.7-12,5.3-17.5c2.5-5.4,5.7-10.3,9.5-14.6c0.9,0.8,1.4,1.9,1.4,3.1v25
		C22.6,56,20.8,57.8,18.6,57.8z"/>
	<path class="st0" d="M122,57.8h-12.3c-2.2,0-4-1.8-4-4v-25c0-1.2,0.5-2.3,1.4-3.1c3.8,4.3,7.1,9.2,9.6,14.6
		C119.3,45.8,121.1,51.7,122,57.8z"/>
	<path class="st0" d="M56.5,57.8c0-5.1-1.8-9.2-4.5-11.8c-2.8-2.7-6.4-4-10.1-4c-3.7,0-7.4,1.3-10.2,4s-4.6,6.7-4.6,11.8
		c0,0.8,0.7,1.5,1.5,1.5s1.5-0.7,1.5-1.5c0-4.4,1.5-7.5,3.7-9.6C36,46,38.9,45,41.9,45c2.9,0,5.8,1.1,8,3.1c2.1,2.1,3.6,5.2,3.6,9.7
		c0,0.8,0.7,1.5,1.5,1.5S56.5,58.6,56.5,57.8L56.5,57.8z"/>
	<path class="st0" d="M74.7,57.8c0-4.5,1.5-7.6,3.6-9.7c2.1-2.1,5-3.1,8-3.1s5.9,1.1,8.1,3.2c2.2,2.1,3.7,5.2,3.7,9.6
		c0,0.8,0.7,1.5,1.5,1.5s1.5-0.7,1.5-1.5c0-5.1-1.8-9.1-4.6-11.8c-2.8-2.7-6.5-4-10.2-4c-3.6,0-7.3,1.3-10.1,4
		c-2.8,2.7-4.6,6.7-4.5,11.8c0,0.8,0.7,1.5,1.5,1.5C74,59.3,74.7,58.6,74.7,57.8L74.7,57.8z"/>
</g>
</svg>
