<?xml version="1.0" encoding="utf-8"?>
<!-- Generator: Adobe Illustrator 24.0.1, SVG Export Plug-In . SVG Version: 6.00 Build 0)  -->
<svg version="1.1" id="Layer_1" xmlns="http://www.w3.org/2000/svg" xmlns:xlink="http://www.w3.org/1999/xlink" x="0px" y="0px"
	 viewBox="0 0 110 110" style="enable-background:new 0 0 110 110;" xml:space="preserve">
<style type="text/css">
	.st0{fill:#FDB300;}
	.st1{fill:#EB6C00;}
	.st2{fill:#FDAD00;}
	.st3{fill:#FDD231;}
	.st4{fill:#FEEEB7;}
</style>
<g>
	<polygon class="st0" points="55,8.5 26.8,11.5 5,40.8 55,99 105,40.8 83.2,11.5 	"/>
	<polygon class="st1" points="5,40.8 55,99 25.3,40.8 	"/>
	<polygon class="st1" points="84.7,40.8 55,99 105,40.8 	"/>
	<polygon class="st2" points="25.3,40.8 55,99 84.7,40.8 	"/>
	<polygon class="st3" points="26.8,11.5 25.3,40.8 55,8.5 	"/>
	<polygon class="st3" points="84.7,40.8 83.2,11.5 55,8.5 	"/>
	<polygon class="st2" points="84.7,40.8 105,40.8 83.2,11.5 	"/>
	<polygon class="st2" points="5,40.8 25.3,40.8 26.8,11.5 	"/>
	<polygon class="st4" points="55,8.5 25.3,40.8 84.7,40.8 	"/>
</g>
</svg>
